STARTFONT 2.1
COMMENT
COMMENT Converted from TrueType font "verdana.ttf" by "ttf2bdf 2.6".
COMMENT
FONT -FreeType-Verdana-Medium-R-Normal--33-240-100-100-P-177-ISO10646-1
SIZE 24 100 100
FONTBOUNDINGBOX 50 40 -2 -7
STARTPROPERTIES 20
FOUNDRY "FreeType"
FAMILY_NAME "Verdana"
WEIGHT_NAME "Medium"
SLANT "R"
SETWIDTH_NAME "Normal"
ADD_STYLE_NAME ""
PIXEL_SIZE 33
POINT_SIZE 240
RESOLUTION_X 100
RESOLUTION_Y 100
SPACING "P"
AVERAGE_WIDTH 177
CHARSET_REGISTRY "ISO10646"
CHARSET_ENCODING "1"
FONT_ASCENT 33
FONT_DESCENT 6
COPYRIGHT "Typeface and data © 1996 Microsoft Corporation. All Rights Reserved"
_TTF_FONTFILE "verdana.ttf"
_TTF_PSNAME "Verdana"
_XFREE86_GLYPH_RANGES "32_126 160_383 402 416_417 431_432 506_511 710_711 713 728_733 768_769 771 777 803 894 900_906 908 910_929 931_974 1025_1036 1038_1103 1105_1116 1118_1119 1168_1169 7808_7813 7840_7929 8211_8213 8215_8222 8224_8226 8230 8240 8242_8243 8249_8250 8252 8254 8260 8319 8355_8356 8359 8363_8364 8453 8467 8470 8482 8486 8494 8539_8542 8706 8710 8719 8721_8722 8725 8729_8730 8734 8747 8776 8800 8804_8805 9633 9642_9643 9674 9679 9702 61441_61442 61444_61453 64257_64258"
ENDPROPERTIES
CHARS 680
STARTCHAR 0020
ENCODING 32
SWIDTH 360 0
DWIDTH 12 0
BBX 1 1 0 0
BITMAP
00
ENDCHAR
STARTCHAR 0021
ENCODING 33
SWIDTH 390 0
DWIDTH 13 0
BBX 3 24 5 0
BITMAP
E0
E0
E0
E0
E0
E0
E0
E0
E0
E0
E0
E0
E0
E0
E0
E0
E0
00
00
00
00
E0
E0
E0
ENDCHAR
STARTCHAR 0022
ENCODING 34
SWIDTH 450 0
DWIDTH 15 0
BBX 10 9 3 16
BITMAP
E1C0
E1C0
E1C0
E1C0
E1C0
E1C0
E1C0
E1C0
4080
ENDCHAR
STARTCHAR 0023
ENCODING 35
SWIDTH 810 0
DWIDTH 27 0
BBX 21 24 3 0
BITMAP
0060C0
0060C0
00C180
00C180
00C180
00C180
018300
3FFFF8
3FFFF8
018300
030600
030600
030600
030600
060C00
FFFFE0
FFFFE0
060C00
0C1800
0C1800
0C1800
0C1800
183000
183000
ENDCHAR
STARTCHAR 0024
ENCODING 36
SWIDTH 630 0
DWIDTH 21 0
BBX 16 31 3 -6
BITMAP
0180
0180
0180
0180
07F8
3FFE
7FFE
7986
E180
E180
E180
F180
7980
7FC0
1FF8
03FE
019E
018F
0187
0187
8187
F19E
FFFE
FFF8
1FE0
0180
0180
0180
0180
0180
0180
ENDCHAR
STARTCHAR 0025
ENCODING 37
SWIDTH 1080 0
DWIDTH 36 0
BBX 31 25 2 0
BITMAP
1F800000
3FC00E00
70E00C00
70E01C00
E0701800
E0703800
E0703000
E0707000
E0706000
E070E000
E0E1C000
70E1C3F0
3FC387F8
1F838E1C
00071E1C
00071C0E
000E1C0E
000E1C0E
001C1C0E
00181C0E
00381C0E
00300C1C
00700E1C
006007F8
00E003F0
ENDCHAR
STARTCHAR 0026
ENCODING 38
SWIDTH 720 0
DWIDTH 24 0
BBX 23 25 2 0
BITMAP
07E000
1FF000
3C7800
781C00
701C00
701C00
701C00
781C00
3C3800
1EF000
0FC0E0
1FC0E0
39E0E0
70F0E0
7078E0
E03CC0
E01EC0
E00FC0
E00780
F003C0
F007E0
7C1EF0
3FFC78
1FF83C
07E01E
ENDCHAR
STARTCHAR 0027
ENCODING 39
SWIDTH 270 0
DWIDTH 9 0
BBX 3 9 3 16
BITMAP
E0
E0
E0
E0
E0
E0
E0
E0
40
ENDCHAR
STARTCHAR 0028
ENCODING 40
SWIDTH 450 0
DWIDTH 15 0
BBX 10 32 3 -7
BITMAP
03C0
0780
0F00
0E00
1C00
3C00
3800
7800
7000
7000
7000
E000
E000
E000
E000
E000
E000
E000
E000
E000
E000
7000
7000
7000
7800
3800
3C00
1C00
0E00
0F00
0780
03C0
ENDCHAR
STARTCHAR 0029
ENCODING 41
SWIDTH 450 0
DWIDTH 15 0
BBX 10 32 2 -7
BITMAP
F000
7800
3C00
1C00
0E00
0F00
0700
0700
0380
0380
0380
01C0
01C0
01C0
01C0
01C0
01C0
01C0
01C0
01C0
01C0
0380
0380
0380
0700
0700
0F00
0E00
1C00
3C00
7800
F000
ENDCHAR
STARTCHAR 002A
ENCODING 42
SWIDTH 630 0
DWIDTH 21 0
BBX 16 15 2 10
BITMAP
0180
0180
4182
E187
799E
1FF8
07E0
03C0
07E0
1FF8
799E
E187
4182
0180
0180
ENDCHAR
STARTCHAR 002B
ENCODING 43
SWIDTH 810 0
DWIDTH 27 0
BBX 21 21 3 0
BITMAP
007000
007000
007000
007000
007000
007000
007000
007000
007000
FFFFF8
FFFFF8
FFFFF8
007000
007000
007000
007000
007000
007000
007000
007000
007000
ENDCHAR
STARTCHAR 002C
ENCODING 44
SWIDTH 360 0
DWIDTH 12 0
BBX 7 11 2 -6
BITMAP
1E
3C
3C
3C
38
78
70
70
60
E0
E0
ENDCHAR
STARTCHAR 002D
ENCODING 45
SWIDTH 450 0
DWIDTH 15 0
BBX 10 3 2 9
BITMAP
FFC0
FFC0
FFC0
ENDCHAR
STARTCHAR 002E
ENCODING 46
SWIDTH 360 0
DWIDTH 12 0
BBX 4 5 4 0
BITMAP
F0
F0
F0
F0
F0
ENDCHAR
STARTCHAR 002F
ENCODING 47
SWIDTH 450 0
DWIDTH 15 0
BBX 14 30 0 -5
BITMAP
001C
0038
0038
0078
0070
0070
00F0
00E0
00E0
01E0
01C0
01C0
03C0
0380
0380
0700
0700
0F00
0E00
0E00
1E00
1C00
1C00
3C00
3800
3800
7000
7000
7000
E000
ENDCHAR
STARTCHAR 0030
ENCODING 48
SWIDTH 630 0
DWIDTH 21 0
BBX 17 25 2 0
BITMAP
07F000
0FF800
3FFC00
3C1E00
780F00
700700
700700
E00380
E00380
E00380
E00380
E00380
E00380
E00380
E00380
E00380
E00380
E00380
700700
700700
780F00
3C1E00
3FFE00
1FFC00
07F000
ENDCHAR
STARTCHAR 0031
ENCODING 49
SWIDTH 630 0
DWIDTH 21 0
BBX 13 24 4 0
BITMAP
0700
0700
0F00
FF00
FF00
FF00
0700
0700
0700
0700
0700
0700
0700
0700
0700
0700
0700
0700
0700
0700
0700
FFF8
FFF8
FFF8
ENDCHAR
STARTCHAR 0032
ENCODING 50
SWIDTH 630 0
DWIDTH 21 0
BBX 16 25 3 0
BITMAP
0FE0
7FF8
7FFC
703C
401E
000E
000E
000E
000E
000E
001C
003C
0038
0070
00E0
01C0
0380
0700
1E00
3C00
7800
F000
FFFF
FFFF
FFFF
ENDCHAR
STARTCHAR 0033
ENCODING 51
SWIDTH 630 0
DWIDTH 21 0
BBX 16 25 3 0
BITMAP
0FF0
7FFC
7FFE
781F
400F
0007
0007
0007
000E
003C
03F8
03E0
03FC
001E
000E
0007
0007
0007
0007
000F
800E
F03E
FFFC
FFF8
1FE0
ENDCHAR
STARTCHAR 0034
ENCODING 52
SWIDTH 630 0
DWIDTH 21 0
BBX 19 24 1 0
BITMAP
000E00
001E00
003E00
007E00
00FE00
01EE00
03CE00
078E00
0F0E00
1F0E00
1E0E00
3C0E00
780E00
F00E00
FFFFE0
FFFFE0
FFFFE0
000E00
000E00
000E00
000E00
000E00
000E00
000E00
ENDCHAR
STARTCHAR 0035
ENCODING 53
SWIDTH 630 0
DWIDTH 21 0
BBX 16 25 3 0
BITMAP
7FFF
7FFF
7FFF
7000
7000
7000
7000
7000
7000
7FE0
7FF8
7FFC
603E
000E
0007
0007
0007
0007
0007
000F
801E
F03E
FFFC
FFF8
1FC0
ENDCHAR
STARTCHAR 0036
ENCODING 54
SWIDTH 630 0
DWIDTH 21 0
BBX 17 25 2 0
BITMAP
00FE00
03FE00
0FFE00
1F0200
3C0000
380000
700000
700000
700000
E3F000
FFFC00
FFFE00
F81F00
E00700
E00380
E00380
E00380
E00380
700380
700780
780700
3C1F00
1FFE00
0FFC00
03F000
ENDCHAR
STARTCHAR 0037
ENCODING 55
SWIDTH 630 0
DWIDTH 21 0
BBX 16 24 2 0
BITMAP
FFFF
FFFF
FFFF
0007
0007
000E
001E
001C
003C
0038
0078
0070
00F0
00E0
01C0
01C0
0380
0380
0700
0F00
0E00
1E00
1C00
3C00
ENDCHAR
STARTCHAR 0038
ENCODING 56
SWIDTH 630 0
DWIDTH 21 0
BBX 17 25 2 0
BITMAP
07F000
1FFC00
3FFE00
3C1E00
780F00
700700
700700
700700
780600
3E0E00
1F9C00
07F800
1FFC00
383E00
700F00
E00780
E00380
E00380
E00380
F00380
F00700
7C1F00
3FFE00
1FFC00
07F000
ENDCHAR
STARTCHAR 0039
ENCODING 57
SWIDTH 630 0
DWIDTH 21 0
BBX 17 25 2 0
BITMAP
07E000
1FF800
3FFC00
7C1E00
700F00
F00700
E00700
E00380
E00380
E00380
E00380
F00380
7C0F80
3FFF80
1FFF80
07E380
000700
000700
000700
000E00
001E00
207C00
3FF800
3FE000
3F8000
ENDCHAR
STARTCHAR 003A
ENCODING 58
SWIDTH 450 0
DWIDTH 15 0
BBX 4 18 6 0
BITMAP
F0
F0
F0
F0
F0
00
00
00
00
00
00
00
00
F0
F0
F0
F0
F0
ENDCHAR
STARTCHAR 003B
ENCODING 59
SWIDTH 450 0
DWIDTH 15 0
BBX 7 24 4 -6
BITMAP
3C
3C
3C
3C
3C
00
00
00
00
00
00
00
00
1E
3C
3C
3C
38
78
70
70
60
E0
E0
ENDCHAR
STARTCHAR 003C
ENCODING 60
SWIDTH 810 0
DWIDTH 27 0
BBX 19 19 4 1
BITMAP
000020
0000E0
0007E0
001FE0
007F00
01FC00
0FF000
3F8000
FE0000
F80000
FE0000
3F8000
0FF000
01FC00
007F00
001FE0
0007E0
0000E0
000020
ENDCHAR
STARTCHAR 003D
ENCODING 61
SWIDTH 810 0
DWIDTH 27 0
BBX 19 10 4 5
BITMAP
FFFFE0
FFFFE0
FFFFE0
000000
000000
000000
000000
FFFFE0
FFFFE0
FFFFE0
ENDCHAR
STARTCHAR 003E
ENCODING 62
SWIDTH 810 0
DWIDTH 27 0
BBX 19 19 4 1
BITMAP
800000
E00000
FC0000
FF0000
1FC000
07F000
01FE00
003F80
000FE0
0003E0
000FE0
003F80
01FE00
07F000
1FC000
FF0000
FC0000
E00000
800000
ENDCHAR
STARTCHAR 003F
ENCODING 63
SWIDTH 540 0
DWIDTH 18 0
BBX 14 25 3 0
BITMAP
1FC0
FFF0
FFF8
E078
803C
001C
001C
001C
001C
0038
0078
00F0
03E0
0F80
0E00
0E00
0E00
0E00
0E00
0000
0000
0000
0E00
0E00
0E00
ENDCHAR
STARTCHAR 0040
ENCODING 64
SWIDTH 990 0
DWIDTH 33 0
BBX 27 28 3 -3
BITMAP
003FC000
01FFF000
03C03C00
0F000E00
1C000700
18000380
303F7180
707FF0C0
60E0F0C0
61C070C0
C1C07060
C3807060
C3807060
C3807060
C3807060
C3807060
C3807060
C3C07060
61E1F0C0
61FFF0C0
70FF7F80
303E7F80
18000000
1C000000
0F000000
03C03000
01FFF000
003FE000
ENDCHAR
STARTCHAR 0041
ENCODING 65
SWIDTH 690 0
DWIDTH 23 0
BBX 23 24 0 0
BITMAP
007C00
007C00
00EE00
00EE00
01EE00
01C700
01C700
038380
038380
038380
0701C0
0701C0
0F01E0
0E00E0
0E00E0
1FFFF0
1FFFF0
3FFFF0
380038
380038
78003C
70001C
70001C
E0000E
ENDCHAR
STARTCHAR 0042
ENCODING 66
SWIDTH 690 0
DWIDTH 23 0
BBX 19 24 3 0
BITMAP
FFF800
FFFE00
FFFF00
E00F80
E00380
E00380
E00380
E00380
E00700
E00E00
FFFC00
FFFF00
FFFF80
E007C0
E001E0
E000E0
E000E0
E000E0
E000E0
E001E0
E007C0
FFFF80
FFFF00
FFF800
ENDCHAR
STARTCHAR 0043
ENCODING 67
SWIDTH 690 0
DWIDTH 23 0
BBX 20 25 2 0
BITMAP
00FF00
03FFE0
0FFFF0
1F01F0
3C0070
380010
780000
700000
F00000
E00000
E00000
E00000
E00000
E00000
E00000
E00000
F00000
700000
780000
780010
3C0030
1F01F0
0FFFF0
07FFC0
00FF00
ENDCHAR
STARTCHAR 0044
ENCODING 68
SWIDTH 750 0
DWIDTH 25 0
BBX 20 24 3 0
BITMAP
FFE000
FFFC00
FFFF00
E01F80
E007C0
E001C0
E001E0
E000E0
E000F0
E00070
E00070
E00070
E00070
E00070
E00070
E000F0
E000E0
E001E0
E001C0
E007C0
E01F80
FFFF00
FFFC00
FFE000
ENDCHAR
STARTCHAR 0045
ENCODING 69
SWIDTH 630 0
DWIDTH 21 0
BBX 16 24 3 0
BITMAP
FFFF
FFFF
FFFF
E000
E000
E000
E000
E000
E000
FFFF
FFFF
FFFF
E000
E000
E000
E000
E000
E000
E000
E000
E000
FFFF
FFFF
FFFF
ENDCHAR
STARTCHAR 0046
ENCODING 70
SWIDTH 570 0
DWIDTH 19 0
BBX 16 24 3 0
BITMAP
FFFF
FFFF
FFFF
E000
E000
E000
E000
E000
E000
E000
FFFC
FFFC
FFFC
E000
E000
E000
E000
E000
E000
E000
E000
E000
E000
E000
ENDCHAR
STARTCHAR 0047
ENCODING 71
SWIDTH 780 0
DWIDTH 26 0
BBX 22 25 2 0
BITMAP
007F80
03FFF0
0FFFFC
1F80FC
3E001C
3C0004
780000
700000
F00000
E00000
E00000
E00000
E00FFC
E00FFC
E00FFC
E0001C
F0001C
70001C
78001C
3C001C
3E001C
1F807C
0FFFFC
03FFF0
007F80
ENDCHAR
STARTCHAR 0048
ENCODING 72
SWIDTH 750 0
DWIDTH 25 0
BBX 19 24 3 0
BITMAP
E000E0
E000E0
E000E0
E000E0
E000E0
E000E0
E000E0
E000E0
E000E0
FFFFE0
FFFFE0
FFFFE0
E000E0
E000E0
E000E0
E000E0
E000E0
E000E0
E000E0
E000E0
E000E0
E000E0
E000E0
E000E0
ENDCHAR
STARTCHAR 0049
ENCODING 73
SWIDTH 390 0
DWIDTH 13 0
BBX 9 24 2 0
BITMAP
FF80
FF80
FF80
1C00
1C00
1C00
1C00
1C00
1C00
1C00
1C00
1C00
1C00
1C00
1C00
1C00
1C00
1C00
1C00
1C00
1C00
FF80
FF80
FF80
ENDCHAR
STARTCHAR 004A
ENCODING 74
SWIDTH 450 0
DWIDTH 15 0
BBX 11 24 1 0
BITMAP
1FE0
1FE0
1FE0
00E0
00E0
00E0
00E0
00E0
00E0
00E0
00E0
00E0
00E0
00E0
00E0
00E0
00E0
00E0
00E0
01E0
83C0
FFC0
FF80
FE00
ENDCHAR
STARTCHAR 004B
ENCODING 75
SWIDTH 690 0
DWIDTH 23 0
BBX 20 24 3 0
BITMAP
E000E0
E001C0
E00780
E00F00
E01E00
E03C00
E07800
E0F000
E1E000
E3C000
E78000
EF0000
FF8000
FBC000
F1E000
E0F000
E07800
E03C00
E01E00
E00F00
E00780
E003C0
E001E0
E000F0
ENDCHAR
STARTCHAR 004C
ENCODING 76
SWIDTH 540 0
DWIDTH 18 0
BBX 15 24 3 0
BITMAP
E000
E000
E000
E000
E000
E000
E000
E000
E000
E000
E000
E000
E000
E000
E000
E000
E000
E000
E000
E000
E000
FFFE
FFFE
FFFE
ENDCHAR
STARTCHAR 004D
ENCODING 77
SWIDTH 840 0
DWIDTH 28 0
BBX 22 24 3 0
BITMAP
F8007C
F8007C
FC00FC
FC00FC
EE01DC
EE01DC
E7039C
E7039C
E3871C
E3871C
E1CE1C
E1CE1C
E0FC1C
E0FC1C
E0781C
E0781C
E0301C
E0001C
E0001C
E0001C
E0001C
E0001C
E0001C
E0001C
ENDCHAR
STARTCHAR 004E
ENCODING 78
SWIDTH 750 0
DWIDTH 25 0
BBX 19 24 3 0
BITMAP
F800E0
FC00E0
FC00E0
EE00E0
EF00E0
E700E0
E780E0
E380E0
E3C0E0
E1C0E0
E1E0E0
E0E0E0
E070E0
E078E0
E038E0
E03CE0
E01CE0
E01EE0
E00EE0
E00FE0
E007E0
E003E0
E003E0
E001E0
ENDCHAR
STARTCHAR 004F
ENCODING 79
SWIDTH 780 0
DWIDTH 26 0
BBX 22 25 2 0
BITMAP
01FE00
07FF80
0FFFC0
1F03E0
3C00F0
780070
700038
700038
F0003C
E0001C
E0001C
E0001C
E0001C
E0001C
E0001C
E0001C
F0003C
700038
700038
780078
3C00F0
1F03E0
0FFFC0
07FF80
01FE00
ENDCHAR
STARTCHAR 0050
ENCODING 80
SWIDTH 600 0
DWIDTH 20 0
BBX 16 24 3 0
BITMAP
FFE0
FFF8
FFFC
E03E
E00F
E007
E007
E007
E007
E00F
E00E
E03E
FFFC
FFF8
FFC0
E000
E000
E000
E000
E000
E000
E000
E000
E000
ENDCHAR
STARTCHAR 0051
ENCODING 81
SWIDTH 780 0
DWIDTH 26 0
BBX 22 31 2 -6
BITMAP
01FE00
07FF80
0FFFC0
1F03E0
3C00F0
780070
700038
700038
F0003C
E0001C
E0001C
E0001C
E0001C
E0001C
E0001C
E0001C
F0003C
700038
700038
780070
3C00F0
1F03E0
0FFFC0
07FF00
01FE00
000E00
000F00
000704
0007FC
0003FC
0000FC
ENDCHAR
STARTCHAR 0052
ENCODING 82
SWIDTH 690 0
DWIDTH 23 0
BBX 20 24 3 0
BITMAP
FFE000
FFFC00
FFFE00
E01E00
E00F00
E00700
E00700
E00700
E00700
E00E00
E03E00
FFFC00
FFF000
FFE000
E0F000
E07800
E03C00
E01E00
E00E00
E00F00
E00780
E003C0
E001E0
E000F0
ENDCHAR
STARTCHAR 0053
ENCODING 83
SWIDTH 690 0
DWIDTH 23 0
BBX 19 25 2 0
BITMAP
03FC00
1FFFC0
3FFFC0
7C07C0
F00040
E00000
E00000
E00000
E00000
F80000
7F0000
3FF800
0FFF00
01FF80
000FC0
0001E0
0000E0
0000E0
0000E0
8000E0
E001C0
FC07C0
FFFF80
7FFE00
0FF800
ENDCHAR
STARTCHAR 0054
ENCODING 84
SWIDTH 600 0
DWIDTH 20 0
BBX 21 24 0 0
BITMAP
FFFFF8
FFFFF8
FFFFF8
007000
007000
007000
007000
007000
007000
007000
007000
007000
007000
007000
007000
007000
007000
007000
007000
007000
007000
007000
007000
007000
ENDCHAR
STARTCHAR 0055
ENCODING 85
SWIDTH 720 0
DWIDTH 24 0
BBX 18 24 3 0
BITMAP
E001C0
E001C0
E001C0
E001C0
E001C0
E001C0
E001C0
E001C0
E001C0
E001C0
E001C0
E001C0
E001C0
E001C0
E001C0
E001C0
E001C0
E001C0
700380
780780
7C0F80
3FFF00
1FFE00
07F800
ENDCHAR
STARTCHAR 0056
ENCODING 86
SWIDTH 690 0
DWIDTH 23 0
BBX 23 24 0 0
BITMAP
E0000E
70001C
70001C
78003C
380038
380038
1C0078
1C0070
1C0070
0E00E0
0E00E0
0F01E0
0701C0
0701C0
038380
038380
038380
01C700
01C700
00EF00
00EE00
00EE00
007C00
007C00
ENDCHAR
STARTCHAR 0057
ENCODING 87
SWIDTH 990 0
DWIDTH 33 0
BBX 31 24 1 0
BITMAP
E003800E
F007C01E
7007C01C
7007C01C
7006C01C
380EE03C
380EE038
380EE038
380C6038
1C1C7070
1C1C7070
1C1C7070
1E183870
0E3838E0
0E3838E0
0E3838E0
07301DE0
07701DC0
07701DC0
07F00DC0
03E00F80
03E00F80
03E00F80
03C00780
ENDCHAR
STARTCHAR 0058
ENCODING 88
SWIDTH 690 0
DWIDTH 23 0
BBX 21 24 1 0
BITMAP
F00078
7800F0
3800E0
1C01E0
1E03C0
0F0780
070700
078F00
03DE00
01DC00
00F800
00F800
00F800
00FC00
01DC00
03DE00
078F00
070700
0E0380
1E03C0
3C01E0
3800E0
7800F0
F00078
ENDCHAR
STARTCHAR 0059
ENCODING 89
SWIDTH 600 0
DWIDTH 20 0
BBX 21 24 0 0
BITMAP
F00078
7800F0
3800E0
3C01E0
1C03C0
0E0380
0F0780
070700
038E00
03DE00
01DC00
01F800
00F800
007000
007000
007000
007000
007000
007000
007000
007000
007000
007000
007000
ENDCHAR
STARTCHAR 005A
ENCODING 90
SWIDTH 690 0
DWIDTH 23 0
BBX 19 24 2 0
BITMAP
7FFFE0
7FFFE0
7FFFE0
0001E0
0003C0
000780
000F00
001E00
003C00
003C00
007800
00F000
01E000
03C000
078000
070000
0F0000
1E0000
3C0000
780000
F00000
FFFFE0
FFFFE0
FFFFE0
ENDCHAR
STARTCHAR 005B
ENCODING 91
SWIDTH 450 0
DWIDTH 15 0
BBX 8 31 4 -6
BITMAP
FF
FF
E0
E0
E0
E0
E0
E0
E0
E0
E0
E0
E0
E0
E0
E0
E0
E0
E0
E0
E0
E0
E0
E0
E0
E0
E0
E0
E0
FF
FF
ENDCHAR
STARTCHAR 005C
ENCODING 92
SWIDTH 450 0
DWIDTH 15 0
BBX 14 30 1 -5
BITMAP
E000
7000
7000
7800
3800
3800
3C00
1C00
1C00
1E00
0E00
0E00
0F00
0700
0700
0380
0380
03C0
01C0
01C0
01E0
00E0
00E0
00F0
0070
0070
0038
0038
0038
001C
ENDCHAR
STARTCHAR 005D
ENCODING 93
SWIDTH 450 0
DWIDTH 15 0
BBX 8 31 3 -6
BITMAP
FF
FF
07
07
07
07
07
07
07
07
07
07
07
07
07
07
07
07
07
07
07
07
07
07
07
07
07
07
07
FF
FF
ENDCHAR
STARTCHAR 005E
ENCODING 94
SWIDTH 810 0
DWIDTH 27 0
BBX 21 13 3 11
BITMAP
007000
00F800
00F800
01DC00
038E00
078F00
070700
0E0380
1C01C0
1C01C0
3800E0
700070
F00078
ENDCHAR
STARTCHAR 005F
ENCODING 95
SWIDTH 630 0
DWIDTH 21 0
BBX 21 2 0 -5
BITMAP
FFFFF8
FFFFF8
ENDCHAR
STARTCHAR 0060
ENCODING 96
SWIDTH 630 0
DWIDTH 21 0
BBX 7 6 5 21
BITMAP
F0
78
38
1C
1C
0E
ENDCHAR
STARTCHAR 0061
ENCODING 97
SWIDTH 600 0
DWIDTH 20 0
BBX 15 19 2 0
BITMAP
1FE0
3FF8
3FFC
303E
001E
000E
000E
03FE
1FFE
3FFE
7E0E
F00E
E00E
E00E
E00E
F03E
7FFE
3FEE
1F8E
ENDCHAR
STARTCHAR 0062
ENCODING 98
SWIDTH 630 0
DWIDTH 21 0
BBX 16 25 3 0
BITMAP
E000
E000
E000
E000
E000
E000
E3F0
EFF8
FFFC
FC1E
F00E
E00F
E007
E007
E007
E007
E007
E007
E007
E00E
E01E
F03C
FFFC
FFF8
E7E0
ENDCHAR
STARTCHAR 0063
ENCODING 99
SWIDTH 510 0
DWIDTH 17 0
BBX 14 19 2 0
BITMAP
07F0
1FFC
3FFC
3C1C
7804
7000
E000
E000
E000
E000
E000
E000
E000
7000
7804
7C1C
3FFC
1FFC
07E0
ENDCHAR
STARTCHAR 0064
ENCODING 100
SWIDTH 630 0
DWIDTH 21 0
BBX 16 25 2 0
BITMAP
0007
0007
0007
0007
0007
0007
03E7
0FFF
3FFF
3C0F
7807
7007
E007
E007
E007
E007
E007
E007
E007
F007
700F
783F
3FFF
1FF7
07C7
ENDCHAR
STARTCHAR 0065
ENCODING 101
SWIDTH 600 0
DWIDTH 20 0
BBX 16 19 2 0
BITMAP
03E0
0FF8
3FFC
3C1E
780E
7007
E007
E007
FFFF
FFFF
FFFF
E000
E000
7000
7001
3C07
3FFF
0FFF
03F8
ENDCHAR
STARTCHAR 0066
ENCODING 102
SWIDTH 360 0
DWIDTH 12 0
BBX 12 25 1 0
BITMAP
03F0
0FF0
1FF0
3C00
3800
3800
3800
FFE0
FFE0
FFE0
3800
3800
3800
3800
3800
3800
3800
3800
3800
3800
3800
3800
3800
3800
3800
ENDCHAR
STARTCHAR 0067
ENCODING 103
SWIDTH 630 0
DWIDTH 21 0
BBX 16 26 2 -7
BITMAP
07E0
0FFF
3FFF
3C0F
7807
7007
E007
E007
E007
E007
E007
E007
E007
F007
700F
783F
3FFF
1FF7
0FC7
0007
0007
000E
301E
3FFC
3FF8
1FE0
ENDCHAR
STARTCHAR 0068
ENCODING 104
SWIDTH 630 0
DWIDTH 21 0
BBX 15 25 3 0
BITMAP
E000
E000
E000
E000
E000
E000
E3F0
EFF8
FFFC
FC3C
F01E
E00E
E00E
E00E
E00E
E00E
E00E
E00E
E00E
E00E
E00E
E00E
E00E
E00E
E00E
ENDCHAR
STARTCHAR 0069
ENCODING 105
SWIDTH 270 0
DWIDTH 9 0
BBX 3 24 3 0
BITMAP
E0
E0
E0
00
00
00
E0
E0
E0
E0
E0
E0
E0
E0
E0
E0
E0
E0
E0
E0
E0
E0
E0
E0
ENDCHAR
STARTCHAR 006A
ENCODING 106
SWIDTH 330 0
DWIDTH 11 0
BBX 9 31 -1 -7
BITMAP
0380
0380
0380
0000
0000
0000
3F80
3F80
3F80
0380
0380
0380
0380
0380
0380
0380
0380
0380
0380
0380
0380
0380
0380
0380
0380
0380
0380
8780
FF00
FE00
FC00
ENDCHAR
STARTCHAR 006B
ENCODING 107
SWIDTH 600 0
DWIDTH 20 0
BBX 17 25 3 0
BITMAP
E00000
E00000
E00000
E00000
E00000
E00000
E00000
E00E00
E01C00
E03800
E07000
E0E000
E1C000
E38000
E70000
EF0000
FF8000
FFC000
F3E000
E1F000
E0F000
E07800
E03C00
E01E00
E00F80
ENDCHAR
STARTCHAR 006C
ENCODING 108
SWIDTH 270 0
DWIDTH 9 0
BBX 3 25 3 0
BITMAP
E0
E0
E0
E0
E0
E0
E0
E0
E0
E0
E0
E0
E0
E0
E0
E0
E0
E0
E0
E0
E0
E0
E0
E0
E0
ENDCHAR
STARTCHAR 006D
ENCODING 109
SWIDTH 960 0
DWIDTH 32 0
BBX 27 19 3 0
BITMAP
01F03F00
E7F87F80
EFFDFFC0
FC1FC3C0
F01F01E0
E00E00E0
E00E00E0
E00E00E0
E00E00E0
E00E00E0
E00E00E0
E00E00E0
E00E00E0
E00E00E0
E00E00E0
E00E00E0
E00E00E0
E00E00E0
E00E00E0
ENDCHAR
STARTCHAR 006E
ENCODING 110
SWIDTH 630 0
DWIDTH 21 0
BBX 15 19 3 0
BITMAP
03F0
EFF8
FFFC
FC3C
F01E
E00E
E00E
E00E
E00E
E00E
E00E
E00E
E00E
E00E
E00E
E00E
E00E
E00E
E00E
ENDCHAR
STARTCHAR 006F
ENCODING 111
SWIDTH 600 0
DWIDTH 20 0
BBX 16 19 2 0
BITMAP
07E0
1FF8
3FFC
7C3C
700E
700E
E007
E007
E007
E007
E007
E007
E007
700E
700E
7C3E
3FFC
1FF8
07E0
ENDCHAR
STARTCHAR 0070
ENCODING 112
SWIDTH 630 0
DWIDTH 21 0
BBX 16 26 3 -7
BITMAP
03F0
EFF8
FFFC
FC1E
F00E
E00F
E007
E007
E007
E007
E007
E007
E007
E00E
E01E
F03C
FFFC
FFF0
E7E0
E000
E000
E000
E000
E000
E000
E000
ENDCHAR
STARTCHAR 0071
ENCODING 113
SWIDTH 630 0
DWIDTH 21 0
BBX 16 26 2 -7
BITMAP
07E0
0FFF
3FFF
3C0F
7807
7007
E007
E007
E007
E007
E007
E007
E007
F007
700F
783F
3FFF
1FF7
07C7
0007
0007
0007
0007
0007
0007
0007
ENDCHAR
STARTCHAR 0072
ENCODING 114
SWIDTH 420 0
DWIDTH 14 0
BBX 11 18 3 0
BITMAP
E3E0
E7E0
FFE0
FC00
F000
E000
E000
E000
E000
E000
E000
E000
E000
E000
E000
E000
E000
E000
ENDCHAR
STARTCHAR 0073
ENCODING 115
SWIDTH 510 0
DWIDTH 17 0
BBX 14 19 2 0
BITMAP
0FE0
3FF8
7FF8
F038
E008
E000
E000
F800
7FC0
3FF0
07F8
007C
001C
001C
801C
F03C
FFF8
FFF0
1FC0
ENDCHAR
STARTCHAR 0074
ENCODING 116
SWIDTH 390 0
DWIDTH 13 0
BBX 11 23 1 0
BITMAP
3800
3800
3800
3800
3800
FFE0
FFE0
FFE0
3800
3800
3800
3800
3800
3800
3800
3800
3800
3800
3800
3C20
1FE0
1FE0
07C0
ENDCHAR
STARTCHAR 0075
ENCODING 117
SWIDTH 630 0
DWIDTH 21 0
BBX 15 18 3 0
BITMAP
E00E
E00E
E00E
E00E
E00E
E00E
E00E
E00E
E00E
E00E
E00E
E00E
E00E
F01E
F87E
7FFE
3FEE
1F8E
ENDCHAR
STARTCHAR 0076
ENCODING 118
SWIDTH 600 0
DWIDTH 20 0
BBX 18 18 1 0
BITMAP
E001C0
700380
700380
780780
380700
380700
1C0E00
1C0E00
0E1C00
0E1C00
0F1C00
073800
073800
03F000
03F000
03F000
01E000
01E000
ENDCHAR
STARTCHAR 0077
ENCODING 119
SWIDTH 810 0
DWIDTH 27 0
BBX 25 18 1 0
BITMAP
E01C0380
F01C0380
703E0700
703E0700
70360700
78770700
38770E00
38630E00
38E38E00
1CE38C00
1CC19C00
1DC1DC00
1DC1DC00
0F80D800
0F80F800
0F80F800
0F007800
07007000
ENDCHAR
STARTCHAR 0078
ENCODING 120
SWIDTH 600 0
DWIDTH 20 0
BBX 18 18 1 0
BITMAP
F003C0
780780
3C0F00
1E0E00
0E1C00
0F3C00
07F800
03F000
01E000
01E000
03F000
07F800
0F3C00
0E1C00
1C1E00
3C0F00
780780
F003C0
ENDCHAR
STARTCHAR 0079
ENCODING 121
SWIDTH 600 0
DWIDTH 20 0
BBX 18 25 1 -7
BITMAP
E001C0
700380
700380
780780
380700
3C0F00
1C0E00
1C0E00
0E1C00
0E1C00
0F3C00
073800
07F800
03F000
03F000
01E000
01E000
01C000
01C000
03C000
038000
078000
070000
070000
0E0000
ENDCHAR
STARTCHAR 007A
ENCODING 122
SWIDTH 510 0
DWIDTH 17 0
BBX 14 18 2 0
BITMAP
FFFC
FFFC
FFFC
003C
0078
00F0
01E0
03C0
0380
0700
0F00
1E00
3C00
7800
F000
FFFC
FFFC
FFFC
ENDCHAR
STARTCHAR 007B
ENCODING 123
SWIDTH 630 0
DWIDTH 21 0
BBX 15 31 3 -6
BITMAP
003E
00FE
01E0
03C0
0380
0380
0380
0380
0380
0380
0380
0780
0700
1E00
FC00
F000
FC00
1E00
0700
0780
0380
0380
0380
0380
0380
0380
0380
03C0
01E0
00FE
003E
ENDCHAR
STARTCHAR 007C
ENCODING 124
SWIDTH 450 0
DWIDTH 15 0
BBX 3 31 6 -6
BITMAP
E0
E0
E0
E0
E0
E0
E0
E0
E0
E0
E0
E0
E0
E0
E0
E0
E0
E0
E0
E0
E0
E0
E0
E0
E0
E0
E0
E0
E0
E0
E0
ENDCHAR
STARTCHAR 007D
ENCODING 125
SWIDTH 630 0
DWIDTH 21 0
BBX 15 31 3 -6
BITMAP
F800
FE00
0F00
0780
0380
0380
0380
0380
0380
0380
0380
03C0
01C0
00F0
007E
001E
007E
00F0
01C0
03C0
0380
0380
0380
0380
0380
0380
0380
0780
0F00
FE00
F800
ENDCHAR
STARTCHAR 007E
ENCODING 126
SWIDTH 810 0
DWIDTH 27 0
BBX 21 9 3 6
BITMAP
0F0038
3FC038
3FE038
78E078
707070
E038F0
E03FE0
E01FE0
E00780
ENDCHAR
STARTCHAR 00A0
ENCODING 160
SWIDTH 360 0
DWIDTH 12 0
BBX 1 1 0 0
BITMAP
00
ENDCHAR
STARTCHAR 00A1
ENCODING 161
SWIDTH 390 0
DWIDTH 13 0
BBX 3 24 5 0
BITMAP
E0
E0
E0
00
00
00
00
E0
E0
E0
E0
E0
E0
E0
E0
E0
E0
E0
E0
E0
E0
E0
E0
E0
ENDCHAR
STARTCHAR 00A2
ENCODING 162
SWIDTH 630 0
DWIDTH 21 0
BBX 16 30 2 -6
BITMAP
00C0
00C0
00C0
00C0
00C0
00C0
03FC
0FFF
3FFF
3CC7
78C1
70C0
E0C0
E0C0
E0C0
E0C0
E0C0
E0C0
70C0
78C1
7CC7
3FFF
0FFF
03F8
00C0
00C0
00C0
00C0
00C0
00C0
ENDCHAR
STARTCHAR 00A3
ENCODING 163
SWIDTH 630 0
DWIDTH 21 0
BBX 17 25 2 0
BITMAP
007F00
01FF80
03FF80
078180
070000
0E0000
0E0000
0E0000
0E0000
0E0000
0E0000
0E0000
0E0000
7FFC00
7FFC00
7FFC00
0E0000
0E0000
0E0000
1C0000
380000
F00000
FFFF80
FFFF80
FFFF80
ENDCHAR
STARTCHAR 00A4
ENCODING 164
SWIDTH 630 0
DWIDTH 21 0
BBX 17 17 2 2
BITMAP
400100
E00380
700700
3BEE00
1FFC00
0E3800
1C1C00
180C00
180C00
180C00
1C1C00
0E3800
1FFC00
3BEE00
700700
E00380
400100
ENDCHAR
STARTCHAR 00A5
ENCODING 165
SWIDTH 630 0
DWIDTH 21 0
BBX 17 24 2 0
BITMAP
F00380
700700
780700
380E00
3C0E00
1C1C00
1C1C00
0E3800
0E3800
077000
077000
03E000
03C000
01C000
01C000
7FFF00
7FFF00
7FFF00
01C000
01C000
01C000
01C000
01C000
01C000
ENDCHAR
STARTCHAR 00A6
ENCODING 166
SWIDTH 450 0
DWIDTH 15 0
BBX 3 31 6 -6
BITMAP
E0
E0
E0
E0
E0
E0
E0
E0
E0
E0
E0
E0
E0
00
00
00
00
00
E0
E0
E0
E0
E0
E0
E0
E0
E0
E0
E0
E0
E0
ENDCHAR
STARTCHAR 00A7
ENCODING 167
SWIDTH 630 0
DWIDTH 21 0
BBX 15 31 3 -6
BITMAP
07F8
3FFC
7FFC
780C
E000
E000
E000
F000
7C00
7F80
1FF0
3BFC
707C
601E
E00E
E00E
E00E
F00C
7C1C
7FB8
1FF0
03FC
003C
001E
000E
000E
000E
603C
7FFC
7FF8
3FC0
ENDCHAR
STARTCHAR 00A8
ENCODING 168
SWIDTH 630 0
DWIDTH 21 0
BBX 10 3 6 21
BITMAP
E1C0
E1C0
E1C0
ENDCHAR
STARTCHAR 00A9
ENCODING 169
SWIDTH 990 0
DWIDTH 33 0
BBX 28 28 3 -3
BITMAP
003FC000
00FFF000
03E07C00
07000E00
0E000700
1C000380
380FC1C0
303FF0C0
60787060
60E01060
E0E00070
C1C00030
C1C00030
C1C00030
C1C00030
C1C00030
C1C00030
C0E00070
60E01060
60787060
303FF0C0
380FC1C0
1C000380
0E000700
07000E00
03C03C00
00FFF000
003FC000
ENDCHAR
STARTCHAR 00AA
ENCODING 170
SWIDTH 540 0
DWIDTH 18 0
BBX 13 17 2 8
BITMAP
3FC0
7FE0
7FF0
6078
0038
0038
07F8
3FF8
7C38
F038
E038
E038
E038
F0F8
7FF8
7FB8
1F38
ENDCHAR
STARTCHAR 00AB
ENCODING 171
SWIDTH 630 0
DWIDTH 21 0
BBX 16 16 3 3
BITMAP
0081
0183
0387
078F
1E3C
3C78
78F0
F1E0
F1E0
78F0
3C78
1E3C
078F
0387
0183
0081
ENDCHAR
STARTCHAR 00AC
ENCODING 172
SWIDTH 810 0
DWIDTH 27 0
BBX 20 12 3 0
BITMAP
FFFFF0
FFFFF0
FFFFF0
000070
000070
000070
000070
000070
000070
000070
000070
000070
ENDCHAR
STARTCHAR 00AD
ENCODING 173
SWIDTH 450 0
DWIDTH 15 0
BBX 10 3 2 9
BITMAP
FFC0
FFC0
FFC0
ENDCHAR
STARTCHAR 00AE
ENCODING 174
SWIDTH 990 0
DWIDTH 33 0
BBX 28 28 3 -3
BITMAP
003FC000
00FFF000
03E07C00
07000E00
0E000700
1C000380
387FC1C0
307FE0C0
6070F060
60707060
E0707070
C0707030
C070E030
C07FC030
C07F8030
C073C030
C071E030
C070F070
60707860
60703C60
30703EC0
380001C0
1C000380
0E000700
07000E00
03C03C00
00FFF000
003FC000
ENDCHAR
STARTCHAR 00AF
ENCODING 175
SWIDTH 630 0
DWIDTH 21 0
BBX 21 2 0 27
BITMAP
FFFFF8
FFFFF8
ENDCHAR
STARTCHAR 00B0
ENCODING 176
SWIDTH 540 0
DWIDTH 18 0
BBX 13 13 2 12
BITMAP
0F80
3FE0
7FF0
78F0
F078
E038
E038
E038
F078
78F0
7FF0
3FE0
0F80
ENDCHAR
STARTCHAR 00B1
ENCODING 177
SWIDTH 810 0
DWIDTH 27 0
BBX 21 21 3 3
BITMAP
007000
007000
007000
007000
007000
007000
007000
007000
007000
FFFFF8
FFFFF8
FFFFF8
007000
007000
007000
007000
007000
007000
FFFFF8
FFFFF8
FFFFF8
ENDCHAR
STARTCHAR 00B2
ENCODING 178
SWIDTH 540 0
DWIDTH 18 0
BBX 12 16 3 9
BITMAP
3F00
FFC0
E1C0
80E0
00E0
00E0
00E0
01C0
03C0
0780
0F00
1E00
3800
F000
FFF0
FFF0
ENDCHAR
STARTCHAR 00B3
ENCODING 179
SWIDTH 540 0
DWIDTH 18 0
BBX 12 16 3 9
BITMAP
3F80
FFE0
E0F0
8070
0070
0070
00E0
1F80
1FC0
00E0
0070
0070
8070
E0E0
FFE0
7F80
ENDCHAR
STARTCHAR 00B4
ENCODING 180
SWIDTH 630 0
DWIDTH 21 0
BBX 7 6 9 21
BITMAP
1E
3C
38
70
70
E0
ENDCHAR
STARTCHAR 00B5
ENCODING 181
SWIDTH 630 0
DWIDTH 21 0
BBX 15 25 3 -7
BITMAP
E00E
E00E
E00E
E00E
E00E
E00E
E00E
E00E
E00E
E00E
E00E
E00E
E00E
E01E
F83E
FFFE
EFEE
E7CE
E000
E000
E000
E000
E000
E000
E000
ENDCHAR
STARTCHAR 00B6
ENCODING 182
SWIDTH 630 0
DWIDTH 21 0
BBX 16 30 2 -6
BITMAP
07FF
1FFF
7FC3
7FC3
FFC3
FFC3
FFC3
FFC3
FFC3
FFC3
7FC3
3FC3
1FC3
07C3
00C3
00C3
00C3
00C3
00C3
00C3
00C3
00C3
00C3
00C3
00C3
00C3
00C3
00C3
00C3
00C3
ENDCHAR
STARTCHAR 00B7
ENCODING 183
SWIDTH 360 0
DWIDTH 12 0
BBX 4 5 4 8
BITMAP
F0
F0
F0
F0
F0
ENDCHAR
STARTCHAR 00B8
ENCODING 184
SWIDTH 630 0
DWIDTH 21 0
BBX 9 7 6 -7
BITMAP
0380
0380
0380
8780
FF00
FF00
FC00
ENDCHAR
STARTCHAR 00B9
ENCODING 185
SWIDTH 540 0
DWIDTH 18 0
BBX 11 15 5 9
BITMAP
0E00
1E00
FE00
FE00
0E00
0E00
0E00
0E00
0E00
0E00
0E00
0E00
0E00
FFE0
FFE0
ENDCHAR
STARTCHAR 00BA
ENCODING 186
SWIDTH 540 0
DWIDTH 18 0
BBX 14 17 2 8
BITMAP
0FC0
1FE0
3FF0
7878
7038
E01C
E01C
E01C
E01C
E01C
E01C
E01C
7038
7878
3FF0
1FE0
0FC0
ENDCHAR
STARTCHAR 00BB
ENCODING 187
SWIDTH 630 0
DWIDTH 21 0
BBX 16 16 3 3
BITMAP
8100
C180
E1C0
F1E0
3C78
1E3C
0F1E
078F
078F
0F1E
1E3C
3C78
F1E0
E1C0
C180
8100
ENDCHAR
STARTCHAR 00BC
ENCODING 188
SWIDTH 990 0
DWIDTH 33 0
BBX 28 24 3 0
BITMAP
1C00E000
1C00C000
FC01C000
FC018000
1C038000
1C030000
1C070000
1C060000
1C0E0380
1C1C0780
1C1C0F80
1C381F80
1C381B80
1C703380
1C707380
00E0E380
00E1C380
01C18380
0181FFF0
0381FFF0
03000380
07000380
06000380
0E000380
ENDCHAR
STARTCHAR 00BD
ENCODING 189
SWIDTH 990 0
DWIDTH 33 0
BBX 29 24 3 0
BITMAP
1C00E000
1C00C000
FC01C000
FC018000
1C038000
1C030000
1C070000
1C060000
1C0E1F80
1C1C3FE0
1C1C30E0
1C382070
1C380070
1C700070
1C700070
00E000E0
00E000E0
01C001C0
01800380
03800700
03000E00
07003C00
06003FF8
0E003FF8
ENDCHAR
STARTCHAR 00BE
ENCODING 190
SWIDTH 990 0
DWIDTH 33 0
BBX 28 25 3 0
BITMAP
3F000000
FFC03800
E1E03000
80E07000
00E06000
00E0E000
01C0C000
1F01C000
1F818000
01C38380
00E70780
00E70F80
80EE1F80
E1CE1B80
FFDC3380
7F1C7380
0038E380
0039C380
00718380
0061FFF0
00E1FFF0
00C00380
01C00380
01800380
03800380
ENDCHAR
STARTCHAR 00BF
ENCODING 191
SWIDTH 540 0
DWIDTH 18 0
BBX 14 24 2 0
BITMAP
01C0
01C0
01C0
0000
0000
0000
01C0
01C0
01C0
01C0
03C0
0F80
1E00
3C00
7000
F000
E000
E000
E000
F004
781C
7FFC
3FFC
0FF0
ENDCHAR
STARTCHAR 00C0
ENCODING 192
SWIDTH 690 0
DWIDTH 23 0
BBX 23 33 0 0
BITMAP
01E000
00F000
007000
003800
003800
001C00
000000
000000
000000
007C00
007C00
00EE00
00EE00
01EE00
01C700
01C700
038380
038380
038380
0701C0
0701C0
0F01E0
0E00E0
0E00E0
1FFFF0
1FFFF0
3FFFF0
380038
380038
78003C
70001C
70001C
E0000E
ENDCHAR
STARTCHAR 00C1
ENCODING 193
SWIDTH 690 0
DWIDTH 23 0
BBX 23 33 0 0
BITMAP
000F00
001E00
001C00
003800
003800
007000
000000
000000
000000
007C00
007C00
00EE00
00EE00
01EE00
01C700
01C700
038380
038380
038380
0701C0
0701C0
0F01E0
0E00E0
0E00E0
1FFFF0
1FFFF0
3FFFF0
380038
380038
78003C
70001C
70001C
E0000E
ENDCHAR
STARTCHAR 00C2
ENCODING 194
SWIDTH 690 0
DWIDTH 23 0
BBX 23 33 0 0
BITMAP
007C00
007C00
00EE00
00C600
01C700
038380
000000
000000
000000
007C00
007C00
00EE00
00EE00
01EE00
01C700
01C700
038380
038380
038380
0701C0
0701C0
0F01E0
0E00E0
0E00E0
1FFFF0
1FFFF0
3FFFF0
380038
380038
78003C
70001C
70001C
E0000E
ENDCHAR
STARTCHAR 00C3
ENCODING 195
SWIDTH 690 0
DWIDTH 23 0
BBX 23 32 0 0
BITMAP
01E0C0
03F0C0
073980
061F80
060F00
000000
000000
000000
007C00
007C00
00EE00
00EE00
01EE00
01C700
01C700
038380
038380
038380
0701C0
0701C0
0F01E0
0E00E0
0E00E0
1FFFF0
1FFFF0
3FFFF0
380038
380038
78003C
70001C
70001C
E0000E
ENDCHAR
STARTCHAR 00C4
ENCODING 196
SWIDTH 690 0
DWIDTH 23 0
BBX 23 30 0 0
BITMAP
01C380
01C380
01C380
000000
000000
000000
007C00
007C00
00EE00
00EE00
01EE00
01C700
01C700
038380
038380
038380
0701C0
0701C0
0F01E0
0E00E0
0E00E0
1FFFF0
1FFFF0
3FFFF0
380038
380038
78003C
70001C
70001C
E0000E
ENDCHAR
STARTCHAR 00C5
ENCODING 197
SWIDTH 690 0
DWIDTH 23 0
BBX 23 33 0 0
BITMAP
007C00
00FE00
01C700
038380
030180
030180
030180
038380
01C700
01FF00
007C00
007C00
00EE00
00EE00
01C700
01C700
01C700
038380
038380
0701C0
0701C0
0701C0
0E00E0
0E00E0
1FFFF0
1FFFF0
1FFFF0
380038
380038
78003C
70001C
70001C
E0000E
ENDCHAR
STARTCHAR 00C6
ENCODING 198
SWIDTH 960 0
DWIDTH 32 0
BBX 30 24 0 0
BITMAP
007FFFFC
007FFFFC
00FFFFFC
00E1C000
00E1C000
01C1C000
01C1C000
03C1C000
0381C000
0381FFFC
0701FFFC
0701FFFC
07FFC000
0FFFC000
0FFFC000
1C01C000
1C01C000
1C01C000
3801C000
3801C000
7801C000
7001FFFC
7001FFFC
E001FFFC
ENDCHAR
STARTCHAR 00C7
ENCODING 199
SWIDTH 690 0
DWIDTH 23 0
BBX 20 32 2 -7
BITMAP
00FF00
03FFE0
0FFFF0
1F01F0
3C0070
380010
780000
700000
F00000
E00000
E00000
E00000
E00000
E00000
E00000
E00000
F00000
700000
780000
780010
3C0030
1F01F0
0FFFF0
07FFE0
00FF00
000700
000700
000700
010F00
01FE00
01FC00
01F800
ENDCHAR
STARTCHAR 00C8
ENCODING 200
SWIDTH 630 0
DWIDTH 21 0
BBX 16 33 3 0
BITMAP
0F00
0780
0380
01C0
01C0
00E0
0000
0000
0000
FFFF
FFFF
FFFF
E000
E000
E000
E000
E000
E000
FFFF
FFFF
FFFF
E000
E000
E000
E000
E000
E000
E000
E000
E000
FFFF
FFFF
FFFF
ENDCHAR
STARTCHAR 00C9
ENCODING 201
SWIDTH 630 0
DWIDTH 21 0
BBX 16 33 3 0
BITMAP
0078
00F0
00E0
01C0
01C0
0380
0000
0000
0000
FFFF
FFFF
FFFF
E000
E000
E000
E000
E000
E000
FFFF
FFFF
FFFF
E000
E000
E000
E000
E000
E000
E000
E000
E000
FFFF
FFFF
FFFF
ENDCHAR
STARTCHAR 00CA
ENCODING 202
SWIDTH 630 0
DWIDTH 21 0
BBX 16 33 3 0
BITMAP
03E0
03E0
0770
0630
0E38
1C1C
0000
0000
0000
FFFF
FFFF
FFFF
E000
E000
E000
E000
E000
E000
FFFF
FFFF
FFFF
E000
E000
E000
E000
E000
E000
E000
E000
E000
FFFF
FFFF
FFFF
ENDCHAR
STARTCHAR 00CB
ENCODING 203
SWIDTH 630 0
DWIDTH 21 0
BBX 16 30 3 0
BITMAP
1C38
1C38
1C38
0000
0000
0000
FFFF
FFFF
FFFF
E000
E000
E000
E000
E000
E000
FFFF
FFFF
FFFF
E000
E000
E000
E000
E000
E000
E000
E000
E000
FFFF
FFFF
FFFF
ENDCHAR
STARTCHAR 00CC
ENCODING 204
SWIDTH 390 0
DWIDTH 13 0
BBX 9 33 2 0
BITMAP
F000
7800
3800
1C00
1C00
0E00
0000
0000
0000
FF80
FF80
FF80
1C00
1C00
1C00
1C00
1C00
1C00
1C00
1C00
1C00
1C00
1C00
1C00
1C00
1C00
1C00
1C00
1C00
1C00
FF80
FF80
FF80
ENDCHAR
STARTCHAR 00CD
ENCODING 205
SWIDTH 390 0
DWIDTH 13 0
BBX 9 33 2 0
BITMAP
0780
0F00
0E00
1C00
1C00
3800
0000
0000
0000
FF80
FF80
FF80
1C00
1C00
1C00
1C00
1C00
1C00
1C00
1C00
1C00
1C00
1C00
1C00
1C00
1C00
1C00
1C00
1C00
1C00
FF80
FF80
FF80
ENDCHAR
STARTCHAR 00CE
ENCODING 206
SWIDTH 390 0
DWIDTH 13 0
BBX 11 33 1 0
BITMAP
1F00
1F00
3B80
3180
71C0
E0E0
0000
0000
0000
7FC0
7FC0
7FC0
0E00
0E00
0E00
0E00
0E00
0E00
0E00
0E00
0E00
0E00
0E00
0E00
0E00
0E00
0E00
0E00
0E00
0E00
7FC0
7FC0
7FC0
ENDCHAR
STARTCHAR 00CF
ENCODING 207
SWIDTH 390 0
DWIDTH 13 0
BBX 10 30 2 0
BITMAP
E1C0
E1C0
E1C0
0000
0000
0000
FF80
FF80
FF80
1C00
1C00
1C00
1C00
1C00
1C00
1C00
1C00
1C00
1C00
1C00
1C00
1C00
1C00
1C00
1C00
1C00
1C00
FF80
FF80
FF80
ENDCHAR
STARTCHAR 00D0
ENCODING 208
SWIDTH 780 0
DWIDTH 26 0
BBX 24 24 0 0
BITMAP
1FFE00
1FFFC0
1FFFE0
1C03F8
1C007C
1C003C
1C001E
1C000E
1C000F
1C0007
FFF007
FFF007
FFF007
1C0007
1C0007
1C000F
1C000E
1C001E
1C003C
1C0078
1C03F8
1FFFE0
1FFFC0
1FFE00
ENDCHAR
STARTCHAR 00D1
ENCODING 209
SWIDTH 750 0
DWIDTH 25 0
BBX 19 32 3 0
BITMAP
078300
0FC300
1CE600
187E00
183C00
000000
000000
000000
F800E0
FC00E0
FC00E0
EE00E0
EF00E0
E700E0
E780E0
E380E0
E3C0E0
E1C0E0
E1E0E0
E0E0E0
E070E0
E078E0
E038E0
E03CE0
E01CE0
E01EE0
E00EE0
E00FE0
E007E0
E003E0
E003E0
E001E0
ENDCHAR
STARTCHAR 00D2
ENCODING 210
SWIDTH 780 0
DWIDTH 26 0
BBX 22 33 2 0
BITMAP
01E000
00F000
007000
003800
003800
001C00
000000
000000
01FE00
07FF80
0FFFC0
1F03E0
3C00F0
780070
700038
700038
F0003C
E0001C
E0001C
E0001C
E0001C
E0001C
E0001C
E0001C
F0003C
700038
700038
780078
3C00F0
1F03E0
0FFFC0
07FF80
01FE00
ENDCHAR
STARTCHAR 00D3
ENCODING 211
SWIDTH 780 0
DWIDTH 26 0
BBX 22 33 2 0
BITMAP
000F00
001E00
001C00
003800
003800
007000
000000
000000
01FE00
07FF80
0FFFC0
1F03E0
3C00F0
780070
700038
700038
F0003C
E0001C
E0001C
E0001C
E0001C
E0001C
E0001C
E0001C
F0003C
700038
700038
780078
3C00F0
1F03E0
0FFFC0
07FF80
01FE00
ENDCHAR
STARTCHAR 00D4
ENCODING 212
SWIDTH 780 0
DWIDTH 26 0
BBX 22 33 2 0
BITMAP
007C00
007C00
00EE00
00C600
01C700
038380
000000
000000
01FE00
07FF80
0FFFC0
1F03E0
3C00F0
780070
700038
700038
F0003C
E0001C
E0001C
E0001C
E0001C
E0001C
E0001C
E0001C
F0003C
700038
700038
780078
3C00F0
1F03E0
0FFFC0
07FF80
01FE00
ENDCHAR
STARTCHAR 00D5
ENCODING 213
SWIDTH 780 0
DWIDTH 26 0
BBX 22 32 2 0
BITMAP
01E0C0
03F0C0
073980
061F80
060F00
000000
000000
01FE00
07FF80
0FFFC0
1F03E0
3C00F0
780070
700038
700038
F0003C
E0001C
E0001C
E0001C
E0001C
E0001C
E0001C
E0001C
F0003C
700038
700038
780078
3C00F0
1F03E0
0FFFC0
07FF80
01FE00
ENDCHAR
STARTCHAR 00D6
ENCODING 214
SWIDTH 780 0
DWIDTH 26 0
BBX 22 30 2 0
BITMAP
038700
038700
038700
000000
000000
01FE00
07FF80
0FFFC0
1F03E0
3C00F0
780070
700038
700038
F0003C
E0001C
E0001C
E0001C
E0001C
E0001C
E0001C
E0001C
F0003C
700038
700038
780078
3C00F0
1F03E0
0FFFC0
07FF80
01FE00
ENDCHAR
STARTCHAR 00D7
ENCODING 215
SWIDTH 810 0
DWIDTH 27 0
BBX 17 17 5 2
BITMAP
400100
E00380
700700
380E00
1C1C00
0E3800
077000
03E000
01C000
03E000
077000
0E3800
1C1C00
380E00
700700
E00380
400100
ENDCHAR
STARTCHAR 00D8
ENCODING 216
SWIDTH 780 0
DWIDTH 26 0
BBX 22 28 2 -2
BITMAP
000018
01FE30
07FFF0
0FFFE0
1F03E0
3C00F0
7801F0
700338
700338
F0061C
E00C1C
E01C1C
E0181C
E0301C
E0601C
E0E01C
E0C01C
E1803C
730038
730038
7E0078
3C00F0
1F03E0
1FFFC0
37FF80
31FE00
600000
C00000
ENDCHAR
STARTCHAR 00D9
ENCODING 217
SWIDTH 720 0
DWIDTH 24 0
BBX 18 33 3 0
BITMAP
078000
03C000
01C000
00E000
00E000
007000
000000
000000
000000
E001C0
E001C0
E001C0
E001C0
E001C0
E001C0
E001C0
E001C0
E001C0
E001C0
E001C0
E001C0
E001C0
E001C0
E001C0
E001C0
E001C0
E001C0
700380
780780
7C0F80
3FFF00
1FFE00
07F800
ENDCHAR
STARTCHAR 00DA
ENCODING 218
SWIDTH 720 0
DWIDTH 24 0
BBX 18 33 3 0
BITMAP
001E00
003C00
003800
007000
007000
00E000
000000
000000
000000
E001C0
E001C0
E001C0
E001C0
E001C0
E001C0
E001C0
E001C0
E001C0
E001C0
E001C0
E001C0
E001C0
E001C0
E001C0
E001C0
E001C0
E001C0
700380
780780
7C0F80
3FFF00
1FFE00
07F800
ENDCHAR
STARTCHAR 00DB
ENCODING 219
SWIDTH 720 0
DWIDTH 24 0
BBX 18 33 3 0
BITMAP
01F000
01F000
03B800
031800
071C00
0E0E00
000000
000000
000000
E001C0
E001C0
E001C0
E001C0
E001C0
E001C0
E001C0
E001C0
E001C0
E001C0
E001C0
E001C0
E001C0
E001C0
E001C0
E001C0
E001C0
E001C0
700380
780780
7C0F80
3FFF00
1FFE00
07F800
ENDCHAR
STARTCHAR 00DC
ENCODING 220
SWIDTH 720 0
DWIDTH 24 0
BBX 18 30 3 0
BITMAP
0E1C00
0E1C00
0E1C00
000000
000000
000000
E001C0
E001C0
E001C0
E001C0
E001C0
E001C0
E001C0
E001C0
E001C0
E001C0
E001C0
E001C0
E001C0
E001C0
E001C0
E001C0
E001C0
E001C0
700380
780780
7C0F80
3FFF00
1FFE00
07F800
ENDCHAR
STARTCHAR 00DD
ENCODING 221
SWIDTH 600 0
DWIDTH 20 0
BBX 21 33 0 0
BITMAP
000780
000F00
000E00
001C00
001C00
003800
000000
000000
000000
F00078
7800F0
3800E0
3C01E0
1C03C0
0E0380
0F0780
070700
038E00
03DE00
01DC00
01F800
00F800
007000
007000
007000
007000
007000
007000
007000
007000
007000
007000
007000
ENDCHAR
STARTCHAR 00DE
ENCODING 222
SWIDTH 600 0
DWIDTH 20 0
BBX 16 24 3 0
BITMAP
E000
E000
E000
E000
FFE0
FFF8
FFFC
E03E
E00F
E007
E007
E007
E007
E00F
E00E
E03E
FFFC
FFF8
FFC0
E000
E000
E000
E000
E000
ENDCHAR
STARTCHAR 00DF
ENCODING 223
SWIDTH 600 0
DWIDTH 20 0
BBX 15 25 3 0
BITMAP
0FC0
1FF0
3FF8
783C
F01C
E01C
E01C
E038
E078
E3E0
E3C0
E3F0
E078
E01C
E01E
E00E
E00E
E00E
E00E
E00E
E01C
E43C
E7F8
E7F0
E7E0
ENDCHAR
STARTCHAR 00E0
ENCODING 224
SWIDTH 600 0
DWIDTH 20 0
BBX 15 27 2 0
BITMAP
0F00
0780
0380
01C0
01C0
00E0
0000
0000
1FE0
3FF8
3FFC
303E
001E
000E
000E
03FE
1FFE
3FFE
7E0E
F00E
E00E
E00E
E00E
F03E
7FFE
3FEE
1F8E
ENDCHAR
STARTCHAR 00E1
ENCODING 225
SWIDTH 600 0
DWIDTH 20 0
BBX 15 27 2 0
BITMAP
003C
0078
0070
00E0
00E0
01C0
0000
0000
1FE0
3FF8
3FFC
303E
001E
000E
000E
03FE
1FFE
3FFE
7E0E
F00E
E00E
E00E
E00E
F03E
7FFE
3FEE
1F8E
ENDCHAR
STARTCHAR 00E2
ENCODING 226
SWIDTH 600 0
DWIDTH 20 0
BBX 15 27 2 0
BITMAP
03E0
03E0
0770
0630
0E38
1C1C
0000
0000
1FE0
3FF8
3FFC
303E
001E
000E
000E
03FE
1FFE
3FFE
7E0E
F00E
E00E
E00E
E00E
F03E
7FFE
3FEE
1F8E
ENDCHAR
STARTCHAR 00E3
ENCODING 227
SWIDTH 600 0
DWIDTH 20 0
BBX 15 26 2 0
BITMAP
0F06
1F86
39CC
30FC
3078
0000
0000
1FE0
3FF8
3FFC
303E
001E
000E
000E
03FE
1FFE
3FFE
7E0E
F00E
E00E
E00E
E00E
F03E
7FFE
3FEE
1F8E
ENDCHAR
STARTCHAR 00E4
ENCODING 228
SWIDTH 600 0
DWIDTH 20 0
BBX 15 24 2 0
BITMAP
0E1C
0E1C
0E1C
0000
0000
1FE0
3FF8
3FFC
303E
001E
000E
000E
03FE
1FFE
3FFE
7E0E
F00E
E00E
E00E
E00E
F03E
7FFE
3FEE
1F8E
ENDCHAR
STARTCHAR 00E5
ENCODING 229
SWIDTH 600 0
DWIDTH 20 0
BBX 15 32 2 0
BITMAP
03E0
07F0
0E38
1C1C
180C
180C
180C
1C1C
0E38
07F0
03E0
0000
0000
1FE0
3FF8
3FFC
303E
001E
000E
000E
03FE
1FFE
3FFE
7E0E
F00E
E00E
E00E
E00E
F03E
7FFE
3FEE
1F8E
ENDCHAR
STARTCHAR 00E6
ENCODING 230
SWIDTH 960 0
DWIDTH 32 0
BBX 28 19 2 0
BITMAP
0FE03E00
3FF8FF80
3FFDFFC0
301FC1E0
000F00E0
000F0070
000E0070
03FFFFF0
1FFFFFF0
7FFFFFF0
7C0E0000
F00E0000
E00E0000
E0070000
E00F8010
F03FC070
7FFBFFF0
3FE0FFF0
1F803F80
ENDCHAR
STARTCHAR 00E7
ENCODING 231
SWIDTH 510 0
DWIDTH 17 0
BBX 14 26 2 -7
BITMAP
07F0
1FFC
3FFC
3C1C
7804
7000
E000
E000
E000
E000
E000
E000
E000
7000
7804
7C1C
3FFC
1FFC
07F0
0070
0070
0070
08F0
0FE0
0FE0
0F80
ENDCHAR
STARTCHAR 00E8
ENCODING 232
SWIDTH 600 0
DWIDTH 20 0
BBX 16 27 2 0
BITMAP
3C00
1E00
0E00
0700
0700
0380
0000
0000
03E0
0FF8
3FFC
3C1E
780E
7007
E007
E007
FFFF
FFFF
FFFF
E000
E000
7000
7001
3C07
3FFF
0FFF
03F8
ENDCHAR
STARTCHAR 00E9
ENCODING 233
SWIDTH 600 0
DWIDTH 20 0
BBX 16 27 2 0
BITMAP
003C
0078
0070
00E0
00E0
01C0
0000
0000
03E0
0FF8
3FFC
3C1E
780E
7007
E007
E007
FFFF
FFFF
FFFF
E000
E000
7000
7001
3C07
3FFF
0FFF
03F8
ENDCHAR
STARTCHAR 00EA
ENCODING 234
SWIDTH 600 0
DWIDTH 20 0
BBX 16 27 2 0
BITMAP
03E0
03E0
0770
0630
0E38
1C1C
0000
0000
03E0
0FF8
3FFC
3C1E
780E
7007
E007
E007
FFFF
FFFF
FFFF
E000
E000
7000
7001
3C07
3FFF
0FFF
03F8
ENDCHAR
STARTCHAR 00EB
ENCODING 235
SWIDTH 600 0
DWIDTH 20 0
BBX 16 24 2 0
BITMAP
1C38
1C38
1C38
0000
0000
03E0
0FF8
3FFC
3C1E
780E
7007
E007
E007
FFFF
FFFF
FFFF
E000
E000
7000
7001
3C07
3FFF
0FFF
03F8
ENDCHAR
STARTCHAR 00EC
ENCODING 236
SWIDTH 270 0
DWIDTH 9 0
BBX 7 27 0 0
BITMAP
F0
78
38
1C
1C
0E
00
00
00
1C
1C
1C
1C
1C
1C
1C
1C
1C
1C
1C
1C
1C
1C
1C
1C
1C
1C
ENDCHAR
STARTCHAR 00ED
ENCODING 237
SWIDTH 270 0
DWIDTH 9 0
BBX 7 27 2 0
BITMAP
1E
3C
38
70
70
E0
00
00
00
70
70
70
70
70
70
70
70
70
70
70
70
70
70
70
70
70
70
ENDCHAR
STARTCHAR 00EE
ENCODING 238
SWIDTH 270 0
DWIDTH 9 0
BBX 9 27 0 0
BITMAP
3C00
3E00
3600
7700
6300
E380
0000
0000
0000
1C00
1C00
1C00
1C00
1C00
1C00
1C00
1C00
1C00
1C00
1C00
1C00
1C00
1C00
1C00
1C00
1C00
1C00
ENDCHAR
STARTCHAR 00EF
ENCODING 239
SWIDTH 270 0
DWIDTH 9 0
BBX 9 24 0 0
BITMAP
E380
E380
E380
0000
0000
0000
1C00
1C00
1C00
1C00
1C00
1C00
1C00
1C00
1C00
1C00
1C00
1C00
1C00
1C00
1C00
1C00
1C00
1C00
ENDCHAR
STARTCHAR 00F0
ENCODING 240
SWIDTH 600 0
DWIDTH 20 0
BBX 16 25 2 0
BITMAP
3E08
0FBC
03F0
01E0
07F0
1E38
081C
001C
000E
07CE
1FF6
3FFF
7C1F
7007
E007
E007
E007
E007
E007
E00E
701E
783C
3FFC
1FF8
07E0
ENDCHAR
STARTCHAR 00F1
ENCODING 241
SWIDTH 630 0
DWIDTH 21 0
BBX 15 26 3 0
BITMAP
1E0C
3F0C
7398
61F8
60F0
0000
0000
03F0
EFF8
FFFC
FC3C
F01E
E00E
E00E
E00E
E00E
E00E
E00E
E00E
E00E
E00E
E00E
E00E
E00E
E00E
E00E
ENDCHAR
STARTCHAR 00F2
ENCODING 242
SWIDTH 600 0
DWIDTH 20 0
BBX 16 27 2 0
BITMAP
0F00
0780
0380
01C0
01C0
00E0
0000
0000
07E0
1FF8
3FFC
7C3C
700E
700E
E007
E007
E007
E007
E007
E007
E007
700E
700E
7C3E
3FFC
1FF8
07E0
ENDCHAR
STARTCHAR 00F3
ENCODING 243
SWIDTH 600 0
DWIDTH 20 0
BBX 16 27 2 0
BITMAP
0078
00F0
00E0
01C0
01C0
0380
0000
0000
07E0
1FF8
3FFC
7C3C
700E
700E
E007
E007
E007
E007
E007
E007
E007
700E
700E
7C3E
3FFC
1FF8
07E0
ENDCHAR
STARTCHAR 00F4
ENCODING 244
SWIDTH 600 0
DWIDTH 20 0
BBX 16 27 2 0
BITMAP
03E0
03E0
0770
0630
0E38
1C1C
0000
0000
07E0
1FF8
3FFC
7C3C
700E
700E
E007
E007
E007
E007
E007
E007
E007
700E
700E
7C3E
3FFC
1FF8
07E0
ENDCHAR
STARTCHAR 00F5
ENCODING 245
SWIDTH 600 0
DWIDTH 20 0
BBX 16 26 2 0
BITMAP
0F06
1F86
39CC
30FC
3078
0000
0000
07E0
1FF8
3FFC
7C3C
700E
700E
E007
E007
E007
E007
E007
E007
E007
700E
700E
7C3E
3FFC
1FF8
07E0
ENDCHAR
STARTCHAR 00F6
ENCODING 246
SWIDTH 600 0
DWIDTH 20 0
BBX 16 24 2 0
BITMAP
1C38
1C38
1C38
0000
0000
07E0
1FF8
3FFC
7C3C
700E
700E
E007
E007
E007
E007
E007
E007
E007
700E
700E
7C3E
3FFC
1FF8
07E0
ENDCHAR
STARTCHAR 00F7
ENCODING 247
SWIDTH 810 0
DWIDTH 27 0
BBX 22 21 3 0
BITMAP
007800
007800
007800
007800
007800
000000
000000
000000
000000
FFFFFC
FFFFFC
FFFFFC
000000
000000
000000
000000
007800
007800
007800
007800
007800
ENDCHAR
STARTCHAR 00F8
ENCODING 248
SWIDTH 600 0
DWIDTH 20 0
BBX 16 23 2 -2
BITMAP
0003
0002
07E6
1FFC
3FFC
7C3C
703E
703E
E067
E0C7
E0C7
E187
E307
E207
E607
7C0E
780E
7C3E
3FFC
3FF8
67E0
4000
C000
ENDCHAR
STARTCHAR 00F9
ENCODING 249
SWIDTH 630 0
DWIDTH 21 0
BBX 15 27 3 0
BITMAP
1E00
0F00
0700
0380
0380
01C0
0000
0000
0000
E00E
E00E
E00E
E00E
E00E
E00E
E00E
E00E
E00E
E00E
E00E
E00E
E00E
F01E
F87E
7FFE
3FEE
1F8E
ENDCHAR
STARTCHAR 00FA
ENCODING 250
SWIDTH 630 0
DWIDTH 21 0
BBX 15 27 3 0
BITMAP
0078
00F0
00E0
01C0
01C0
0380
0000
0000
0000
E00E
E00E
E00E
E00E
E00E
E00E
E00E
E00E
E00E
E00E
E00E
E00E
E00E
F01E
F87E
7FFE
3FEE
1F8E
ENDCHAR
STARTCHAR 00FB
ENCODING 251
SWIDTH 630 0
DWIDTH 21 0
BBX 15 27 3 0
BITMAP
07C0
07C0
0EE0
0C60
1C70
3838
0000
0000
0000
E00E
E00E
E00E
E00E
E00E
E00E
E00E
E00E
E00E
E00E
E00E
E00E
E00E
F01E
F87E
7FFE
3FEE
1F8E
ENDCHAR
STARTCHAR 00FC
ENCODING 252
SWIDTH 630 0
DWIDTH 21 0
BBX 15 24 3 0
BITMAP
1C38
1C38
1C38
0000
0000
0000
E00E
E00E
E00E
E00E
E00E
E00E
E00E
E00E
E00E
E00E
E00E
E00E
E00E
F01E
F87E
7FFE
3FEE
1F8E
ENDCHAR
STARTCHAR 00FD
ENCODING 253
SWIDTH 600 0
DWIDTH 20 0
BBX 18 34 1 -7
BITMAP
001E00
003C00
003800
007000
007000
00E000
000000
000000
000000
E001C0
700380
700380
780780
380700
3C0F00
1C0E00
1C0E00
0E1C00
0E1C00
0F3C00
073800
07F800
03F000
03F000
01E000
01E000
01C000
01C000
03C000
038000
078000
070000
070000
0E0000
ENDCHAR
STARTCHAR 00FE
ENCODING 254
SWIDTH 630 0
DWIDTH 21 0
BBX 16 32 3 -7
BITMAP
E000
E000
E000
E000
E000
E000
E3F0
EFF8
FFFC
FC1E
F00E
E00F
E007
E007
E007
E007
E007
E007
E007
E00E
E01E
F03C
FFFC
FFF0
E7E0
E000
E000
E000
E000
E000
E000
E000
ENDCHAR
STARTCHAR 00FF
ENCODING 255
SWIDTH 600 0
DWIDTH 20 0
BBX 18 31 1 -7
BITMAP
0E1C00
0E1C00
0E1C00
000000
000000
000000
E001C0
700380
700380
780780
380700
3C0F00
1C0E00
1C0E00
0E1C00
0E1C00
0F3C00
073800
07F800
03F000
03F000
01E000
01E000
01C000
01C000
03C000
038000
078000
070000
070000
0E0000
ENDCHAR
STARTCHAR 0100
ENCODING 256
SWIDTH 690 0
DWIDTH 23 0
BBX 23 31 0 0
BITMAP
03FFC0
03FFC0
03FFC0
000000
000000
000000
000000
007C00
007C00
00EE00
00EE00
01EE00
01C700
01C700
038380
038380
038380
0701C0
0701C0
0F01E0
0E00E0
0E00E0
1FFFF0
1FFFF0
3FFFF0
380038
380038
78003C
70001C
70001C
E0000E
ENDCHAR
STARTCHAR 0101
ENCODING 257
SWIDTH 600 0
DWIDTH 20 0
BBX 15 25 2 0
BITMAP
1FFE
1FFE
1FFE
0000
0000
0000
1FE0
3FF8
3FFC
303E
001E
000E
000E
03FE
1FFE
3FFE
7E0E
F00E
E00E
E00E
E00E
F03E
7FFE
3FEE
1F8E
ENDCHAR
STARTCHAR 0102
ENCODING 258
SWIDTH 690 0
DWIDTH 23 0
BBX 23 33 0 0
BITMAP
0381C0
0381C0
01C380
01C380
00FF00
007E00
000000
000000
000000
007C00
007C00
00EE00
00EE00
01EE00
01C700
01C700
038380
038380
038380
0701C0
0701C0
0F01E0
0E00E0
0E00E0
1FFFF0
1FFFF0
3FFFF0
380038
380038
78003C
70001C
70001C
E0000E
ENDCHAR
STARTCHAR 0103
ENCODING 259
SWIDTH 600 0
DWIDTH 20 0
BBX 15 27 2 0
BITMAP
381C
381C
1C38
1C38
0FF0
07E0
0000
0000
1FE0
3FF8
3FFC
303E
001E
000E
000E
03FE
1FFE
3FFE
7E0E
F00E
E00E
E00E
E00E
F03E
7FFE
3FEE
1F8E
ENDCHAR
STARTCHAR 0104
ENCODING 260
SWIDTH 690 0
DWIDTH 23 0
BBX 26 31 0 -7
BITMAP
007C0000
007C0000
00EE0000
00EE0000
01EE0000
01C70000
01C70000
03838000
03838000
03838000
0701C000
0701C000
0F01E000
0E00E000
0E00E000
1FFFF000
1FFFF000
3FFFF000
38003800
38003800
78003C00
70001C00
70001C00
E0003E00
00003800
00003800
00003800
00003C40
00001FC0
00001FC0
000007C0
ENDCHAR
STARTCHAR 0105
ENCODING 261
SWIDTH 600 0
DWIDTH 20 0
BBX 20 26 2 -7
BITMAP
1FE000
3FF800
3FFC00
303E00
001E00
000E00
000E00
03FE00
1FFE00
3FFE00
7E0E00
F00E00
E00E00
E00E00
E00E00
F03E00
7FFE00
3FEE00
1F8E00
000E00
000E00
000E00
000F10
0007F0
0007F0
0001F0
ENDCHAR
STARTCHAR 0106
ENCODING 262
SWIDTH 690 0
DWIDTH 23 0
BBX 20 33 2 0
BITMAP
000F00
001E00
001C00
003800
003800
007000
000000
000000
00FF00
03FFE0
0FFFF0
1F01F0
3C0070
380010
780000
700000
F00000
E00000
E00000
E00000
E00000
E00000
E00000
E00000
F00000
700000
780000
780010
3C0030
1F01F0
0FFFF0
07FFC0
00FF00
ENDCHAR
STARTCHAR 0107
ENCODING 263
SWIDTH 510 0
DWIDTH 17 0
BBX 14 27 2 0
BITMAP
0078
00F0
00E0
01C0
01C0
0380
0000
0000
07F0
1FFC
3FFC
3C1C
7804
7000
E000
E000
E000
E000
E000
E000
E000
7000
7804
7C1C
3FFC
1FFC
07E0
ENDCHAR
STARTCHAR 0108
ENCODING 264
SWIDTH 690 0
DWIDTH 23 0
BBX 20 33 2 0
BITMAP
007C00
007C00
00EE00
00C600
01C700
038380
000000
000000
00FF00
03FFE0
0FFFF0
1F01F0
3C0070
380010
780000
700000
F00000
E00000
E00000
E00000
E00000
E00000
E00000
E00000
F00000
700000
780000
780010
3C0030
1F01F0
0FFFF0
07FFC0
00FF00
ENDCHAR
STARTCHAR 0109
ENCODING 265
SWIDTH 510 0
DWIDTH 17 0
BBX 14 27 2 0
BITMAP
03E0
03E0
0770
0630
0E38
1C1C
0000
0000
07F0
1FFC
3FFC
3C1C
7804
7000
E000
E000
E000
E000
E000
E000
E000
7000
7804
7C1C
3FFC
1FFC
07E0
ENDCHAR
STARTCHAR 010A
ENCODING 266
SWIDTH 690 0
DWIDTH 23 0
BBX 20 30 2 0
BITMAP
003800
003800
003800
000000
000000
00FF00
03FFE0
0FFFF0
1F01F0
3C0070
380010
780000
700000
F00000
E00000
E00000
E00000
E00000
E00000
E00000
E00000
F00000
700000
780000
780010
3C0030
1F01F0
0FFFF0
07FFC0
00FF00
ENDCHAR
STARTCHAR 010B
ENCODING 267
SWIDTH 510 0
DWIDTH 17 0
BBX 14 24 2 0
BITMAP
01C0
01C0
01C0
0000
0000
07F0
1FFC
3FFC
3C1C
7804
7000
E000
E000
E000
E000
E000
E000
E000
7000
7804
7C1C
3FFC
1FFC
07E0
ENDCHAR
STARTCHAR 010C
ENCODING 268
SWIDTH 690 0
DWIDTH 23 0
BBX 20 33 2 0
BITMAP
038380
01C700
00C600
00EE00
007C00
007C00
000000
000000
00FF00
03FFE0
0FFFF0
1F01F0
3C0070
380010
780000
700000
F00000
E00000
E00000
E00000
E00000
E00000
E00000
E00000
F00000
700000
780000
780010
3C0030
1F01F0
0FFFF0
07FFC0
00FF00
ENDCHAR
STARTCHAR 010D
ENCODING 269
SWIDTH 510 0
DWIDTH 17 0
BBX 14 27 2 0
BITMAP
3838
1C70
0C60
0EE0
07C0
07C0
0000
0000
07F0
1FFC
3FFC
3C1C
7804
7000
E000
E000
E000
E000
E000
E000
E000
7000
7804
7C1C
3FFC
1FFC
07E0
ENDCHAR
STARTCHAR 010E
ENCODING 270
SWIDTH 750 0
DWIDTH 25 0
BBX 20 33 3 0
BITMAP
1C1C00
0E3800
063000
077000
03E000
03E000
000000
000000
000000
FFE000
FFFC00
FFFF00
E01F80
E007C0
E001C0
E001E0
E000E0
E000F0
E00070
E00070
E00070
E00070
E00070
E00070
E000F0
E000E0
E001E0
E001C0
E007C0
E01F80
FFFF00
FFFC00
FFE000
ENDCHAR
STARTCHAR 010F
ENCODING 271
SWIDTH 630 0
DWIDTH 21 0
BBX 24 25 2 0
BITMAP
00070F
00070E
00070E
00071C
00071C
000718
03E738
0FFF30
3FFF00
3C0F00
780700
700700
E00700
E00700
E00700
E00700
E00700
E00700
E00700
F00700
700F00
783F00
3FFF00
1FF700
07C700
ENDCHAR
STARTCHAR 0110
ENCODING 272
SWIDTH 780 0
DWIDTH 26 0
BBX 24 24 0 0
BITMAP
1FFE00
1FFFC0
1FFFE0
1C03F8
1C007C
1C003C
1C001E
1C000E
1C000F
1C0007
FFF007
FFF007
FFF007
1C0007
1C0007
1C000F
1C000E
1C001E
1C003C
1C0078
1C03F8
1FFFE0
1FFFC0
1FFE00
ENDCHAR
STARTCHAR 0111
ENCODING 273
SWIDTH 630 0
DWIDTH 21 0
BBX 19 25 2 0
BITMAP
000700
000700
01FFE0
01FFE0
000700
000700
03E700
0FFF00
3FFF00
3C0F00
780700
700700
E00700
E00700
E00700
E00700
E00700
E00700
E00700
F00700
700F00
783F00
3FFF00
1FF700
07C700
ENDCHAR
STARTCHAR 0112
ENCODING 274
SWIDTH 630 0
DWIDTH 21 0
BBX 16 31 3 0
BITMAP
3FFC
3FFC
3FFC
0000
0000
0000
0000
FFFF
FFFF
FFFF
E000
E000
E000
E000
E000
E000
FFFF
FFFF
FFFF
E000
E000
E000
E000
E000
E000
E000
E000
E000
FFFF
FFFF
FFFF
ENDCHAR
STARTCHAR 0113
ENCODING 275
SWIDTH 600 0
DWIDTH 20 0
BBX 16 25 2 0
BITMAP
3FFC
3FFC
3FFC
0000
0000
0000
03E0
0FF8
3FFC
3C1E
780E
7007
E007
E007
FFFF
FFFF
FFFF
E000
E000
7000
7001
3C07
3FFF
0FFF
03F8
ENDCHAR
STARTCHAR 0114
ENCODING 276
SWIDTH 630 0
DWIDTH 21 0
BBX 16 33 3 0
BITMAP
381C
381C
1C38
1C38
0FF0
07E0
0000
0000
0000
FFFF
FFFF
FFFF
E000
E000
E000
E000
E000
E000
FFFF
FFFF
FFFF
E000
E000
E000
E000
E000
E000
E000
E000
E000
FFFF
FFFF
FFFF
ENDCHAR
STARTCHAR 0115
ENCODING 277
SWIDTH 600 0
DWIDTH 20 0
BBX 16 27 2 0
BITMAP
1C0E
1C0E
0E1C
0E1C
07F8
03F0
0000
0000
03E0
0FF8
3FFC
3C1E
780E
7007
E007
E007
FFFF
FFFF
FFFF
E000
E000
7000
7001
3C07
3FFF
0FFF
03F8
ENDCHAR
STARTCHAR 0116
ENCODING 278
SWIDTH 630 0
DWIDTH 21 0
BBX 16 30 3 0
BITMAP
01C0
01C0
01C0
0000
0000
0000
FFFF
FFFF
FFFF
E000
E000
E000
E000
E000
E000
FFFF
FFFF
FFFF
E000
E000
E000
E000
E000
E000
E000
E000
E000
FFFF
FFFF
FFFF
ENDCHAR
STARTCHAR 0117
ENCODING 279
SWIDTH 600 0
DWIDTH 20 0
BBX 16 24 2 0
BITMAP
01C0
01C0
01C0
0000
0000
03E0
0FF8
3FFC
3C1E
780E
7007
E007
E007
FFFF
FFFF
FFFF
E000
E000
7000
7001
3C07
3FFF
0FFF
03F8
ENDCHAR
STARTCHAR 0118
ENCODING 280
SWIDTH 630 0
DWIDTH 21 0
BBX 17 31 3 -7
BITMAP
FFFF00
FFFF00
FFFF00
E00000
E00000
E00000
E00000
E00000
E00000
FFFF00
FFFF00
FFFF00
E00000
E00000
E00000
E00000
E00000
E00000
E00000
E00000
E00000
FFFF00
FFFF00
FFFF00
007000
007000
007000
007880
003F80
003F80
000F80
ENDCHAR
STARTCHAR 0119
ENCODING 281
SWIDTH 600 0
DWIDTH 20 0
BBX 16 26 2 -7
BITMAP
03E0
0FF8
3FFC
3C1E
780E
7007
E007
E007
FFFF
FFFF
FFFF
E000
E000
7000
7001
3C07
3FFF
0FFF
07F8
00E0
00E0
00E0
00F1
007F
007F
001F
ENDCHAR
STARTCHAR 011A
ENCODING 282
SWIDTH 630 0
DWIDTH 21 0
BBX 16 33 3 0
BITMAP
1C1C
0E38
0630
0770
03E0
03E0
0000
0000
0000
FFFF
FFFF
FFFF
E000
E000
E000
E000
E000
E000
FFFF
FFFF
FFFF
E000
E000
E000
E000
E000
E000
E000
E000
E000
FFFF
FFFF
FFFF
ENDCHAR
STARTCHAR 011B
ENCODING 283
SWIDTH 600 0
DWIDTH 20 0
BBX 16 27 2 0
BITMAP
1C1C
0E38
0630
0770
03E0
03E0
0000
0000
03E0
0FF8
3FFC
3C1E
780E
7007
E007
E007
FFFF
FFFF
FFFF
E000
E000
7000
7001
3C07
3FFF
0FFF
03F8
ENDCHAR
STARTCHAR 011C
ENCODING 284
SWIDTH 780 0
DWIDTH 26 0
BBX 22 33 2 0
BITMAP
003E00
003E00
007700
006300
00E380
01C1C0
000000
000000
007F80
03FFF0
0FFFFC
1F80FC
3E001C
3C0004
780000
700000
F00000
E00000
E00000
E00000
E00FFC
E00FFC
E00FFC
E0001C
F0001C
70001C
78001C
3C001C
3E001C
1F807C
0FFFFC
03FFF0
007F80
ENDCHAR
STARTCHAR 011D
ENCODING 285
SWIDTH 630 0
DWIDTH 21 0
BBX 16 34 2 -7
BITMAP
03E0
03E0
0770
0630
0E38
1C1C
0000
0000
07E0
0FFF
3FFF
3C0F
7807
7007
E007
E007
E007
E007
E007
E007
E007
F007
700F
783F
3FFF
1FF7
0FC7
0007
0007
000E
301E
3FFC
3FF8
1FE0
ENDCHAR
STARTCHAR 011E
ENCODING 286
SWIDTH 780 0
DWIDTH 26 0
BBX 22 33 2 0
BITMAP
070380
070380
038700
038700
01FE00
00FC00
000000
000000
007F80
03FFF0
0FFFFC
1F80FC
3E001C
3C0004
780000
700000
F00000
E00000
E00000
E00000
E00FFC
E00FFC
E00FFC
E0001C
F0001C
70001C
78001C
3C001C
3E001C
1F807C
0FFFFC
03FFF0
007F80
ENDCHAR
STARTCHAR 011F
ENCODING 287
SWIDTH 630 0
DWIDTH 21 0
BBX 16 34 2 -7
BITMAP
1C0E
1C0E
0E1C
0E1C
07F8
03F0
0000
0000
07E0
0FFF
3FFF
3C0F
7807
7007
E007
E007
E007
E007
E007
E007
E007
F007
700F
783F
3FFF
1FF7
0FC7
0007
0007
000E
301E
3FFC
3FF8
1FE0
ENDCHAR
STARTCHAR 0120
ENCODING 288
SWIDTH 780 0
DWIDTH 26 0
BBX 22 30 2 0
BITMAP
001C00
001C00
001C00
000000
000000
007F80
03FFF0
0FFFFC
1F80FC
3E001C
3C0004
780000
700000
F00000
E00000
E00000
E00000
E00FFC
E00FFC
E00FFC
E0001C
F0001C
70001C
78001C
3C001C
3E001C
1F807C
0FFFFC
03FFF0
007F80
ENDCHAR
STARTCHAR 0121
ENCODING 289
SWIDTH 630 0
DWIDTH 21 0
BBX 16 31 2 -7
BITMAP
01C0
01C0
01C0
0000
0000
07E0
0FFF
3FFF
3C0F
7807
7007
E007
E007
E007
E007
E007
E007
E007
F007
700F
783F
3FFF
1FF7
0FC7
0007
0007
000E
301E
3FFC
3FF8
1FE0
ENDCHAR
STARTCHAR 0122
ENCODING 290
SWIDTH 780 0
DWIDTH 26 0
BBX 22 32 2 -7
BITMAP
007F80
03FFF0
0FFFFC
1F80FC
3E001C
3C0004
780000
700000
F00000
E00000
E00000
E00000
E00FFC
E00FFC
E00FFC
E0001C
F0001C
70001C
78001C
3C001C
3E001C
1F807C
0FFFFC
03FFF0
007F80
000700
000700
000700
008F00
00FE00
00FE00
00F800
ENDCHAR
STARTCHAR 0123
ENCODING 291
SWIDTH 630 0
DWIDTH 21 0
BBX 16 34 2 -7
BITMAP
0038
0070
0070
00E0
01E0
03C0
0000
0000
07E0
0FFF
3FFF
3C0F
7807
7007
E007
E007
E007
E007
E007
E007
E007
F007
700F
783F
3FFF
1FF7
0FC7
0007
0007
000E
301E
3FFC
3FF8
1FE0
ENDCHAR
STARTCHAR 0124
ENCODING 292
SWIDTH 750 0
DWIDTH 25 0
BBX 19 33 3 0
BITMAP
01F000
01F000
03B800
031800
071C00
0E0E00
000000
000000
000000
E000E0
E000E0
E000E0
E000E0
E000E0
E000E0
E000E0
E000E0
E000E0
FFFFE0
FFFFE0
FFFFE0
E000E0
E000E0
E000E0
E000E0
E000E0
E000E0
E000E0
E000E0
E000E0
E000E0
E000E0
E000E0
ENDCHAR
STARTCHAR 0125
ENCODING 293
SWIDTH 630 0
DWIDTH 21 0
BBX 15 33 3 0
BITMAP
03E0
03E0
0770
0630
0E38
1C1C
0000
0000
E000
E000
E000
E000
E000
E000
E3F0
EFF8
FFFC
FC3C
F01E
E00E
E00E
E00E
E00E
E00E
E00E
E00E
E00E
E00E
E00E
E00E
E00E
E00E
E00E
ENDCHAR
STARTCHAR 0126
ENCODING 294
SWIDTH 750 0
DWIDTH 25 0
BBX 25 24 0 0
BITMAP
1C001C00
1C001C00
1C001C00
1C001C00
FFFFFF80
FFFFFF80
1C001C00
1C001C00
1C001C00
1FFFFC00
1FFFFC00
1FFFFC00
1C001C00
1C001C00
1C001C00
1C001C00
1C001C00
1C001C00
1C001C00
1C001C00
1C001C00
1C001C00
1C001C00
1C001C00
ENDCHAR
STARTCHAR 0127
ENCODING 295
SWIDTH 630 0
DWIDTH 21 0
BBX 18 25 0 0
BITMAP
1C0000
1C0000
FFE000
FFE000
1C0000
1C0000
1C7E00
1DFF00
1FFF80
1F8780
1E03C0
1C01C0
1C01C0
1C01C0
1C01C0
1C01C0
1C01C0
1C01C0
1C01C0
1C01C0
1C01C0
1C01C0
1C01C0
1C01C0
1C01C0
ENDCHAR
STARTCHAR 0128
ENCODING 296
SWIDTH 390 0
DWIDTH 13 0
BBX 13 32 0 0
BITMAP
3C18
7E18
E738
C3F0
C1E0
0000
0000
0000
3FE0
3FE0
3FE0
0700
0700
0700
0700
0700
0700
0700
0700
0700
0700
0700
0700
0700
0700
0700
0700
0700
0700
3FE0
3FE0
3FE0
ENDCHAR
STARTCHAR 0129
ENCODING 297
SWIDTH 270 0
DWIDTH 9 0
BBX 9 26 0 0
BITMAP
7180
F980
CF80
C700
0000
0000
0000
0000
1C00
1C00
1C00
1C00
1C00
1C00
1C00
1C00
1C00
1C00
1C00
1C00
1C00
1C00
1C00
1C00
1C00
1C00
ENDCHAR
STARTCHAR 012A
ENCODING 298
SWIDTH 390 0
DWIDTH 13 0
BBX 11 30 1 0
BITMAP
FFE0
FFE0
FFE0
0000
0000
0000
7FC0
7FC0
7FC0
0E00
0E00
0E00
0E00
0E00
0E00
0E00
0E00
0E00
0E00
0E00
0E00
0E00
0E00
0E00
0E00
0E00
0E00
7FC0
7FC0
7FC0
ENDCHAR
STARTCHAR 012B
ENCODING 299
SWIDTH 270 0
DWIDTH 9 0
BBX 9 25 0 0
BITMAP
FF80
FF80
FF80
0000
0000
0000
0000
1C00
1C00
1C00
1C00
1C00
1C00
1C00
1C00
1C00
1C00
1C00
1C00
1C00
1C00
1C00
1C00
1C00
1C00
ENDCHAR
STARTCHAR 012C
ENCODING 300
SWIDTH 390 0
DWIDTH 13 0
BBX 9 32 2 0
BITMAP
C180
C180
C180
6300
7F00
3E00
0000
0000
FF80
FF80
FF80
1C00
1C00
1C00
1C00
1C00
1C00
1C00
1C00
1C00
1C00
1C00
1C00
1C00
1C00
1C00
1C00
1C00
1C00
FF80
FF80
FF80
ENDCHAR
STARTCHAR 012D
ENCODING 301
SWIDTH 270 0
DWIDTH 9 0
BBX 9 27 0 0
BITMAP
C180
C180
C180
6300
7F00
3E00
0000
0000
0000
1C00
1C00
1C00
1C00
1C00
1C00
1C00
1C00
1C00
1C00
1C00
1C00
1C00
1C00
1C00
1C00
1C00
1C00
ENDCHAR
STARTCHAR 012E
ENCODING 302
SWIDTH 390 0
DWIDTH 13 0
BBX 10 31 2 -7
BITMAP
FF80
FF80
FF80
1C00
1C00
1C00
1C00
1C00
1C00
1C00
1C00
1C00
1C00
1C00
1C00
1C00
1C00
1C00
1C00
1C00
1C00
FF80
FF80
FF80
1C00
1C00
1C00
1E00
1FC0
0FC0
07C0
ENDCHAR
STARTCHAR 012F
ENCODING 303
SWIDTH 270 0
DWIDTH 9 0
BBX 7 31 2 -7
BITMAP
70
70
70
00
00
00
70
70
70
70
70
70
70
70
70
70
70
70
70
70
70
70
70
70
E0
E0
E0
F0
FE
7E
3E
ENDCHAR
STARTCHAR 0130
ENCODING 304
SWIDTH 390 0
DWIDTH 13 0
BBX 9 30 2 0
BITMAP
1C00
1C00
1C00
0000
0000
0000
FF80
FF80
FF80
1C00
1C00
1C00
1C00
1C00
1C00
1C00
1C00
1C00
1C00
1C00
1C00
1C00
1C00
1C00
1C00
1C00
1C00
FF80
FF80
FF80
ENDCHAR
STARTCHAR 0131
ENCODING 305
SWIDTH 270 0
DWIDTH 9 0
BBX 3 18 3 0
BITMAP
E0
E0
E0
E0
E0
E0
E0
E0
E0
E0
E0
E0
E0
E0
E0
E0
E0
E0
ENDCHAR
STARTCHAR 0132
ENCODING 306
SWIDTH 870 0
DWIDTH 29 0
BBX 24 24 2 0
BITMAP
FF80FF
FF80FF
FF80FF
1C0007
1C0007
1C0007
1C0007
1C0007
1C0007
1C0007
1C0007
1C0007
1C0007
1C0007
1C0007
1C0007
1C0007
1C0007
1C0007
1C000F
1C041E
FF87FE
FF87FC
FF87F0
ENDCHAR
STARTCHAR 0133
ENCODING 307
SWIDTH 600 0
DWIDTH 20 0
BBX 14 31 3 -7
BITMAP
E01C
E01C
E01C
0000
0000
0000
E1FC
E1FC
E1FC
E01C
E01C
E01C
E01C
E01C
E01C
E01C
E01C
E01C
E01C
E01C
E01C
E01C
E01C
E01C
001C
001C
001C
043C
07F8
07F0
07E0
ENDCHAR
STARTCHAR 0134
ENCODING 308
SWIDTH 450 0
DWIDTH 15 0
BBX 13 33 1 0
BITMAP
07C0
07C0
0EE0
0C60
1C70
3838
0000
0000
0000
1FE0
1FE0
1FE0
00E0
00E0
00E0
00E0
00E0
00E0
00E0
00E0
00E0
00E0
00E0
00E0
00E0
00E0
00E0
00E0
01E0
83C0
FFC0
FF80
FE00
ENDCHAR
STARTCHAR 0135
ENCODING 309
SWIDTH 330 0
DWIDTH 11 0
BBX 12 34 -1 -7
BITMAP
0F00
1F80
3FC0
39C0
70E0
E070
0000
0000
0000
3F80
3F80
3F80
0380
0380
0380
0380
0380
0380
0380
0380
0380
0380
0380
0380
0380
0380
0380
0380
0380
0380
8780
FF00
FE00
FC00
ENDCHAR
STARTCHAR 0136
ENCODING 310
SWIDTH 690 0
DWIDTH 23 0
BBX 20 31 3 -7
BITMAP
E000E0
E001C0
E00780
E00F00
E01E00
E03C00
E07800
E0F000
E1E000
E3C000
E78000
EF0000
FF8000
FBC000
F1E000
E0F000
E07800
E03C00
E01E00
E00F00
E00780
E003C0
E001E0
E000F0
007000
007000
007000
10F000
1FE000
1FE000
1F8000
ENDCHAR
STARTCHAR 0137
ENCODING 311
SWIDTH 600 0
DWIDTH 20 0
BBX 17 32 3 -7
BITMAP
E00000
E00000
E00000
E00000
E00000
E00000
E00000
E00E00
E01C00
E03800
E07000
E0E000
E1C000
E38000
E70000
EF0000
FF8000
FFC000
F3E000
E1F000
E0F000
E07800
E03C00
E01E00
E00F80
01C000
01C000
01C000
43C000
7F8000
7F8000
7E0000
ENDCHAR
STARTCHAR 0138
ENCODING 312
SWIDTH 600 0
DWIDTH 20 0
BBX 17 18 3 0
BITMAP
E00E00
E01C00
E03800
E07000
E0E000
E1C000
E38000
E70000
EF0000
FF8000
FFC000
F3E000
E1F000
E0F000
E07800
E03C00
E01E00
E00F80
ENDCHAR
STARTCHAR 0139
ENCODING 313
SWIDTH 540 0
DWIDTH 18 0
BBX 15 33 3 0
BITMAP
1E00
3C00
3800
7000
7000
E000
0000
0000
0000
E000
E000
E000
E000
E000
E000
E000
E000
E000
E000
E000
E000
E000
E000
E000
E000
E000
E000
E000
E000
E000
FFFE
FFFE
FFFE
ENDCHAR
STARTCHAR 013A
ENCODING 314
SWIDTH 270 0
DWIDTH 9 0
BBX 8 33 3 0
BITMAP
0F
1E
1C
38
38
70
00
00
E0
E0
E0
E0
E0
E0
E0
E0
E0
E0
E0
E0
E0
E0
E0
E0
E0
E0
E0
E0
E0
E0
E0
E0
E0
ENDCHAR
STARTCHAR 013B
ENCODING 315
SWIDTH 540 0
DWIDTH 18 0
BBX 15 31 3 -7
BITMAP
E000
E000
E000
E000
E000
E000
E000
E000
E000
E000
E000
E000
E000
E000
E000
E000
E000
E000
E000
E000
E000
FFFE
FFFE
FFFE
00E0
00E0
00E0
11E0
1FC0
1FC0
1F00
ENDCHAR
STARTCHAR 013C
ENCODING 316
SWIDTH 270 0
DWIDTH 9 0
BBX 8 32 0 -7
BITMAP
1C
1C
1C
1C
1C
1C
1C
1C
1C
1C
1C
1C
1C
1C
1C
1C
1C
1C
1C
1C
1C
1C
1C
1C
1C
07
07
07
8F
FE
FE
F8
ENDCHAR
STARTCHAR 013D
ENCODING 317
SWIDTH 540 0
DWIDTH 18 0
BBX 15 25 3 0
BITMAP
00F0
E0E0
E0E0
E1C0
E1C0
E180
E380
E300
E000
E000
E000
E000
E000
E000
E000
E000
E000
E000
E000
E000
E000
E000
FFFE
FFFE
FFFE
ENDCHAR
STARTCHAR 013E
ENCODING 318
SWIDTH 300 0
DWIDTH 10 0
BBX 11 25 3 0
BITMAP
E1E0
E1C0
E1C0
E380
E380
E300
E700
E600
E000
E000
E000
E000
E000
E000
E000
E000
E000
E000
E000
E000
E000
E000
E000
E000
E000
ENDCHAR
STARTCHAR 013F
ENCODING 319
SWIDTH 540 0
DWIDTH 18 0
BBX 15 24 3 0
BITMAP
E000
E000
E000
E000
E000
E000
E000
E000
E000
E000
E000
E078
E078
E078
E078
E078
E000
E000
E000
E000
E000
FFFE
FFFE
FFFE
ENDCHAR
STARTCHAR 0140
ENCODING 320
SWIDTH 450 0
DWIDTH 15 0
BBX 11 25 3 0
BITMAP
E000
E000
E000
E000
E000
E000
E000
E000
E000
E000
E000
E000
E1E0
E1E0
E1E0
E1E0
E1E0
E000
E000
E000
E000
E000
E000
E000
E000
ENDCHAR
STARTCHAR 0141
ENCODING 321
SWIDTH 570 0
DWIDTH 19 0
BBX 19 24 0 0
BITMAP
1C0000
1C0000
1C0000
1C0000
1C0000
1C0000
1C1000
1C3000
1C7000
1DE000
1FC000
1F0000
1E0000
3C0000
7C0000
FC0000
DC0000
9C0000
1C0000
1C0000
1C0000
1FFFE0
1FFFE0
1FFFE0
ENDCHAR
STARTCHAR 0142
ENCODING 322
SWIDTH 270 0
DWIDTH 9 0
BBX 9 25 0 0
BITMAP
1C00
1C00
1C00
1C00
1C00
1C00
1C00
1C00
1C80
1D80
1F80
1F00
1C00
7C00
FC00
DC00
9C00
1C00
1C00
1C00
1C00
1C00
1C00
1C00
1C00
ENDCHAR
STARTCHAR 0143
ENCODING 323
SWIDTH 750 0
DWIDTH 25 0
BBX 19 33 3 0
BITMAP
000F00
001E00
001C00
003800
003800
007000
000000
000000
000000
F800E0
FC00E0
FC00E0
EE00E0
EF00E0
E700E0
E780E0
E380E0
E3C0E0
E1C0E0
E1E0E0
E0E0E0
E070E0
E078E0
E038E0
E03CE0
E01CE0
E01EE0
E00EE0
E00FE0
E007E0
E003E0
E003E0
E001E0
ENDCHAR
STARTCHAR 0144
ENCODING 324
SWIDTH 630 0
DWIDTH 21 0
BBX 15 27 3 0
BITMAP
003C
0078
0070
00E0
00E0
01C0
0000
0000
03F0
EFF8
FFFC
FC3C
F01E
E00E
E00E
E00E
E00E
E00E
E00E
E00E
E00E
E00E
E00E
E00E
E00E
E00E
E00E
ENDCHAR
STARTCHAR 0145
ENCODING 325
SWIDTH 750 0
DWIDTH 25 0
BBX 19 31 3 -7
BITMAP
F800E0
FC00E0
FC00E0
EE00E0
EF00E0
E700E0
E780E0
E380E0
E3C0E0
E1C0E0
E1E0E0
E0E0E0
E070E0
E078E0
E038E0
E03CE0
E01CE0
E01EE0
E00EE0
E00FE0
E007E0
E003E0
E003E0
E001E0
007000
007000
007000
10F000
1FE000
1FE000
1F8000
ENDCHAR
STARTCHAR 0146
ENCODING 326
SWIDTH 630 0
DWIDTH 21 0
BBX 15 26 3 -7
BITMAP
03F0
EFF8
FFFC
FC3C
F01E
E00E
E00E
E00E
E00E
E00E
E00E
E00E
E00E
E00E
E00E
E00E
E00E
E00E
E00E
01C0
01C0
01C0
43C0
7F80
7F80
7E00
ENDCHAR
STARTCHAR 0147
ENCODING 327
SWIDTH 750 0
DWIDTH 25 0
BBX 19 33 3 0
BITMAP
0E0E00
071C00
031800
03B800
01F000
01F000
000000
000000
000000
F800E0
FC00E0
FC00E0
EE00E0
EF00E0
E700E0
E780E0
E380E0
E3C0E0
E1C0E0
E1E0E0
E0E0E0
E070E0
E078E0
E038E0
E03CE0
E01CE0
E01EE0
E00EE0
E00FE0
E007E0
E003E0
E003E0
E001E0
ENDCHAR
STARTCHAR 0148
ENCODING 328
SWIDTH 630 0
DWIDTH 21 0
BBX 15 27 3 0
BITMAP
7070
38E0
18C0
1DC0
0F80
0F80
0000
0000
03F0
EFF8
FFFC
FC3C
F01E
E00E
E00E
E00E
E00E
E00E
E00E
E00E
E00E
E00E
E00E
E00E
E00E
E00E
E00E
ENDCHAR
STARTCHAR 0149
ENCODING 329
SWIDTH 720 0
DWIDTH 24 0
BBX 21 25 0 0
BITMAP
1E0000
3C0000
3C0000
380000
780000
700000
700FC0
E3BFE0
E3FFF0
03F0F0
03C078
038038
038038
038038
038038
038038
038038
038038
038038
038038
038038
038038
038038
038038
038038
ENDCHAR
STARTCHAR 014A
ENCODING 330
SWIDTH 750 0
DWIDTH 25 0
BBX 19 31 3 -7
BITMAP
F800E0
FC00E0
FE00E0
EE00E0
EF00E0
E700E0
E780E0
E3C0E0
E1C0E0
E1E0E0
E0E0E0
E0F0E0
E078E0
E038E0
E03CE0
E01CE0
E01EE0
E00FE0
E007E0
E007E0
E003E0
E003E0
E001E0
E000E0
0000E0
0000E0
0000E0
0001C0
003FC0
003F80
003E00
ENDCHAR
STARTCHAR 014B
ENCODING 331
SWIDTH 630 0
DWIDTH 21 0
BBX 15 26 3 -7
BITMAP
03F0
EFF8
FFFC
FC3C
F01E
E00E
E00E
E00E
E00E
E00E
E00E
E00E
E00E
E00E
E00E
E00E
E00E
E00E
E00E
000E
000E
000E
001C
03FC
03F8
03E0
ENDCHAR
STARTCHAR 014C
ENCODING 332
SWIDTH 780 0
DWIDTH 26 0
BBX 22 31 2 0
BITMAP
07FF80
07FF80
07FF80
000000
000000
000000
01FE00
07FF80
0FFFC0
1F03E0
3C00F0
780070
700038
700038
F0003C
E0001C
E0001C
E0001C
E0001C
E0001C
E0001C
E0001C
F0003C
700038
700038
780078
3C00F0
1F03E0
0FFFC0
07FF80
01FE00
ENDCHAR
STARTCHAR 014D
ENCODING 333
SWIDTH 600 0
DWIDTH 20 0
BBX 16 25 2 0
BITMAP
3FFC
3FFC
3FFC
0000
0000
0000
07E0
1FF8
3FFC
7C3C
700E
700E
E007
E007
E007
E007
E007
E007
E007
700E
700E
7C3E
3FFC
1FF8
07E0
ENDCHAR
STARTCHAR 014E
ENCODING 334
SWIDTH 780 0
DWIDTH 26 0
BBX 22 33 2 0
BITMAP
070380
070380
038700
038700
01FE00
00FC00
000000
000000
01FE00
07FF80
0FFFC0
1F03E0
3C00F0
780070
700038
700038
F0003C
E0001C
E0001C
E0001C
E0001C
E0001C
E0001C
E0001C
F0003C
700038
700038
780078
3C00F0
1F03E0
0FFFC0
07FF80
01FE00
ENDCHAR
STARTCHAR 014F
ENCODING 335
SWIDTH 600 0
DWIDTH 20 0
BBX 16 27 2 0
BITMAP
381C
381C
1C38
1C38
0FF0
07E0
0000
0000
07E0
1FF8
3FFC
7C3C
700E
700E
E007
E007
E007
E007
E007
E007
E007
700E
700E
7C3E
3FFC
1FF8
07E0
ENDCHAR
STARTCHAR 0150
ENCODING 336
SWIDTH 780 0
DWIDTH 26 0
BBX 22 33 2 0
BITMAP
0078F0
0070E0
00E1C0
00E1C0
00C180
018300
000000
000000
01FE00
07FF80
0FFFC0
1F03E0
3C00F0
780070
700038
700038
F0003C
E0001C
E0001C
E0001C
E0001C
E0001C
E0001C
E0001C
F0003C
700038
700038
780078
3C00F0
1F03E0
0FFFC0
07FF80
01FE00
ENDCHAR
STARTCHAR 0151
ENCODING 337
SWIDTH 600 0
DWIDTH 20 0
BBX 17 27 2 0
BITMAP
03C780
038700
070E00
070E00
060C00
0C1800
000000
000000
07E000
1FF800
3FFC00
7C3C00
700E00
700E00
E00700
E00700
E00700
E00700
E00700
E00700
E00700
700E00
700E00
7C3E00
3FFC00
1FF800
07E000
ENDCHAR
STARTCHAR 0152
ENCODING 338
SWIDTH 1050 0
DWIDTH 35 0
BBX 31 24 2 0
BITMAP
007FFFFE
03FFFFFE
0FFFFFFE
1F80E000
3E00E000
3800E000
7800E000
7000E000
F000E000
E000FFFE
E000FFFE
E000FFFE
E000E000
E000E000
E000E000
E000E000
7000E000
7800E000
3800E000
3E00E000
1F80E000
0FFFFFFE
03FFFFFE
007FFFFE
ENDCHAR
STARTCHAR 0153
ENCODING 339
SWIDTH 960 0
DWIDTH 32 0
BBX 28 19 2 0
BITMAP
07E03F00
1FF87F80
3FFCFFC0
7C3DE1E0
700F80E0
700F8070
E0070070
E0070070
E007FFF0
E007FFF0
E007FFF0
E0070000
E0070000
700F8000
700F8010
7C3FE070
3FFDFFF0
1FF87FF0
07E01F80
ENDCHAR
STARTCHAR 0154
ENCODING 340
SWIDTH 690 0
DWIDTH 23 0
BBX 20 33 3 0
BITMAP
007800
00F000
00E000
01C000
01C000
038000
000000
000000
000000
FFE000
FFFC00
FFFE00
E01E00
E00F00
E00700
E00700
E00700
E00700
E00E00
E03E00
FFFC00
FFF000
FFE000
E0F000
E07800
E03C00
E01E00
E00E00
E00F00
E00780
E003C0
E001E0
E000F0
ENDCHAR
STARTCHAR 0155
ENCODING 341
SWIDTH 420 0
DWIDTH 14 0
BBX 11 27 3 0
BITMAP
0780
0F00
0E00
1C00
1C00
3800
0000
0000
0000
E3E0
E7E0
FFE0
FC00
F000
E000
E000
E000
E000
E000
E000
E000
E000
E000
E000
E000
E000
E000
ENDCHAR
STARTCHAR 0156
ENCODING 342
SWIDTH 690 0
DWIDTH 23 0
BBX 20 31 3 -7
BITMAP
FFE000
FFFC00
FFFE00
E01E00
E00F00
E00700
E00700
E00700
E00700
E00E00
E03E00
FFFC00
FFF000
FFE000
E0F000
E07800
E03C00
E01E00
E00E00
E00F00
E00780
E003C0
E001E0
E000F0
00E000
00E000
00E000
21E000
3FC000
3FC000
3F0000
ENDCHAR
STARTCHAR 0157
ENCODING 343
SWIDTH 420 0
DWIDTH 14 0
BBX 13 25 1 -7
BITMAP
38F8
39F8
3FF8
3F00
3C00
3800
3800
3800
3800
3800
3800
3800
3800
3800
3800
3800
3800
3800
0700
0700
0700
8F00
FE00
FE00
F800
ENDCHAR
STARTCHAR 0158
ENCODING 344
SWIDTH 690 0
DWIDTH 23 0
BBX 20 33 3 0
BITMAP
383800
1C7000
0C6000
0EE000
07C000
07C000
000000
000000
000000
FFE000
FFFC00
FFFE00
E01E00
E00F00
E00700
E00700
E00700
E00700
E00E00
E03E00
FFFC00
FFF000
FFE000
E0F000
E07800
E03C00
E01E00
E00E00
E00F00
E00780
E003C0
E001E0
E000F0
ENDCHAR
STARTCHAR 0159
ENCODING 345
SWIDTH 420 0
DWIDTH 14 0
BBX 12 27 2 0
BITMAP
E0E0
71C0
3180
3B80
1F00
1F00
0000
0000
0000
71F0
73F0
7FF0
7E00
7800
7000
7000
7000
7000
7000
7000
7000
7000
7000
7000
7000
7000
7000
ENDCHAR
STARTCHAR 015A
ENCODING 346
SWIDTH 690 0
DWIDTH 23 0
BBX 19 33 2 0
BITMAP
003C00
007800
007000
00E000
00E000
01C000
000000
000000
03FC00
1FFFC0
3FFFC0
7C07C0
F00040
E00000
E00000
E00000
E00000
F80000
7F0000
3FF800
0FFF00
01FF80
000FC0
0001E0
0000E0
0000E0
0000E0
8000E0
E001C0
FC07C0
FFFF80
7FFE00
0FF800
ENDCHAR
STARTCHAR 015B
ENCODING 347
SWIDTH 510 0
DWIDTH 17 0
BBX 14 27 2 0
BITMAP
00F0
01E0
01C0
0380
0380
0700
0000
0000
0FE0
3FF8
7FF8
F038
E008
E000
E000
F800
7FC0
3FF0
07F8
007C
001C
001C
801C
F03C
FFF8
FFF0
1FC0
ENDCHAR
STARTCHAR 015C
ENCODING 348
SWIDTH 690 0
DWIDTH 23 0
BBX 19 33 2 0
BITMAP
01F000
01F000
03B800
031800
071C00
0E0E00
000000
000000
03FC00
1FFFC0
3FFFC0
7C07C0
F00040
E00000
E00000
E00000
E00000
F80000
7F0000
3FF800
0FFF00
01FF80
000FC0
0001E0
0000E0
0000E0
0000E0
8000E0
E001C0
FC07C0
FFFF80
7FFE00
0FF800
ENDCHAR
STARTCHAR 015D
ENCODING 349
SWIDTH 510 0
DWIDTH 17 0
BBX 14 27 2 0
BITMAP
07C0
07C0
0EE0
0C60
1C70
3838
0000
0000
0FE0
3FF8
7FF8
F038
E008
E000
E000
F800
7FC0
3FF0
07F8
007C
001C
001C
801C
F03C
FFF8
FFF0
1FC0
ENDCHAR
STARTCHAR 015E
ENCODING 350
SWIDTH 690 0
DWIDTH 23 0
BBX 19 32 2 -7
BITMAP
03FC00
1FFFC0
3FFFC0
7C07C0
F00040
E00000
E00000
E00000
E00000
F80000
7F0000
3FF800
0FFF00
01FF80
000FC0
0001E0
0000E0
0000E0
0000E0
8000E0
E001C0
FC07C0
FFFF80
7FFE00
0FF800
003800
003800
003800
087800
0FF000
0FE000
0FC000
ENDCHAR
STARTCHAR 015F
ENCODING 351
SWIDTH 510 0
DWIDTH 17 0
BBX 14 26 2 -7
BITMAP
0FE0
3FF8
7FF8
F038
E008
E000
E000
F800
7FC0
3FF0
07F8
007C
001C
001C
801C
F038
FFF8
FFF0
1FC0
01C0
01C0
01C0
23C0
3F80
3F80
3E00
ENDCHAR
STARTCHAR 0160
ENCODING 352
SWIDTH 690 0
DWIDTH 23 0
BBX 19 33 2 0
BITMAP
0E0E00
071C00
031800
03B800
01F000
01F000
000000
000000
03FC00
1FFFC0
3FFFC0
7C07C0
F00040
E00000
E00000
E00000
E00000
F80000
7F0000
3FF800
0FFF00
01FF80
000FC0
0001E0
0000E0
0000E0
0000E0
8000E0
E001C0
FC07C0
FFFF80
7FFE00
0FF800
ENDCHAR
STARTCHAR 0161
ENCODING 353
SWIDTH 510 0
DWIDTH 17 0
BBX 14 27 2 0
BITMAP
3838
1C70
0C60
0EE0
07C0
07C0
0000
0000
0FE0
3FF8
7FF8
F038
E008
E000
E000
F800
7FC0
3FF0
07F8
007C
001C
001C
801C
F03C
FFF8
FFF0
1FC0
ENDCHAR
STARTCHAR 0162
ENCODING 354
SWIDTH 600 0
DWIDTH 20 0
BBX 21 31 0 -7
BITMAP
FFFFF8
FFFFF8
FFFFF8
007000
007000
007000
007000
007000
007000
007000
007000
007000
007000
007000
007000
007000
007000
007000
007000
007000
007000
007000
007000
007000
007000
007000
007000
08F000
0FE000
0FE000
0F8000
ENDCHAR
STARTCHAR 0163
ENCODING 355
SWIDTH 390 0
DWIDTH 13 0
BBX 11 30 1 -7
BITMAP
3800
3800
3800
3800
3800
FFE0
FFE0
FFE0
3800
3800
3800
3800
3800
3800
3800
3800
3800
3800
3800
3C20
1FE0
1FE0
07E0
01C0
01C0
01C0
23C0
3F80
3F80
3E00
ENDCHAR
STARTCHAR 0164
ENCODING 356
SWIDTH 600 0
DWIDTH 20 0
BBX 21 33 0 0
BITMAP
070700
038E00
018C00
01DC00
00F800
00F800
000000
000000
000000
FFFFF8
FFFFF8
FFFFF8
007000
007000
007000
007000
007000
007000
007000
007000
007000
007000
007000
007000
007000
007000
007000
007000
007000
007000
007000
007000
007000
ENDCHAR
STARTCHAR 0165
ENCODING 357
SWIDTH 390 0
DWIDTH 13 0
BBX 13 29 1 0
BITMAP
0078
0070
0070
00E0
00E0
00C0
39C0
3980
3800
3800
3800
FFE0
FFE0
FFE0
3800
3800
3800
3800
3800
3800
3800
3800
3800
3800
3800
3C20
1FE0
1FE0
07C0
ENDCHAR
STARTCHAR 0166
ENCODING 358
SWIDTH 600 0
DWIDTH 20 0
BBX 21 24 0 0
BITMAP
FFFFF8
FFFFF8
FFFFF8
007000
007000
007000
007000
007000
007000
007000
0FFF80
0FFF80
0FFF80
007000
007000
007000
007000
007000
007000
007000
007000
007000
007000
007000
ENDCHAR
STARTCHAR 0167
ENCODING 359
SWIDTH 390 0
DWIDTH 13 0
BBX 11 23 1 0
BITMAP
3800
3800
3800
3800
3800
FFE0
FFE0
FFE0
3800
3800
3800
3800
FFC0
FFC0
3800
3800
3800
3800
3800
3C20
1FE0
1FE0
07C0
ENDCHAR
STARTCHAR 0168
ENCODING 360
SWIDTH 720 0
DWIDTH 24 0
BBX 18 32 3 0
BITMAP
078300
0FC300
1CE600
187E00
183C00
000000
000000
000000
E001C0
E001C0
E001C0
E001C0
E001C0
E001C0
E001C0
E001C0
E001C0
E001C0
E001C0
E001C0
E001C0
E001C0
E001C0
E001C0
E001C0
E001C0
700380
780780
7C0F80
3FFF00
1FFE00
07F800
ENDCHAR
STARTCHAR 0169
ENCODING 361
SWIDTH 630 0
DWIDTH 21 0
BBX 15 26 3 0
BITMAP
1E0C
3F0C
7398
61F8
60F0
0000
0000
0000
E00E
E00E
E00E
E00E
E00E
E00E
E00E
E00E
E00E
E00E
E00E
E00E
E00E
F01E
F87E
7FFE
3FEE
1F8E
ENDCHAR
STARTCHAR 016A
ENCODING 362
SWIDTH 720 0
DWIDTH 24 0
BBX 18 31 3 0
BITMAP
1FFE00
1FFE00
1FFE00
000000
000000
000000
000000
E001C0
E001C0
E001C0
E001C0
E001C0
E001C0
E001C0
E001C0
E001C0
E001C0
E001C0
E001C0
E001C0
E001C0
E001C0
E001C0
E001C0
E001C0
700380
780780
7C0F80
3FFF00
1FFE00
07F800
ENDCHAR
STARTCHAR 016B
ENCODING 363
SWIDTH 630 0
DWIDTH 21 0
BBX 15 25 3 0
BITMAP
3FFC
3FFC
3FFC
0000
0000
0000
0000
E00E
E00E
E00E
E00E
E00E
E00E
E00E
E00E
E00E
E00E
E00E
E00E
E00E
F01E
F87E
7FFE
3FEE
1F8E
ENDCHAR
STARTCHAR 016C
ENCODING 364
SWIDTH 720 0
DWIDTH 24 0
BBX 18 33 3 0
BITMAP
1C0E00
1C0E00
0E1C00
0E1C00
07F800
03F000
000000
000000
000000
E001C0
E001C0
E001C0
E001C0
E001C0
E001C0
E001C0
E001C0
E001C0
E001C0
E001C0
E001C0
E001C0
E001C0
E001C0
E001C0
E001C0
E001C0
700380
780780
7C0F80
3FFF00
1FFE00
07F800
ENDCHAR
STARTCHAR 016D
ENCODING 365
SWIDTH 630 0
DWIDTH 21 0
BBX 15 27 3 0
BITMAP
381C
381C
1C38
1C38
0FF0
07E0
0000
0000
0000
E00E
E00E
E00E
E00E
E00E
E00E
E00E
E00E
E00E
E00E
E00E
E00E
E00E
F01E
F87E
7FFE
3FEE
1F8E
ENDCHAR
STARTCHAR 016E
ENCODING 366
SWIDTH 720 0
DWIDTH 24 0
BBX 18 33 3 0
BITMAP
01F000
03F800
071C00
0E0E00
0C0600
0C0600
0C0600
0E0E00
071C00
E3F9C0
E1F1C0
E001C0
E001C0
E001C0
E001C0
E001C0
E001C0
E001C0
E001C0
E001C0
E001C0
E001C0
E001C0
E001C0
E001C0
E001C0
E001C0
700380
780780
7C0F80
3FFF00
1FFE00
07F800
ENDCHAR
STARTCHAR 016F
ENCODING 367
SWIDTH 630 0
DWIDTH 21 0
BBX 15 32 3 0
BITMAP
07C0
0FE0
1C70
3838
3018
3018
3018
3838
1C70
0FE0
07C0
0000
0000
0000
E00E
E00E
E00E
E00E
E00E
E00E
E00E
E00E
E00E
E00E
E00E
E00E
E00E
F01E
F87E
7FFE
3FEE
1F8E
ENDCHAR
STARTCHAR 0170
ENCODING 368
SWIDTH 720 0
DWIDTH 24 0
BBX 18 33 3 0
BITMAP
01E3C0
01C380
038700
038700
030600
060C00
000000
000000
000000
E001C0
E001C0
E001C0
E001C0
E001C0
E001C0
E001C0
E001C0
E001C0
E001C0
E001C0
E001C0
E001C0
E001C0
E001C0
E001C0
E001C0
E001C0
700380
780780
7C0F80
3FFF00
1FFE00
07F800
ENDCHAR
STARTCHAR 0171
ENCODING 369
SWIDTH 630 0
DWIDTH 21 0
BBX 16 27 3 0
BITMAP
078F
070E
0E1C
0E1C
0C18
1830
0000
0000
0000
E00E
E00E
E00E
E00E
E00E
E00E
E00E
E00E
E00E
E00E
E00E
E00E
E00E
F01E
F87E
7FFE
3FEE
1F8E
ENDCHAR
STARTCHAR 0172
ENCODING 370
SWIDTH 720 0
DWIDTH 24 0
BBX 18 31 3 -7
BITMAP
E001C0
E001C0
E001C0
E001C0
E001C0
E001C0
E001C0
E001C0
E001C0
E001C0
E001C0
E001C0
E001C0
E001C0
E001C0
E001C0
E001C0
E001C0
700380
780780
7C0F80
3FFF00
1FFE00
07F800
003800
003800
003800
003C40
001FC0
001FC0
0007C0
ENDCHAR
STARTCHAR 0173
ENCODING 371
SWIDTH 630 0
DWIDTH 21 0
BBX 20 25 3 -7
BITMAP
E00E00
E00E00
E00E00
E00E00
E00E00
E00E00
E00E00
E00E00
E00E00
E00E00
E00E00
E00E00
E00E00
F01E00
F87E00
7FFE00
3FEE00
1F8E00
000E00
000E00
000E00
000F10
0007F0
0007F0
0001F0
ENDCHAR
STARTCHAR 0174
ENCODING 372
SWIDTH 990 0
DWIDTH 33 0
BBX 31 33 1 0
BITMAP
0007C000
0007C000
000EE000
000C6000
001C7000
00383800
00000000
00000000
00000000
E003800E
F007C01E
7007C01C
7007C01C
7006C01C
380EE03C
380EE038
380EE038
380C6038
1C1C7070
1C1C7070
1C1C7070
1E183870
0E3838E0
0E3838E0
0E3838E0
07301DE0
07701DC0
07701DC0
07F00DC0
03E00F80
03E00F80
03E00F80
03C00780
ENDCHAR
STARTCHAR 0175
ENCODING 373
SWIDTH 810 0
DWIDTH 27 0
BBX 25 27 1 0
BITMAP
003E0000
003E0000
00770000
00630000
00E38000
01C1C000
00000000
00000000
00000000
E01C0380
F01C0380
703E0700
703E0700
70360700
78770700
38770E00
38630E00
38E38E00
1CE38C00
1CC19C00
1DC1DC00
1DC1DC00
0F80D800
0F80F800
0F80F800
0F007800
07007000
ENDCHAR
STARTCHAR 0176
ENCODING 374
SWIDTH 600 0
DWIDTH 20 0
BBX 21 33 0 0
BITMAP
00F800
00F800
01DC00
018C00
038E00
070700
000000
000000
000000
F00078
7800F0
3800E0
3C01E0
1C03C0
0E0380
0F0780
070700
038E00
03DE00
01DC00
01F800
00F800
007000
007000
007000
007000
007000
007000
007000
007000
007000
007000
007000
ENDCHAR
STARTCHAR 0177
ENCODING 375
SWIDTH 600 0
DWIDTH 20 0
BBX 18 34 1 -7
BITMAP
01F000
01F000
03B800
031800
071C00
0E0E00
000000
000000
000000
E001C0
700380
700380
780780
380700
3C0F00
1C0E00
1C0E00
0E1C00
0E1C00
0F3C00
073800
07F800
03F000
03F000
01E000
01E000
01C000
01C000
03C000
038000
078000
070000
070000
0E0000
ENDCHAR
STARTCHAR 0178
ENCODING 376
SWIDTH 600 0
DWIDTH 20 0
BBX 21 30 0 0
BITMAP
038700
038700
038700
000000
000000
000000
F00078
7800F0
3800E0
3C01E0
1C03C0
0E0380
0F0780
070700
038E00
03DE00
01DC00
01F800
00F800
007000
007000
007000
007000
007000
007000
007000
007000
007000
007000
007000
ENDCHAR
STARTCHAR 0179
ENCODING 377
SWIDTH 690 0
DWIDTH 23 0
BBX 19 33 2 0
BITMAP
001E00
003C00
003800
007000
007000
00E000
000000
000000
000000
7FFFE0
7FFFE0
7FFFE0
0001E0
0003C0
000780
000F00
001E00
003C00
003C00
007800
00F000
01E000
03C000
078000
070000
0F0000
1E0000
3C0000
780000
F00000
FFFFE0
FFFFE0
FFFFE0
ENDCHAR
STARTCHAR 017A
ENCODING 378
SWIDTH 510 0
DWIDTH 17 0
BBX 14 27 2 0
BITMAP
01E0
03C0
0380
0700
0700
0E00
0000
0000
0000
FFFC
FFFC
FFFC
003C
0078
00F0
01E0
03C0
0380
0700
0F00
1E00
3C00
7800
F000
FFFC
FFFC
FFFC
ENDCHAR
STARTCHAR 017B
ENCODING 379
SWIDTH 690 0
DWIDTH 23 0
BBX 19 30 2 0
BITMAP
007000
007000
007000
000000
000000
000000
7FFFE0
7FFFE0
7FFFE0
0001E0
0003C0
000780
000F00
001E00
003C00
003C00
007800
00F000
01E000
03C000
078000
070000
0F0000
1E0000
3C0000
780000
F00000
FFFFE0
FFFFE0
FFFFE0
ENDCHAR
STARTCHAR 017C
ENCODING 380
SWIDTH 510 0
DWIDTH 17 0
BBX 14 24 2 0
BITMAP
0380
0380
0380
0000
0000
0000
FFFC
FFFC
FFFC
003C
0078
00F0
01E0
03C0
0380
0700
0F00
1E00
3C00
7800
F000
FFFC
FFFC
FFFC
ENDCHAR
STARTCHAR 017D
ENCODING 381
SWIDTH 690 0
DWIDTH 23 0
BBX 19 33 2 0
BITMAP
0E0E00
071C00
031800
03B800
01F000
01F000
000000
000000
000000
7FFFE0
7FFFE0
7FFFE0
0001E0
0003C0
000780
000F00
001E00
003C00
003C00
007800
00F000
01E000
03C000
078000
070000
0F0000
1E0000
3C0000
780000
F00000
FFFFE0
FFFFE0
FFFFE0
ENDCHAR
STARTCHAR 017E
ENCODING 382
SWIDTH 510 0
DWIDTH 17 0
BBX 14 27 2 0
BITMAP
3838
1C70
0C60
0EE0
07C0
07C0
0000
0000
0000
FFFC
FFFC
FFFC
003C
0078
00F0
01E0
03C0
0380
0700
0F00
1E00
3C00
7800
F000
FFFC
FFFC
FFFC
ENDCHAR
STARTCHAR 017F
ENCODING 383
SWIDTH 300 0
DWIDTH 10 0
BBX 10 25 3 0
BITMAP
0FC0
3FC0
7FC0
7000
E000
E000
E000
E000
E000
E000
E000
E000
E000
E000
E000
E000
E000
E000
E000
E000
E000
E000
E000
E000
E000
ENDCHAR
STARTCHAR 0192
ENCODING 402
SWIDTH 630 0
DWIDTH 21 0
BBX 22 28 -1 -3
BITMAP
0000FC
0003FC
0007FC
000F04
000E00
001C00
001C00
001C00
003C00
003800
03FFE0
03FFE0
03FFE0
007000
007000
007000
007000
007000
00E000
00E000
00E000
00E000
01C000
01C000
83C000
FF8000
FF0000
FC0000
ENDCHAR
STARTCHAR 01A0
ENCODING 416
SWIDTH 810 0
DWIDTH 27 0
BBX 26 25 2 0
BITMAP
00FE01C0
07FFC0C0
0FFFE0C0
1F01F0C0
3C0079C0
38003F80
70003F00
70001C00
F0001E00
E0000E00
E0000E00
E0000E00
E0000E00
E0000E00
E0000E00
E0000E00
F0001E00
70001C00
70003C00
78003800
3C007800
1F01F000
0FFFE000
07FFC000
00FE0000
ENDCHAR
STARTCHAR 01A1
ENCODING 417
SWIDTH 600 0
DWIDTH 20 0
BBX 17 23 2 0
BITMAP
000380
000180
000180
000180
07C380
1FFF00
3FFE00
7C3C00
700E00
700E00
E00700
E00700
E00700
E00700
E00700
E00700
E00700
700E00
700E00
7C3E00
3FFC00
1FF800
07E000
ENDCHAR
STARTCHAR 01AF
ENCODING 431
SWIDTH 750 0
DWIDTH 25 0
BBX 23 29 3 0
BITMAP
00000E
000006
000006
000006
00000E
E001FC
E001F8
E001C0
E001C0
E001C0
E001C0
E001C0
E001C0
E001C0
E001C0
E001C0
E001C0
E001C0
E001C0
E001C0
E001C0
E001C0
E001C0
700380
780780
7C0F80
3FFF00
1FFE00
07F800
ENDCHAR
STARTCHAR 01B0
ENCODING 432
SWIDTH 660 0
DWIDTH 22 0
BBX 20 23 3 0
BITMAP
000070
000030
000030
000030
000070
E00FE0
E00FC0
E00E00
E00E00
E00E00
E00E00
E00E00
E00E00
E00E00
E00E00
E00E00
E00E00
E00E00
F01E00
F87E00
7FFE00
3FEE00
1F8E00
ENDCHAR
STARTCHAR 01FA
ENCODING 506
SWIDTH 690 0
DWIDTH 23 0
BBX 23 33 0 0
BITMAP
000F00
001E00
001C00
003800
007C00
00FE00
01C700
018300
018300
01C700
00FE00
00FE00
00EE00
00EE00
01C700
01C700
03C780
038380
038380
0701C0
0701C0
0F01C0
0E00E0
0E00E0
1FFFF0
1FFFF0
1FFFF0
380038
380038
78003C
70001C
70001C
E0000E
ENDCHAR
STARTCHAR 01FB
ENCODING 507
SWIDTH 600 0
DWIDTH 20 0
BBX 15 29 2 0
BITMAP
00F0
01E0
01C0
0380
03C0
07E0
0E70
0C30
0C30
0E70
0FE0
3FF8
3FFC
303C
001E
000E
000E
03FE
1FFE
3FFE
7E0E
F00E
E00E
E00E
E00E
F03E
7FFE
3FEE
1F8E
ENDCHAR
STARTCHAR 01FC
ENCODING 508
SWIDTH 960 0
DWIDTH 32 0
BBX 30 33 0 0
BITMAP
00001E00
00003C00
00003800
00007000
00007000
0000E000
00000000
00000000
00000000
007FFFFC
007FFFFC
00FFFFFC
00E1C000
00E1C000
01C1C000
01C1C000
03C1C000
0381C000
0381FFFC
0701FFFC
0701FFFC
07FFC000
0FFFC000
0FFFC000
1C01C000
1C01C000
1C01C000
3801C000
3801C000
7801C000
7001FFFC
7001FFFC
E001FFFC
ENDCHAR
STARTCHAR 01FD
ENCODING 509
SWIDTH 960 0
DWIDTH 32 0
BBX 28 27 2 0
BITMAP
0000F000
0001E000
0001C000
00038000
00038000
00070000
00000000
00000000
0FE03E00
3FF8FF80
3FFDFFC0
301FC1E0
000F00E0
000F0070
000E0070
03FFFFF0
1FFFFFF0
7FFFFFF0
7C0E0000
F00E0000
E00E0000
E0070000
E00F8010
F03FC070
7FFBFFF0
3FE0FFF0
1F803F80
ENDCHAR
STARTCHAR 01FE
ENCODING 510
SWIDTH 780 0
DWIDTH 26 0
BBX 22 35 2 -2
BITMAP
000780
000F00
000E00
001C00
001C00
003800
000000
000018
01FE30
07FFF0
0FFFE0
1F03E0
3C00F0
7801F0
700338
700338
F0061C
E00C1C
E01C1C
E0181C
E0301C
E0601C
E0E01C
E0C01C
E1803C
730038
730038
7E0078
3C00F0
1F03E0
1FFFC0
37FF80
31FE00
600000
C00000
ENDCHAR
STARTCHAR 01FF
ENCODING 511
SWIDTH 600 0
DWIDTH 20 0
BBX 16 29 2 -2
BITMAP
003C
0078
0070
00E0
00E0
01C0
0003
0002
07E6
1FFC
3FFC
7C3C
703E
703E
E067
E0C7
E0C7
E187
E307
E207
E607
7C0E
780E
7C3E
3FFC
3FF8
67E0
4000
C000
ENDCHAR
STARTCHAR 02C6
ENCODING 710
SWIDTH 630 0
DWIDTH 21 0
BBX 11 6 5 21
BITMAP
1F00
1F00
3B80
3180
71C0
E0E0
ENDCHAR
STARTCHAR 02C7
ENCODING 711
SWIDTH 630 0
DWIDTH 21 0
BBX 11 6 5 21
BITMAP
E0E0
71C0
3180
3B80
1F00
1F00
ENDCHAR
STARTCHAR 02C9
ENCODING 713
SWIDTH 630 0
DWIDTH 21 0
BBX 12 3 5 22
BITMAP
FFF0
FFF0
FFF0
ENDCHAR
STARTCHAR 02D8
ENCODING 728
SWIDTH 630 0
DWIDTH 21 0
BBX 12 6 4 21
BITMAP
E070
E070
70E0
70E0
3FC0
1F80
ENDCHAR
STARTCHAR 02D9
ENCODING 729
SWIDTH 630 0
DWIDTH 21 0
BBX 3 3 9 21
BITMAP
E0
E0
E0
ENDCHAR
STARTCHAR 02DA
ENCODING 730
SWIDTH 630 0
DWIDTH 21 0
BBX 11 11 5 21
BITMAP
1F00
3F80
71C0
E0E0
C060
C060
C060
E0E0
71C0
3F80
1F00
ENDCHAR
STARTCHAR 02DB
ENCODING 731
SWIDTH 630 0
DWIDTH 21 0
BBX 8 7 7 -7
BITMAP
E0
E0
E0
F1
7F
7F
1F
ENDCHAR
STARTCHAR 02DC
ENCODING 732
SWIDTH 630 0
DWIDTH 21 0
BBX 13 5 4 21
BITMAP
3C18
7E18
E730
C3F0
C1E0
ENDCHAR
STARTCHAR 02DD
ENCODING 733
SWIDTH 630 0
DWIDTH 21 0
BBX 13 6 6 21
BITMAP
3C78
3870
70E0
70E0
60C0
C180
ENDCHAR
STARTCHAR 0300
ENCODING 768
SWIDTH 0 0
DWIDTH 0 0
BBX 7 6 5 21
BITMAP
F0
78
38
1C
1C
0E
ENDCHAR
STARTCHAR 0301
ENCODING 769
SWIDTH 0 0
DWIDTH 0 0
BBX 7 6 9 21
BITMAP
1E
3C
38
70
70
E0
ENDCHAR
STARTCHAR 0303
ENCODING 771
SWIDTH 0 0
DWIDTH 0 0
BBX 13 5 4 21
BITMAP
3C18
7E18
E730
C3F0
C1E0
ENDCHAR
STARTCHAR 0309
ENCODING 777
SWIDTH 0 0
DWIDTH 0 0
BBX 5 6 8 21
BITMAP
F0
F8
18
18
70
60
ENDCHAR
STARTCHAR 0323
ENCODING 803
SWIDTH 0 0
DWIDTH 0 0
BBX 3 3 9 -6
BITMAP
E0
E0
E0
ENDCHAR
STARTCHAR 037E
ENCODING 894
SWIDTH 450 0
DWIDTH 15 0
BBX 7 24 4 -6
BITMAP
3C
3C
3C
3C
3C
00
00
00
00
00
00
00
00
1E
3C
3C
3C
38
78
70
70
60
E0
E0
ENDCHAR
STARTCHAR 0384
ENCODING 900
SWIDTH 630 0
DWIDTH 21 0
BBX 4 6 9 21
BITMAP
F0
F0
F0
F0
60
60
ENDCHAR
STARTCHAR 0385
ENCODING 901
SWIDTH 630 0
DWIDTH 21 0
BBX 12 6 5 21
BITMAP
0F00
0F00
0F00
EF70
E670
E670
ENDCHAR
STARTCHAR 0386
ENCODING 902
SWIDTH 690 0
DWIDTH 23 0
BBX 23 24 0 0
BITMAP
787C00
787C00
78EE00
78EE00
31EE00
31C700
01C700
038380
038380
038380
0701C0
0701C0
0F01E0
0E00E0
0E00E0
1FFFF0
1FFFF0
3FFFF0
380038
380038
78003C
70001C
70001C
E0000E
ENDCHAR
STARTCHAR 0387
ENCODING 903
SWIDTH 450 0
DWIDTH 15 0
BBX 4 5 6 13
BITMAP
F0
F0
F0
F0
F0
ENDCHAR
STARTCHAR 0388
ENCODING 904
SWIDTH 750 0
DWIDTH 25 0
BBX 23 24 0 0
BITMAP
F1FFFE
F1FFFE
F1FFFE
F1C000
61C000
61C000
01C000
01C000
01C000
01FFFE
01FFFE
01FFFE
01C000
01C000
01C000
01C000
01C000
01C000
01C000
01C000
01C000
01FFFE
01FFFE
01FFFE
ENDCHAR
STARTCHAR 0389
ENCODING 905
SWIDTH 870 0
DWIDTH 29 0
BBX 26 24 0 0
BITMAP
F1C001C0
F1C001C0
F1C001C0
F1C001C0
61C001C0
61C001C0
01C001C0
01C001C0
01C001C0
01FFFFC0
01FFFFC0
01FFFFC0
01C001C0
01C001C0
01C001C0
01C001C0
01C001C0
01C001C0
01C001C0
01C001C0
01C001C0
01C001C0
01C001C0
01C001C0
ENDCHAR
STARTCHAR 038A
ENCODING 906
SWIDTH 540 0
DWIDTH 18 0
BBX 15 24 0 0
BITMAP
F3FE
F3FE
F3FE
F070
6070
6070
0070
0070
0070
0070
0070
0070
0070
0070
0070
0070
0070
0070
0070
0070
0070
03FE
03FE
03FE
ENDCHAR
STARTCHAR 038C
ENCODING 908
SWIDTH 870 0
DWIDTH 29 0
BBX 27 25 0 0
BITMAP
000FF000
F03FFC00
F07FFE00
F0F81F00
F1E00780
63C00380
638001C0
038001C0
078001E0
070000E0
070000E0
070000E0
070000E0
070000E0
070000E0
070000E0
078001E0
038001C0
038001C0
03C003C0
01E00780
00F81F00
007FFE00
003FFC00
000FF000
ENDCHAR
STARTCHAR 038E
ENCODING 910
SWIDTH 750 0
DWIDTH 25 0
BBX 26 24 0 0
BITMAP
F78003C0
F3C00780
F1C00700
F1E00F00
60E01E00
60701C00
00783C00
00383800
001C7000
001EF000
000EE000
000FC000
0007C000
00038000
00038000
00038000
00038000
00038000
00038000
00038000
00038000
00038000
00038000
00038000
ENDCHAR
STARTCHAR 038F
ENCODING 911
SWIDTH 900 0
DWIDTH 30 0
BBX 28 25 0 0
BITMAP
0007F000
F01FFC00
F07FFF00
F0F80F80
F0F00780
61E003C0
61C001C0
038000E0
038000E0
038000E0
038000E0
038000E0
038000E0
038000E0
01C001C0
01C001C0
00E00380
00F00780
007C1F00
003C1E00
001C1C00
001C1C00
07FC1FF0
07FC1FF0
07FC1FF0
ENDCHAR
STARTCHAR 0390
ENCODING 912
SWIDTH 270 0
DWIDTH 9 0
BBX 11 27 -1 0
BITMAP
0E00
0E00
0E00
EEE0
E4E0
E4E0
0000
0000
0000
0E00
0E00
0E00
0E00
0E00
0E00
0E00
0E00
0E00
0E00
0E00
0E00
0E00
0E00
0E00
0E00
0E00
0E00
ENDCHAR
STARTCHAR 0391
ENCODING 913
SWIDTH 690 0
DWIDTH 23 0
BBX 23 24 0 0
BITMAP
007C00
007C00
00EE00
00EE00
01EE00
01C700
01C700
038380
038380
038380
0701C0
0701C0
0F01E0
0E00E0
0E00E0
1FFFF0
1FFFF0
3FFFF0
380038
380038
78003C
70001C
70001C
E0000E
ENDCHAR
STARTCHAR 0392
ENCODING 914
SWIDTH 690 0
DWIDTH 23 0
BBX 19 24 3 0
BITMAP
FFF800
FFFE00
FFFF00
E00F80
E00380
E00380
E00380
E00380
E00700
E00E00
FFFC00
FFFF00
FFFF80
E007C0
E001E0
E000E0
E000E0
E000E0
E000E0
E001E0
E007C0
FFFF80
FFFF00
FFF800
ENDCHAR
STARTCHAR 0393
ENCODING 915
SWIDTH 570 0
DWIDTH 19 0
BBX 16 24 3 0
BITMAP
FFFF
FFFF
FFFF
E000
E000
E000
E000
E000
E000
E000
E000
E000
E000
E000
E000
E000
E000
E000
E000
E000
E000
E000
E000
E000
ENDCHAR
STARTCHAR 0394
ENCODING 916
SWIDTH 690 0
DWIDTH 23 0
BBX 23 24 0 0
BITMAP
007C00
007C00
00FE00
00EE00
00EE00
01C700
01C700
03C780
038380
038380
0701C0
0701C0
0F01E0
0E00E0
0E00E0
1E00F0
1C0070
1C0070
380038
380038
78003C
7FFFFC
7FFFFC
FFFFFE
ENDCHAR
STARTCHAR 0395
ENCODING 917
SWIDTH 630 0
DWIDTH 21 0
BBX 16 24 3 0
BITMAP
FFFF
FFFF
FFFF
E000
E000
E000
E000
E000
E000
FFFF
FFFF
FFFF
E000
E000
E000
E000
E000
E000
E000
E000
E000
FFFF
FFFF
FFFF
ENDCHAR
STARTCHAR 0396
ENCODING 918
SWIDTH 690 0
DWIDTH 23 0
BBX 19 24 2 0
BITMAP
7FFFE0
7FFFE0
7FFFE0
0001E0
0003C0
000780
000F00
001E00
003C00
003C00
007800
00F000
01E000
03C000
078000
070000
0F0000
1E0000
3C0000
780000
F00000
FFFFE0
FFFFE0
FFFFE0
ENDCHAR
STARTCHAR 0397
ENCODING 919
SWIDTH 750 0
DWIDTH 25 0
BBX 19 24 3 0
BITMAP
E000E0
E000E0
E000E0
E000E0
E000E0
E000E0
E000E0
E000E0
E000E0
FFFFE0
FFFFE0
FFFFE0
E000E0
E000E0
E000E0
E000E0
E000E0
E000E0
E000E0
E000E0
E000E0
E000E0
E000E0
E000E0
ENDCHAR
STARTCHAR 0398
ENCODING 920
SWIDTH 780 0
DWIDTH 26 0
BBX 22 25 2 0
BITMAP
01FE00
07FF80
0FFFC0
1F03E0
3C00F0
780070
700038
700038
F0003C
E0001C
E3FF1C
E3FF1C
E3FF1C
E0001C
E0001C
E0001C
F0003C
700038
700038
780078
3C00F0
1F03E0
0FFFC0
07FF80
01FE00
ENDCHAR
STARTCHAR 0399
ENCODING 921
SWIDTH 390 0
DWIDTH 13 0
BBX 9 24 2 0
BITMAP
FF80
FF80
FF80
1C00
1C00
1C00
1C00
1C00
1C00
1C00
1C00
1C00
1C00
1C00
1C00
1C00
1C00
1C00
1C00
1C00
1C00
FF80
FF80
FF80
ENDCHAR
STARTCHAR 039A
ENCODING 922
SWIDTH 690 0
DWIDTH 23 0
BBX 20 24 3 0
BITMAP
E000E0
E001C0
E00780
E00F00
E01E00
E03C00
E07800
E0F000
E1E000
E3C000
E78000
EF0000
FF8000
FBC000
F1E000
E0F000
E07800
E03C00
E01E00
E00F00
E00780
E003C0
E001E0
E000F0
ENDCHAR
STARTCHAR 039B
ENCODING 923
SWIDTH 690 0
DWIDTH 23 0
BBX 23 24 0 0
BITMAP
007C00
007C00
00FE00
00EE00
00EE00
01C700
01C700
03C700
038380
038380
0701C0
0701C0
0701C0
0E00E0
0E00E0
1E00F0
1C0070
1C0070
380038
380038
78003C
70001C
70001C
E0000E
ENDCHAR
STARTCHAR 039C
ENCODING 924
SWIDTH 840 0
DWIDTH 28 0
BBX 22 24 3 0
BITMAP
F8007C
F8007C
FC00FC
FC00FC
EE01DC
EE01DC
E7039C
E7039C
E3871C
E3871C
E1CE1C
E1CE1C
E0FC1C
E0FC1C
E0781C
E0781C
E0301C
E0001C
E0001C
E0001C
E0001C
E0001C
E0001C
E0001C
ENDCHAR
STARTCHAR 039D
ENCODING 925
SWIDTH 750 0
DWIDTH 25 0
BBX 19 24 3 0
BITMAP
F800E0
FC00E0
FC00E0
EE00E0
EF00E0
E700E0
E780E0
E380E0
E3C0E0
E1C0E0
E1E0E0
E0E0E0
E070E0
E078E0
E038E0
E03CE0
E01CE0
E01EE0
E00EE0
E00FE0
E007E0
E003E0
E003E0
E001E0
ENDCHAR
STARTCHAR 039E
ENCODING 926
SWIDTH 630 0
DWIDTH 21 0
BBX 18 24 2 0
BITMAP
FFFFC0
FFFFC0
FFFFC0
000000
000000
000000
000000
000000
000000
7FFF80
7FFF80
7FFF80
000000
000000
000000
000000
000000
000000
000000
000000
000000
FFFFC0
FFFFC0
FFFFC0
ENDCHAR
STARTCHAR 039F
ENCODING 927
SWIDTH 780 0
DWIDTH 26 0
BBX 22 25 2 0
BITMAP
01FE00
07FF80
0FFFC0
1F03E0
3C00F0
780070
700038
700038
F0003C
E0001C
E0001C
E0001C
E0001C
E0001C
E0001C
E0001C
F0003C
700038
700038
780078
3C00F0
1F03E0
0FFFC0
07FF80
01FE00
ENDCHAR
STARTCHAR 03A0
ENCODING 928
SWIDTH 750 0
DWIDTH 25 0
BBX 19 24 3 0
BITMAP
FFFFE0
FFFFE0
FFFFE0
E000E0
E000E0
E000E0
E000E0
E000E0
E000E0
E000E0
E000E0
E000E0
E000E0
E000E0
E000E0
E000E0
E000E0
E000E0
E000E0
E000E0
E000E0
E000E0
E000E0
E000E0
ENDCHAR
STARTCHAR 03A1
ENCODING 929
SWIDTH 600 0
DWIDTH 20 0
BBX 16 24 3 0
BITMAP
FFE0
FFF8
FFFC
E03E
E00F
E007
E007
E007
E007
E00F
E00E
E03E
FFFC
FFF8
FFC0
E000
E000
E000
E000
E000
E000
E000
E000
E000
ENDCHAR
STARTCHAR 03A3
ENCODING 931
SWIDTH 660 0
DWIDTH 22 0
BBX 18 24 2 0
BITMAP
FFFF80
FFFF80
FFFF80
F80000
3C0000
1E0000
0F0000
078000
03C000
01E000
00F000
007800
00F000
01E000
03C000
078000
0F0000
1E0000
3C0000
780000
F00000
FFFFC0
FFFFC0
FFFFC0
ENDCHAR
STARTCHAR 03A4
ENCODING 932
SWIDTH 600 0
DWIDTH 20 0
BBX 21 24 0 0
BITMAP
FFFFF8
FFFFF8
FFFFF8
007000
007000
007000
007000
007000
007000
007000
007000
007000
007000
007000
007000
007000
007000
007000
007000
007000
007000
007000
007000
007000
ENDCHAR
STARTCHAR 03A5
ENCODING 933
SWIDTH 600 0
DWIDTH 20 0
BBX 21 24 0 0
BITMAP
F00078
7800F0
3800E0
3C01E0
1C03C0
0E0380
0F0780
070700
038E00
03DE00
01DC00
01F800
00F800
007000
007000
007000
007000
007000
007000
007000
007000
007000
007000
007000
ENDCHAR
STARTCHAR 03A6
ENCODING 934
SWIDTH 810 0
DWIDTH 27 0
BBX 23 24 2 0
BITMAP
003800
003800
01FF00
0FFFE0
1FFFF0
3E38F8
78383C
70381C
F0381E
E0380E
E0380E
E0380E
E0380E
E0380E
F0381E
70381C
78383C
3E38F8
1FFFF0
0FFFE0
01FF00
003800
003800
003800
ENDCHAR
STARTCHAR 03A7
ENCODING 935
SWIDTH 690 0
DWIDTH 23 0
BBX 21 24 1 0
BITMAP
F00078
7800F0
3800E0
1C01E0
1E03C0
0F0780
070700
078F00
03DE00
01DC00
00F800
00F800
00F800
00FC00
01DC00
03DE00
078F00
070700
0E0380
1E03C0
3C01E0
3800E0
7800F0
F00078
ENDCHAR
STARTCHAR 03A8
ENCODING 936
SWIDTH 870 0
DWIDTH 29 0
BBX 23 24 3 0
BITMAP
E0380E
E0380E
E0380E
E0380E
E0380E
E0380E
E0380E
E0380E
E0380E
E0380E
E0380E
E0380E
E0380E
70381C
78383C
3E38F8
1FFFF8
0FFFE0
01FF00
003800
003800
003800
003800
003800
ENDCHAR
STARTCHAR 03A9
ENCODING 937
SWIDTH 810 0
DWIDTH 27 0
BBX 23 25 2 0
BITMAP
00FE00
03FF80
0FFFE0
1F01F0
1E00F0
3C0078
380038
70001C
70001C
70001C
70001C
70001C
70001C
70001C
380038
380038
1C0070
1E00F0
0F83E0
0783C0
038380
038380
FF83FE
FF83FE
FF83FE
ENDCHAR
STARTCHAR 03AA
ENCODING 938
SWIDTH 390 0
DWIDTH 13 0
BBX 10 30 2 0
BITMAP
E1C0
E1C0
E1C0
0000
0000
0000
FF80
FF80
FF80
1C00
1C00
1C00
1C00
1C00
1C00
1C00
1C00
1C00
1C00
1C00
1C00
1C00
1C00
1C00
1C00
1C00
1C00
FF80
FF80
FF80
ENDCHAR
STARTCHAR 03AB
ENCODING 939
SWIDTH 600 0
DWIDTH 20 0
BBX 21 30 0 0
BITMAP
038700
038700
038700
000000
000000
000000
F00078
7800F0
3800E0
3C01E0
1C03C0
0E0380
0F0780
070700
038E00
03DE00
01DC00
01F800
00F800
007000
007000
007000
007000
007000
007000
007000
007000
007000
007000
007000
ENDCHAR
STARTCHAR 03AC
ENCODING 940
SWIDTH 630 0
DWIDTH 21 0
BBX 16 27 2 0
BITMAP
03C0
03C0
03C0
03C0
0180
0180
0000
0000
03E0
0FFF
3FFF
3C0F
7807
7007
E007
E007
E007
E007
E007
E007
E007
F007
700F
783F
3FFF
1FF7
07C7
ENDCHAR
STARTCHAR 03AD
ENCODING 941
SWIDTH 510 0
DWIDTH 17 0
BBX 14 27 2 0
BITMAP
03C0
03C0
03C0
03C0
0180
0180
0000
0000
07E0
1FF8
3FF8
7818
7000
7000
7000
3800
3FC0
0FC0
3FC0
7000
E000
E000
E004
F81C
7FFC
3FFC
0FE0
ENDCHAR
STARTCHAR 03AE
ENCODING 942
SWIDTH 630 0
DWIDTH 21 0
BBX 15 34 3 -7
BITMAP
03C0
03C0
03C0
03C0
0180
0180
0000
0000
03F0
EFF8
FFFC
FC3C
F01E
E00E
E00E
E00E
E00E
E00E
E00E
E00E
E00E
E00E
E00E
E00E
E00E
E00E
E00E
000E
000E
000E
000E
000E
000E
000E
ENDCHAR
STARTCHAR 03AF
ENCODING 943
SWIDTH 270 0
DWIDTH 9 0
BBX 4 27 3 0
BITMAP
F0
F0
F0
F0
60
60
00
00
00
E0
E0
E0
E0
E0
E0
E0
E0
E0
E0
E0
E0
E0
E0
E0
E0
E0
E0
ENDCHAR
STARTCHAR 03B0
ENCODING 944
SWIDTH 630 0
DWIDTH 21 0
BBX 15 27 3 0
BITMAP
03C0
03C0
03C0
39DC
399C
399C
0000
0000
0000
E00E
E00E
E00E
E00E
E00E
E00E
E00E
E00E
E00E
E00E
E00E
E00E
E00E
F01E
783C
7FFC
3FF8
0FE0
ENDCHAR
STARTCHAR 03B1
ENCODING 945
SWIDTH 630 0
DWIDTH 21 0
BBX 16 19 2 0
BITMAP
03E0
0FFF
3FFF
3C0F
7807
7007
E007
E007
E007
E007
E007
E007
E007
F007
700F
783F
3FFF
1FF7
07C7
ENDCHAR
STARTCHAR 03B2
ENCODING 946
SWIDTH 600 0
DWIDTH 20 0
BBX 15 32 3 -7
BITMAP
0FC0
1FF0
3FF8
787C
F01C
E01C
E01C
E01C
E038
E070
E7E0
E7C0
E7F8
E07C
E01C
E00E
E00E
E00E
E00E
E00E
E01C
F03C
FFF8
FFF0
E7E0
E000
E000
E000
E000
E000
E000
E000
ENDCHAR
STARTCHAR 03B3
ENCODING 947
SWIDTH 600 0
DWIDTH 20 0
BBX 17 25 1 -7
BITMAP
E00380
700700
700700
780F00
380E00
380E00
1C1C00
1C1C00
1E3C00
0E3800
0E3800
077000
077000
07F000
03E000
03E000
01C000
01C000
01C000
01C000
01C000
01C000
01C000
01C000
01C000
ENDCHAR
STARTCHAR 03B4
ENCODING 948
SWIDTH 600 0
DWIDTH 20 0
BBX 16 25 2 0
BITMAP
3FFE
3FFE
3FFE
3C00
0F00
07C0
01E0
03F0
0FF8
1E3C
381E
700E
700F
E007
E007
E007
E007
E007
E007
F00F
700E
7C3E
3FFC
1FF8
07E0
ENDCHAR
STARTCHAR 03B5
ENCODING 949
SWIDTH 510 0
DWIDTH 17 0
BBX 14 19 2 0
BITMAP
07E0
1FF8
3FF8
7818
7000
7000
7000
3800
3FC0
0FC0
3FC0
7000
E000
E000
E004
F81C
7FFC
3FFC
0FE0
ENDCHAR
STARTCHAR 03B6
ENCODING 950
SWIDTH 450 0
DWIDTH 15 0
BBX 14 32 2 -7
BITMAP
7FF8
7FF8
7FF8
00F0
01C0
0380
0700
0E00
1C00
1C00
3800
3800
7000
7000
E000
E000
E000
E000
E000
E000
F000
7800
7FF0
3FF8
0FFC
003C
001C
001C
001C
0038
0038
0070
ENDCHAR
STARTCHAR 03B7
ENCODING 951
SWIDTH 630 0
DWIDTH 21 0
BBX 15 26 3 -7
BITMAP
03F0
EFF8
FFFC
FC3C
F01E
E00E
E00E
E00E
E00E
E00E
E00E
E00E
E00E
E00E
E00E
E00E
E00E
E00E
E00E
000E
000E
000E
000E
000E
000E
000E
ENDCHAR
STARTCHAR 03B8
ENCODING 952
SWIDTH 630 0
DWIDTH 21 0
BBX 17 25 2 0
BITMAP
07F000
0FF800
1FFC00
3C1E00
780F00
700700
700700
E00380
E00380
E00380
E00380
FFFF80
FFFF80
FFFF80
E00380
E00380
E00380
E00380
700700
700700
780F00
3C1E00
3FFE00
0FF800
07F000
ENDCHAR
STARTCHAR 03B9
ENCODING 953
SWIDTH 270 0
DWIDTH 9 0
BBX 3 18 3 0
BITMAP
E0
E0
E0
E0
E0
E0
E0
E0
E0
E0
E0
E0
E0
E0
E0
E0
E0
E0
ENDCHAR
STARTCHAR 03BA
ENCODING 954
SWIDTH 600 0
DWIDTH 20 0
BBX 17 18 3 0
BITMAP
E01F00
E03F00
E07F00
E0F000
E1E000
E3C000
E78000
EF0000
FE0000
FF0000
F78000
E3C000
E1E000
E0F000
E07800
E03C00
E01E00
E00F80
ENDCHAR
STARTCHAR 03BB
ENCODING 955
SWIDTH 600 0
DWIDTH 20 0
BBX 18 25 1 0
BITMAP
0F0000
070000
078000
038000
038000
01C000
01C000
00E000
01E000
01F000
01F000
03F000
03B800
073800
073C00
0F1C00
0E1C00
1E0E00
1C0E00
3C0700
380700
380780
700380
700380
F001C0
ENDCHAR
STARTCHAR 03BC
ENCODING 956
SWIDTH 630 0
DWIDTH 21 0
BBX 15 25 3 -7
BITMAP
E00E
E00E
E00E
E00E
E00E
E00E
E00E
E00E
E00E
E00E
E00E
E00E
E00E
E01E
F83E
FFFE
EFEE
E7CE
E000
E000
E000
E000
E000
E000
E000
ENDCHAR
STARTCHAR 03BD
ENCODING 957
SWIDTH 600 0
DWIDTH 20 0
BBX 18 18 1 0
BITMAP
E001C0
700380
700380
780780
380700
380700
1C0E00
1C0E00
0E1C00
0E1C00
0F1C00
073800
073800
03F000
03F000
03F000
01E000
01E000
ENDCHAR
STARTCHAR 03BE
ENCODING 958
SWIDTH 510 0
DWIDTH 17 0
BBX 15 32 2 -7
BITMAP
FFFC
FFFC
FFFC
1E00
3800
7000
7000
7000
7000
3800
3C00
0FF8
07F8
1FF8
3C00
7000
E000
E000
E000
E000
F000
7800
7FF8
3FFC
0FFE
001E
000E
000E
000E
001C
001C
0038
ENDCHAR
STARTCHAR 03BF
ENCODING 959
SWIDTH 600 0
DWIDTH 20 0
BBX 16 19 2 0
BITMAP
07E0
1FF8
3FFC
7C3C
700E
700E
E007
E007
E007
E007
E007
E007
E007
700E
700E
7C3E
3FFC
1FF8
07E0
ENDCHAR
STARTCHAR 03C0
ENCODING 960
SWIDTH 630 0
DWIDTH 21 0
BBX 15 18 3 0
BITMAP
FFFE
FFFE
FFFE
E00E
E00E
E00E
E00E
E00E
E00E
E00E
E00E
E00E
E00E
E00E
E00E
E00E
E00E
E00E
ENDCHAR
STARTCHAR 03C1
ENCODING 961
SWIDTH 630 0
DWIDTH 21 0
BBX 16 26 3 -7
BITMAP
07E0
1FF8
3FFC
783E
700E
F00F
E007
E007
E007
E007
E007
E007
E007
E00E
E01E
F03C
FFFC
FFF0
E7E0
E000
E000
E000
E000
E000
E000
E000
ENDCHAR
STARTCHAR 03C2
ENCODING 962
SWIDTH 510 0
DWIDTH 17 0
BBX 15 26 2 -7
BITMAP
03F8
0FFC
1FFC
3C0C
7800
7000
F000
E000
E000
E000
E000
E000
E000
F000
7800
7C00
3FF8
1FFC
07FE
001E
000E
000E
000E
001C
001C
0038
ENDCHAR
STARTCHAR 03C3
ENCODING 963
SWIDTH 630 0
DWIDTH 21 0
BBX 20 19 2 0
BITMAP
03E000
1FFFF0
3FFFF0
3C1FF0
780E00
700700
E00300
E00380
E00380
E00380
E00380
E00380
E00380
700780
780F00
3C1F00
3FFE00
1FFC00
07F000
ENDCHAR
STARTCHAR 03C4
ENCODING 964
SWIDTH 480 0
DWIDTH 16 0
BBX 17 18 0 0
BITMAP
FFFF80
FFFF80
FFFF80
01C000
01C000
01C000
01C000
01C000
01C000
01C000
01C000
01C000
01C000
01C000
01C000
01C000
01C000
01C000
ENDCHAR
STARTCHAR 03C5
ENCODING 965
SWIDTH 630 0
DWIDTH 21 0
BBX 15 18 3 0
BITMAP
E00E
E00E
E00E
E00E
E00E
E00E
E00E
E00E
E00E
E00E
E00E
E00E
E00E
F01E
783C
7FFC
3FF8
0FE0
ENDCHAR
STARTCHAR 03C6
ENCODING 966
SWIDTH 780 0
DWIDTH 26 0
BBX 22 26 2 -7
BITMAP
003F00
0F3FC0
1C3FE0
3838F0
783878
703838
60381C
E0381C
E0381C
E0381C
E0381C
E0381C
F0383C
703838
783878
3E39F0
1FFFE0
0FFFC0
01FF00
003800
003800
003800
003800
003800
003800
003800
ENDCHAR
STARTCHAR 03C7
ENCODING 967
SWIDTH 570 0
DWIDTH 19 0
BBX 17 25 1 -7
BITMAP
F00780
700700
780F00
380E00
3C1E00
1C1C00
0E3800
0E3800
077000
077000
03E000
03E000
01C000
03E000
03E000
077000
077000
0E3800
1E3C00
1C1C00
3C1E00
380E00
780F00
700700
F00780
ENDCHAR
STARTCHAR 03C8
ENCODING 968
SWIDTH 810 0
DWIDTH 27 0
BBX 21 25 3 -7
BITMAP
E07038
E07038
E07038
E07038
E07038
E07038
E07038
E07038
E07038
E07038
E07038
E07038
F07078
7070F0
7C71F0
3FFFE0
1FFFC0
03FE00
007000
007000
007000
007000
007000
007000
007000
ENDCHAR
STARTCHAR 03C9
ENCODING 969
SWIDTH 810 0
DWIDTH 27 0
BBX 23 18 2 0
BITMAP
0F01E0
1E00F0
3C0078
380038
70381C
70381C
E0380E
E0380E
E0380E
E0380E
E0380E
E0380E
E0381E
70381C
787C3C
3FEFF8
1FEFF0
0F83E0
ENDCHAR
STARTCHAR 03CA
ENCODING 970
SWIDTH 270 0
DWIDTH 9 0
BBX 9 24 0 0
BITMAP
E380
E380
E380
0000
0000
0000
1C00
1C00
1C00
1C00
1C00
1C00
1C00
1C00
1C00
1C00
1C00
1C00
1C00
1C00
1C00
1C00
1C00
1C00
ENDCHAR
STARTCHAR 03CB
ENCODING 971
SWIDTH 630 0
DWIDTH 21 0
BBX 15 24 3 0
BITMAP
1C38
1C38
1C38
0000
0000
0000
E00E
E00E
E00E
E00E
E00E
E00E
E00E
E00E
E00E
E00E
E00E
E00E
E00E
F01E
783C
7FFC
3FF8
0FE0
ENDCHAR
STARTCHAR 03CC
ENCODING 972
SWIDTH 600 0
DWIDTH 20 0
BBX 16 27 2 0
BITMAP
03C0
03C0
03C0
03C0
0180
0180
0000
0000
07E0
1FF8
3FFC
7C3C
700E
700E
E007
E007
E007
E007
E007
E007
E007
700E
700E
7C3E
3FFC
1FF8
07E0
ENDCHAR
STARTCHAR 03CD
ENCODING 973
SWIDTH 630 0
DWIDTH 21 0
BBX 15 27 3 0
BITMAP
03C0
03C0
03C0
03C0
0180
0180
0000
0000
0000
E00E
E00E
E00E
E00E
E00E
E00E
E00E
E00E
E00E
E00E
E00E
E00E
E00E
F01E
783C
7FFC
3FF8
0FE0
ENDCHAR
STARTCHAR 03CE
ENCODING 974
SWIDTH 810 0
DWIDTH 27 0
BBX 23 27 2 0
BITMAP
003C00
003C00
003C00
003C00
001800
001800
000000
000000
000000
0F01E0
1E00F0
3C0078
380038
70381C
70381C
E0380E
E0380E
E0380E
E0380E
E0380E
E0380E
E0381E
70381C
787C3C
3FEFF8
1FEFF0
0F83E0
ENDCHAR
STARTCHAR 0401
ENCODING 1025
SWIDTH 630 0
DWIDTH 21 0
BBX 16 30 3 0
BITMAP
1C38
1C38
1C38
0000
0000
0000
FFFF
FFFF
FFFF
E000
E000
E000
E000
E000
E000
FFFF
FFFF
FFFF
E000
E000
E000
E000
E000
E000
E000
E000
E000
FFFF
FFFF
FFFF
ENDCHAR
STARTCHAR 0402
ENCODING 1026
SWIDTH 780 0
DWIDTH 26 0
BBX 25 24 0 0
BITMAP
FFFFC000
FFFFC000
FFFFC000
01C00000
01C00000
01C00000
01C00000
01C00000
01C00000
01FFF000
01FFFC00
01FFFE00
01C01F00
01C00780
01C00380
01C00380
01C00380
01C00380
01C00380
01C00700
01C00F00
01C3FE00
01C3FC00
01C3F000
ENDCHAR
STARTCHAR 0403
ENCODING 1027
SWIDTH 570 0
DWIDTH 19 0
BBX 16 33 3 0
BITMAP
003C
0078
0070
00E0
00E0
01C0
0000
0000
0000
FFFF
FFFF
FFFF
E000
E000
E000
E000
E000
E000
E000
E000
E000
E000
E000
E000
E000
E000
E000
E000
E000
E000
E000
E000
E000
ENDCHAR
STARTCHAR 0404
ENCODING 1028
SWIDTH 690 0
DWIDTH 23 0
BBX 19 25 2 0
BITMAP
00FF00
07FFE0
0FFFE0
1F01E0
3C0020
380000
700000
700000
E00000
E00000
FFFF00
FFFF00
FFFF00
E00000
E00000
E00000
F00000
700000
700000
380000
3C0020
1F01E0
0FFFE0
07FFE0
00FF00
ENDCHAR
STARTCHAR 0405
ENCODING 1029
SWIDTH 690 0
DWIDTH 23 0
BBX 19 25 2 0
BITMAP
03FC00
1FFFC0
3FFFC0
7C07C0
F00040
E00000
E00000
E00000
E00000
F80000
7F0000
3FF800
0FFF00
01FF80
000FC0
0001E0
0000E0
0000E0
0000E0
8000E0
E001C0
FC07C0
FFFF80
7FFE00
0FF800
ENDCHAR
STARTCHAR 0406
ENCODING 1030
SWIDTH 390 0
DWIDTH 13 0
BBX 9 24 2 0
BITMAP
FF80
FF80
FF80
1C00
1C00
1C00
1C00
1C00
1C00
1C00
1C00
1C00
1C00
1C00
1C00
1C00
1C00
1C00
1C00
1C00
1C00
FF80
FF80
FF80
ENDCHAR
STARTCHAR 0407
ENCODING 1031
SWIDTH 390 0
DWIDTH 13 0
BBX 10 30 2 0
BITMAP
E1C0
E1C0
E1C0
0000
0000
0000
FF80
FF80
FF80
1C00
1C00
1C00
1C00
1C00
1C00
1C00
1C00
1C00
1C00
1C00
1C00
1C00
1C00
1C00
1C00
1C00
1C00
FF80
FF80
FF80
ENDCHAR
STARTCHAR 0408
ENCODING 1032
SWIDTH 450 0
DWIDTH 15 0
BBX 11 24 1 0
BITMAP
1FE0
1FE0
1FE0
00E0
00E0
00E0
00E0
00E0
00E0
00E0
00E0
00E0
00E0
00E0
00E0
00E0
00E0
00E0
00E0
01E0
83C0
FFC0
FF80
FE00
ENDCHAR
STARTCHAR 0409
ENCODING 1033
SWIDTH 1110 0
DWIDTH 37 0
BBX 36 24 0 0
BITMAP
03FFF80000
03FFF80000
03FFF80000
0380380000
0380380000
0380380000
0380380000
0380380000
0380380000
03803FFE00
03803FFF80
07803FFFC0
07803803E0
07003800F0
0700380070
0700380070
0700380070
0700380070
0F00380070
0E003800E0
1E003803E0
FC003FFFC0
F8003FFF80
F0003FFE00
ENDCHAR
STARTCHAR 040A
ENCODING 1034
SWIDTH 1080 0
DWIDTH 36 0
BBX 32 24 3 0
BITMAP
E0038000
E0038000
E0038000
E0038000
E0038000
E0038000
E0038000
E0038000
E0038000
FFFFFFE0
FFFFFFF8
FFFFFFFC
E003803E
E003800F
E0038007
E0038007
E0038007
E0038007
E0038007
E003800E
E003803E
E003FFFC
E003FFF8
E003FFE0
ENDCHAR
STARTCHAR 040B
ENCODING 1035
SWIDTH 810 0
DWIDTH 27 0
BBX 25 24 0 0
BITMAP
FFFFC000
FFFFC000
FFFFC000
01C00000
01C00000
01C00000
01C00000
01C00000
01C00000
01C7F800
01FFFE00
01FFFF00
01F80F00
01C00780
01C00380
01C00380
01C00380
01C00380
01C00380
01C00380
01C00380
01C00380
01C00380
01C00380
ENDCHAR
STARTCHAR 040C
ENCODING 1036
SWIDTH 690 0
DWIDTH 23 0
BBX 20 33 3 0
BITMAP
003C00
007800
007000
00E000
00E000
01C000
000000
000000
000000
E003E0
E00FE0
E01FE0
E01E00
E03800
E03800
E07000
E07000
E0F000
E1E000
E3C000
FF8000
FF8000
FFC000
E1E000
E0F000
E07800
E03C00
E01E00
E00F00
E00780
E003C0
E001E0
E001F0
ENDCHAR
STARTCHAR 040E
ENCODING 1038
SWIDTH 600 0
DWIDTH 20 0
BBX 20 31 0 0
BITMAP
0E0700
0E0700
070E00
07FE00
01F800
000000
000000
F000F0
7000E0
7800E0
3801C0
3C01C0
1C03C0
1E0380
0E0780
0F0700
070F00
078E00
038E00
03DC00
01DC00
01F800
00F800
00F800
007000
00F000
00E000
01E000
3FC000
3F8000
3F0000
ENDCHAR
STARTCHAR 040F
ENCODING 1039
SWIDTH 750 0
DWIDTH 25 0
BBX 19 29 3 -5
BITMAP
E000E0
E000E0
E000E0
E000E0
E000E0
E000E0
E000E0
E000E0
E000E0
E000E0
E000E0
E000E0
E000E0
E000E0
E000E0
E000E0
E000E0
E000E0
E000E0
E000E0
E000E0
FFFFE0
FFFFE0
FFFFE0
00E000
00E000
00E000
00E000
00E000
ENDCHAR
STARTCHAR 0410
ENCODING 1040
SWIDTH 690 0
DWIDTH 23 0
BBX 23 24 0 0
BITMAP
007C00
007C00
00EE00
00EE00
01EE00
01C700
01C700
038380
038380
038380
0701C0
0701C0
0F01E0
0E00E0
0E00E0
1FFFF0
1FFFF0
3FFFF0
380038
380038
78003C
70001C
70001C
E0000E
ENDCHAR
STARTCHAR 0411
ENCODING 1041
SWIDTH 690 0
DWIDTH 23 0
BBX 19 24 3 0
BITMAP
FFFF80
FFFF80
FFFF80
E00000
E00000
E00000
E00000
E00000
E00000
FFFC00
FFFF00
FFFF80
E007C0
E001E0
E000E0
E000E0
E000E0
E000E0
E000E0
E001C0
E007C0
FFFF80
FFFF00
FFF800
ENDCHAR
STARTCHAR 0412
ENCODING 1042
SWIDTH 690 0
DWIDTH 23 0
BBX 19 24 3 0
BITMAP
FFF800
FFFE00
FFFF00
E00F80
E00380
E00380
E00380
E00380
E00700
E00E00
FFFC00
FFFF00
FFFF80
E007C0
E001E0
E000E0
E000E0
E000E0
E000E0
E001E0
E007C0
FFFF80
FFFF00
FFF800
ENDCHAR
STARTCHAR 0413
ENCODING 1043
SWIDTH 570 0
DWIDTH 19 0
BBX 16 24 3 0
BITMAP
FFFF
FFFF
FFFF
E000
E000
E000
E000
E000
E000
E000
E000
E000
E000
E000
E000
E000
E000
E000
E000
E000
E000
E000
E000
E000
ENDCHAR
STARTCHAR 0414
ENCODING 1044
SWIDTH 750 0
DWIDTH 25 0
BBX 24 29 0 -5
BITMAP
01FFFC
01FFFC
01FFFC
01C01C
01C01C
01C01C
01C01C
03C01C
03801C
03801C
03801C
03801C
03801C
07001C
07001C
07001C
0E001C
0E001C
1C001C
1C001C
38001C
FFFFFF
FFFFFF
FFFFFF
E00007
E00007
E00007
E00007
E00007
ENDCHAR
STARTCHAR 0415
ENCODING 1045
SWIDTH 630 0
DWIDTH 21 0
BBX 16 24 3 0
BITMAP
FFFF
FFFF
FFFF
E000
E000
E000
E000
E000
E000
FFFF
FFFF
FFFF
E000
E000
E000
E000
E000
E000
E000
E000
E000
FFFF
FFFF
FFFF
ENDCHAR
STARTCHAR 0416
ENCODING 1046
SWIDTH 960 0
DWIDTH 32 0
BBX 31 24 0 0
BITMAP
7803803C
7E0380FC
7F0381FC
0F0381E0
070381C0
03838380
03838380
03C38780
01E38F00
01F39F00
00FFFE00
007FF800
007FFC00
00F39E00
01E38F00
01C38700
03C38780
078383C0
0F0381E0
1E0380F0
1E038070
3C038078
7803803C
F003801E
ENDCHAR
STARTCHAR 0417
ENCODING 1047
SWIDTH 600 0
DWIDTH 20 0
BBX 17 25 1 0
BITMAP
0FF000
7FFC00
7FFE00
781F00
400F00
000700
000700
000700
000E00
003E00
0FF800
0FF000
0FFE00
001F00
000700
000380
000380
000380
000380
000780
800700
F01F00
FFFE00
FFFC00
1FE000
ENDCHAR
STARTCHAR 0418
ENCODING 1048
SWIDTH 750 0
DWIDTH 25 0
BBX 19 24 3 0
BITMAP
E001E0
E001E0
E003E0
E007E0
E007E0
E00FE0
E01EE0
E01CE0
E03CE0
E078E0
E070E0
E0F0E0
E1E0E0
E1C0E0
E380E0
E780E0
E700E0
EE00E0
FE00E0
FC00E0
F800E0
F800E0
F000E0
E000E0
ENDCHAR
STARTCHAR 0419
ENCODING 1049
SWIDTH 750 0
DWIDTH 25 0
BBX 19 31 3 0
BITMAP
1C0700
1C0700
0E0E00
07FC00
03F800
000000
000000
E001E0
E001E0
E003E0
E007E0
E007E0
E00FE0
E01EE0
E01CE0
E03CE0
E078E0
E070E0
E0F0E0
E1E0E0
E1C0E0
E380E0
E780E0
E700E0
EE00E0
FE00E0
FC00E0
F800E0
F800E0
F000E0
E000E0
ENDCHAR
STARTCHAR 041A
ENCODING 1050
SWIDTH 690 0
DWIDTH 23 0
BBX 20 24 3 0
BITMAP
E003E0
E00FE0
E01FE0
E01E00
E03800
E03800
E07000
E07000
E0F000
E1E000
E3C000
FF8000
FF8000
FFC000
E1E000
E0F000
E07800
E03C00
E01E00
E00F00
E00780
E003C0
E001E0
E001F0
ENDCHAR
STARTCHAR 041B
ENCODING 1051
SWIDTH 720 0
DWIDTH 24 0
BBX 21 24 0 0
BITMAP
03FFF8
03FFF8
03FFF8
038038
038038
038038
038038
038038
038038
038038
038038
078038
078038
070038
070038
070038
070038
070038
0F0038
0E0038
1E0038
FC0038
F80038
F00038
ENDCHAR
STARTCHAR 041C
ENCODING 1052
SWIDTH 840 0
DWIDTH 28 0
BBX 22 24 3 0
BITMAP
F8007C
F8007C
FC00FC
FC00FC
EE01DC
EE01DC
E7039C
E7039C
E3871C
E3871C
E1CE1C
E1CE1C
E0FC1C
E0FC1C
E0781C
E0781C
E0301C
E0001C
E0001C
E0001C
E0001C
E0001C
E0001C
E0001C
ENDCHAR
STARTCHAR 041D
ENCODING 1053
SWIDTH 750 0
DWIDTH 25 0
BBX 19 24 3 0
BITMAP
E000E0
E000E0
E000E0
E000E0
E000E0
E000E0
E000E0
E000E0
E000E0
FFFFE0
FFFFE0
FFFFE0
E000E0
E000E0
E000E0
E000E0
E000E0
E000E0
E000E0
E000E0
E000E0
E000E0
E000E0
E000E0
ENDCHAR
STARTCHAR 041E
ENCODING 1054
SWIDTH 780 0
DWIDTH 26 0
BBX 22 25 2 0
BITMAP
01FE00
07FF80
0FFFC0
1F03E0
3C00F0
780070
700038
700038
F0003C
E0001C
E0001C
E0001C
E0001C
E0001C
E0001C
E0001C
F0003C
700038
700038
780078
3C00F0
1F03E0
0FFFC0
07FF80
01FE00
ENDCHAR
STARTCHAR 041F
ENCODING 1055
SWIDTH 750 0
DWIDTH 25 0
BBX 19 24 3 0
BITMAP
FFFFE0
FFFFE0
FFFFE0
E000E0
E000E0
E000E0
E000E0
E000E0
E000E0
E000E0
E000E0
E000E0
E000E0
E000E0
E000E0
E000E0
E000E0
E000E0
E000E0
E000E0
E000E0
E000E0
E000E0
E000E0
ENDCHAR
STARTCHAR 0420
ENCODING 1056
SWIDTH 600 0
DWIDTH 20 0
BBX 16 24 3 0
BITMAP
FFE0
FFF8
FFFC
E03E
E00F
E007
E007
E007
E007
E00F
E00E
E03E
FFFC
FFF8
FFC0
E000
E000
E000
E000
E000
E000
E000
E000
E000
ENDCHAR
STARTCHAR 0421
ENCODING 1057
SWIDTH 690 0
DWIDTH 23 0
BBX 20 25 2 0
BITMAP
00FF00
03FFE0
0FFFF0
1F01F0
3C0070
380010
780000
700000
F00000
E00000
E00000
E00000
E00000
E00000
E00000
E00000
F00000
700000
780000
780010
3C0030
1F01F0
0FFFF0
07FFC0
00FF00
ENDCHAR
STARTCHAR 0422
ENCODING 1058
SWIDTH 600 0
DWIDTH 20 0
BBX 21 24 0 0
BITMAP
FFFFF8
FFFFF8
FFFFF8
007000
007000
007000
007000
007000
007000
007000
007000
007000
007000
007000
007000
007000
007000
007000
007000
007000
007000
007000
007000
007000
ENDCHAR
STARTCHAR 0423
ENCODING 1059
SWIDTH 600 0
DWIDTH 20 0
BBX 20 24 0 0
BITMAP
F000F0
7000E0
7800E0
3801C0
3C01C0
1C03C0
1E0380
0E0780
0F0700
070F00
078E00
038E00
03DC00
01DC00
01F800
00F800
00F800
007000
00F000
00E000
01E000
3FC000
3F8000
3F0000
ENDCHAR
STARTCHAR 0424
ENCODING 1060
SWIDTH 810 0
DWIDTH 27 0
BBX 23 24 2 0
BITMAP
003800
003800
01FF00
0FFFE0
1FFFF0
3E38F8
78383C
70381C
F0381E
E0380E
E0380E
E0380E
E0380E
E0380E
F0381E
70381C
78383C
3E38F8
1FFFF0
0FFFE0
01FF00
003800
003800
003800
ENDCHAR
STARTCHAR 0425
ENCODING 1061
SWIDTH 690 0
DWIDTH 23 0
BBX 21 24 1 0
BITMAP
F00078
7800F0
3800E0
1C01E0
1E03C0
0F0780
070700
078F00
03DE00
01DC00
00F800
00F800
00F800
00FC00
01DC00
03DE00
078F00
070700
0E0380
1E03C0
3C01E0
3800E0
7800F0
F00078
ENDCHAR
STARTCHAR 0426
ENCODING 1062
SWIDTH 750 0
DWIDTH 25 0
BBX 21 29 3 -5
BITMAP
E000E0
E000E0
E000E0
E000E0
E000E0
E000E0
E000E0
E000E0
E000E0
E000E0
E000E0
E000E0
E000E0
E000E0
E000E0
E000E0
E000E0
E000E0
E000E0
E000E0
E000E0
FFFFF8
FFFFF8
FFFFF8
000038
000038
000038
000038
000038
ENDCHAR
STARTCHAR 0427
ENCODING 1063
SWIDTH 720 0
DWIDTH 24 0
BBX 19 24 2 0
BITMAP
E000E0
E000E0
E000E0
E000E0
E000E0
E000E0
E000E0
E000E0
E000E0
E000E0
F000E0
7803E0
7FFFE0
1FFFE0
07F8E0
0000E0
0000E0
0000E0
0000E0
0000E0
0000E0
0000E0
0000E0
0000E0
ENDCHAR
STARTCHAR 0428
ENCODING 1064
SWIDTH 1020 0
DWIDTH 34 0
BBX 27 24 3 0
BITMAP
E00E00E0
E00E00E0
E00E00E0
E00E00E0
E00E00E0
E00E00E0
E00E00E0
E00E00E0
E00E00E0
E00E00E0
E00E00E0
E00E00E0
E00E00E0
E00E00E0
E00E00E0
E00E00E0
E00E00E0
E00E00E0
E00E00E0
E00E00E0
E00E00E0
FFFFFFE0
FFFFFFE0
FFFFFFE0
ENDCHAR
STARTCHAR 0429
ENCODING 1065
SWIDTH 1020 0
DWIDTH 34 0
BBX 29 29 3 -5
BITMAP
E00E00E0
E00E00E0
E00E00E0
E00E00E0
E00E00E0
E00E00E0
E00E00E0
E00E00E0
E00E00E0
E00E00E0
E00E00E0
E00E00E0
E00E00E0
E00E00E0
E00E00E0
E00E00E0
E00E00E0
E00E00E0
E00E00E0
E00E00E0
E00E00E0
FFFFFFF8
FFFFFFF8
FFFFFFF8
00000038
00000038
00000038
00000038
00000038
ENDCHAR
STARTCHAR 042A
ENCODING 1066
SWIDTH 780 0
DWIDTH 26 0
BBX 25 24 0 0
BITMAP
FFC00000
FFC00000
FFC00000
01C00000
01C00000
01C00000
01C00000
01C00000
01C00000
01FFF000
01FFFC00
01FFFE00
01C01F00
01C00780
01C00380
01C00380
01C00380
01C00380
01C00380
01C00700
01C01F00
01FFFE00
01FFFC00
01FFF000
ENDCHAR
STARTCHAR 042B
ENCODING 1067
SWIDTH 900 0
DWIDTH 30 0
BBX 24 24 3 0
BITMAP
E00007
E00007
E00007
E00007
E00007
E00007
E00007
E00007
E00007
FFF807
FFFE07
FFFF07
E00F87
E003C7
E001C7
E001C7
E001C7
E001C7
E001C7
E00387
E00F87
FFFF07
FFFE07
FFF807
ENDCHAR
STARTCHAR 042C
ENCODING 1068
SWIDTH 660 0
DWIDTH 22 0
BBX 18 24 3 0
BITMAP
E00000
E00000
E00000
E00000
E00000
E00000
E00000
E00000
E00000
FFF800
FFFE00
FFFF00
E00F80
E003C0
E001C0
E001C0
E001C0
E001C0
E001C0
E00380
E00F80
FFFF00
FFFE00
FFF800
ENDCHAR
STARTCHAR 042D
ENCODING 1069
SWIDTH 690 0
DWIDTH 23 0
BBX 19 25 2 0
BITMAP
1FE000
FFFC00
FFFE00
F01F00
800780
0003C0
0001C0
0001C0
0000E0
0000E0
1FFFE0
1FFFE0
1FFFE0
0000E0
0000E0
0000E0
0001C0
0001C0
0003C0
000380
800780
F01F00
FFFE00
FFF800
1FE000
ENDCHAR
STARTCHAR 042E
ENCODING 1070
SWIDTH 1020 0
DWIDTH 34 0
BBX 29 25 3 0
BITMAP
0003FC00
E00FFF00
E01FFF80
E03E07C0
E07801E0
E0F000F0
E0E00070
E0E00070
E1E00078
E1C00038
FFC00038
FFC00038
FFC00038
E1C00038
E1C00038
E1C00038
E1E00078
E0E00070
E0E00070
E0F000F0
E07801E0
E03E07C0
E01FFF80
E00FFF00
E003FC00
ENDCHAR
STARTCHAR 042F
ENCODING 1071
SWIDTH 690 0
DWIDTH 23 0
BBX 19 24 1 0
BITMAP
00FFE0
03FFE0
0FFFE0
0F00E0
1E00E0
1C00E0
1C00E0
1C00E0
1C00E0
1E00E0
0F00E0
0FFFE0
03FFE0
01FFE0
01C0E0
03C0E0
0780E0
0700E0
0F00E0
1E00E0
1C00E0
3C00E0
7800E0
F000E0
ENDCHAR
STARTCHAR 0430
ENCODING 1072
SWIDTH 600 0
DWIDTH 20 0
BBX 15 19 2 0
BITMAP
1FE0
3FF8
3FFC
303E
001E
000E
000E
03FE
1FFE
3FFE
7E0E
F00E
E00E
E00E
E00E
F03E
7FFE
3FEE
1F8E
ENDCHAR
STARTCHAR 0431
ENCODING 1073
SWIDTH 600 0
DWIDTH 20 0
BBX 16 25 2 0
BITMAP
007E
07FE
0FFE
1F80
3C00
7800
7000
7000
63E0
EFF8
FFFC
F83E
E00E
E00F
E007
E007
E007
E007
7007
700E
780E
3C3C
3FFC
1FF8
07E0
ENDCHAR
STARTCHAR 0432
ENCODING 1074
SWIDTH 600 0
DWIDTH 20 0
BBX 15 18 3 0
BITMAP
FFE0
FFF8
FFFC
E03C
E01C
E01C
E038
FFF0
FFF8
FFFC
E01E
E00E
E00E
E00E
E03E
FFFC
FFF8
FFE0
ENDCHAR
STARTCHAR 0433
ENCODING 1075
SWIDTH 480 0
DWIDTH 16 0
BBX 13 18 3 0
BITMAP
FFF8
FFF8
FFF8
E000
E000
E000
E000
E000
E000
E000
E000
E000
E000
E000
E000
E000
E000
E000
ENDCHAR
STARTCHAR 0434
ENCODING 1076
SWIDTH 630 0
DWIDTH 21 0
BBX 20 22 0 -4
BITMAP
03FFC0
03FFC0
03FFC0
0381C0
0381C0
0381C0
0781C0
0701C0
0701C0
0701C0
0E01C0
0E01C0
1C01C0
1C01C0
3801C0
FFFFF0
FFFFF0
FFFFF0
E00070
E00070
E00070
E00070
ENDCHAR
STARTCHAR 0435
ENCODING 1077
SWIDTH 600 0
DWIDTH 20 0
BBX 16 19 2 0
BITMAP
03E0
0FF8
3FFC
3C1E
780E
7007
E007
E007
FFFF
FFFF
FFFF
E000
E000
7000
7001
3C07
3FFF
0FFF
03F8
ENDCHAR
STARTCHAR 0436
ENCODING 1078
SWIDTH 780 0
DWIDTH 26 0
BBX 25 18 1 0
BITMAP
781C0F00
7C1C1F00
7E1C3F00
0E1C3800
0F1C7800
071C7000
079CF000
03FFE000
01FFC000
03FFE000
039CE000
079C7000
0F1C7800
1E1C3C00
1C1C1C00
3C1C1E00
781C0F00
F01C0780
ENDCHAR
STARTCHAR 0437
ENCODING 1079
SWIDTH 510 0
DWIDTH 17 0
BBX 14 19 1 0
BITMAP
1FC0
7FF0
7FF8
603C
001C
001C
001C
0038
0FF0
0FE0
0FF8
0038
001C
001C
801C
E07C
FFF8
FFF0
1FC0
ENDCHAR
STARTCHAR 0438
ENCODING 1080
SWIDTH 630 0
DWIDTH 21 0
BBX 15 18 3 0
BITMAP
E00E
E01E
E03E
E03E
E07E
E0EE
E0EE
E1CE
E38E
E38E
E70E
EE0E
EE0E
FC0E
F80E
F00E
F00E
E00E
ENDCHAR
STARTCHAR 0439
ENCODING 1081
SWIDTH 630 0
DWIDTH 21 0
BBX 15 25 3 0
BITMAP
3838
3838
1C70
1FF0
07C0
0000
0000
E00E
E01E
E03E
E03E
E07E
E0EE
E0EE
E1CE
E38E
E38E
E70E
EE0E
EE0E
FC0E
F80E
F00E
F00E
E00E
ENDCHAR
STARTCHAR 043A
ENCODING 1082
SWIDTH 600 0
DWIDTH 20 0
BBX 17 18 3 0
BITMAP
E01F00
E03F00
E07F00
E0F000
E0E000
E1E000
E1C000
E7C000
FF8000
FF0000
FF8000
E3C000
E1E000
E0F000
E07800
E03C00
E01E00
E00F80
ENDCHAR
STARTCHAR 043B
ENCODING 1083
SWIDTH 600 0
DWIDTH 20 0
BBX 17 18 0 0
BITMAP
07FF80
07FF80
07FF80
070380
070380
070380
070380
070380
070380
0F0380
0F0380
0E0380
0E0380
1E0380
1E0380
FC0380
F80380
F00380
ENDCHAR
STARTCHAR 043C
ENCODING 1084
SWIDTH 690 0
DWIDTH 23 0
BBX 17 18 3 0
BITMAP
F00780
F80780
F80F80
F80F80
FC1F80
EC1B80
EE3B80
E63380
E77380
E36380
E3E380
E1C380
E1C380
E00380
E00380
E00380
E00380
E00380
ENDCHAR
STARTCHAR 043D
ENCODING 1085
SWIDTH 630 0
DWIDTH 21 0
BBX 15 18 3 0
BITMAP
E00E
E00E
E00E
E00E
E00E
E00E
E00E
FFFE
FFFE
FFFE
E00E
E00E
E00E
E00E
E00E
E00E
E00E
E00E
ENDCHAR
STARTCHAR 043E
ENCODING 1086
SWIDTH 600 0
DWIDTH 20 0
BBX 16 19 2 0
BITMAP
07E0
1FF8
3FFC
7C3C
700E
700E
E007
E007
E007
E007
E007
E007
E007
700E
700E
7C3E
3FFC
1FF8
07E0
ENDCHAR
STARTCHAR 043F
ENCODING 1087
SWIDTH 630 0
DWIDTH 21 0
BBX 15 18 3 0
BITMAP
FFFE
FFFE
FFFE
E00E
E00E
E00E
E00E
E00E
E00E
E00E
E00E
E00E
E00E
E00E
E00E
E00E
E00E
E00E
ENDCHAR
STARTCHAR 0440
ENCODING 1088
SWIDTH 630 0
DWIDTH 21 0
BBX 16 26 3 -7
BITMAP
03F0
EFF8
FFFC
FC1E
F00E
E00F
E007
E007
E007
E007
E007
E007
E007
E00E
E01E
F03C
FFFC
FFF0
E7E0
E000
E000
E000
E000
E000
E000
E000
ENDCHAR
STARTCHAR 0441
ENCODING 1089
SWIDTH 540 0
DWIDTH 18 0
BBX 15 19 2 0
BITMAP
03F0
0FFE
1FFE
3C0E
7802
7000
E000
E000
E000
E000
E000
E000
E000
7000
7802
3C0E
3FFE
0FFE
03F0
ENDCHAR
STARTCHAR 0442
ENCODING 1090
SWIDTH 480 0
DWIDTH 16 0
BBX 17 18 0 0
BITMAP
FFFF80
FFFF80
FFFF80
01C000
01C000
01C000
01C000
01C000
01C000
01C000
01C000
01C000
01C000
01C000
01C000
01C000
01C000
01C000
ENDCHAR
STARTCHAR 0443
ENCODING 1091
SWIDTH 600 0
DWIDTH 20 0
BBX 18 25 1 -7
BITMAP
E001C0
700380
700380
780780
380700
3C0F00
1C0E00
1C0E00
0E1C00
0E1C00
0F3C00
073800
07F800
03F000
03F000
01E000
01E000
01C000
01C000
03C000
038000
078000
070000
070000
0E0000
ENDCHAR
STARTCHAR 0444
ENCODING 1092
SWIDTH 840 0
DWIDTH 28 0
BBX 25 32 1 -7
BITMAP
001C0000
001C0000
001C0000
001C0000
001C0000
001C0000
07DDF000
1FFFFC00
3FFFFE00
3C3E1F00
781C0700
701C0780
E01C0380
E01C0380
E01C0380
E01C0380
E01C0380
E01C0380
E01C0380
F01C0700
701C0F00
7C3E1E00
3FFFFE00
1FFFFC00
07DDF000
001C0000
001C0000
001C0000
001C0000
001C0000
001C0000
001C0000
ENDCHAR
STARTCHAR 0445
ENCODING 1093
SWIDTH 600 0
DWIDTH 20 0
BBX 18 18 1 0
BITMAP
F003C0
780780
3C0F00
1E0E00
0E1C00
0F3C00
07F800
03F000
01E000
01E000
03F000
07F800
0F3C00
0E1C00
1C1E00
3C0F00
780780
F003C0
ENDCHAR
STARTCHAR 0446
ENCODING 1094
SWIDTH 630 0
DWIDTH 21 0
BBX 17 22 3 -4
BITMAP
E00E00
E00E00
E00E00
E00E00
E00E00
E00E00
E00E00
E00E00
E00E00
E00E00
E00E00
E00E00
E00E00
E00E00
E00E00
FFFF80
FFFF80
FFFF80
000380
000380
000380
000380
ENDCHAR
STARTCHAR 0447
ENCODING 1095
SWIDTH 600 0
DWIDTH 20 0
BBX 15 18 2 0
BITMAP
E00E
E00E
E00E
E00E
E00E
E00E
E00E
E00E
F01E
7FFE
7FFE
1FCE
000E
000E
000E
000E
000E
000E
ENDCHAR
STARTCHAR 0448
ENCODING 1096
SWIDTH 870 0
DWIDTH 29 0
BBX 23 18 3 0
BITMAP
E0380E
E0380E
E0380E
E0380E
E0380E
E0380E
E0380E
E0380E
E0380E
E0380E
E0380E
E0380E
E0380E
E0380E
E0380E
FFFFFE
FFFFFE
FFFFFE
ENDCHAR
STARTCHAR 0449
ENCODING 1097
SWIDTH 870 0
DWIDTH 29 0
BBX 25 22 3 -4
BITMAP
E0380E00
E0380E00
E0380E00
E0380E00
E0380E00
E0380E00
E0380E00
E0380E00
E0380E00
E0380E00
E0380E00
E0380E00
E0380E00
E0380E00
E0380E00
FFFFFF80
FFFFFF80
FFFFFF80
00000380
00000380
00000380
00000380
ENDCHAR
STARTCHAR 044A
ENCODING 1098
SWIDTH 630 0
DWIDTH 21 0
BBX 19 18 0 0
BITMAP
FF0000
FF0000
FF0000
070000
070000
070000
070000
07FF00
07FF80
07FFC0
0701E0
0700E0
0700E0
0700E0
0701E0
07FFC0
07FF80
07FE00
ENDCHAR
STARTCHAR 044B
ENCODING 1099
SWIDTH 780 0
DWIDTH 26 0
BBX 20 18 3 0
BITMAP
E00070
E00070
E00070
E00070
E00070
E00070
E00070
FFE070
FFF070
FFF870
E03C70
E01C70
E01C70
E01C70
E03C70
FFF870
FFF070
FFC070
ENDCHAR
STARTCHAR 044C
ENCODING 1100
SWIDTH 570 0
DWIDTH 19 0
BBX 14 18 3 0
BITMAP
E000
E000
E000
E000
E000
E000
E000
FFE0
FFF0
FFF8
E03C
E01C
E01C
E01C
E03C
FFF8
FFF0
FFC0
ENDCHAR
STARTCHAR 044D
ENCODING 1101
SWIDTH 540 0
DWIDTH 18 0
BBX 15 19 1 0
BITMAP
1F80
FFF0
FFF8
E078
803C
001C
000E
000E
1FFE
1FFE
1FFE
000E
000E
001C
803C
E078
FFF0
FFE0
3F80
ENDCHAR
STARTCHAR 044E
ENCODING 1102
SWIDTH 840 0
DWIDTH 28 0
BBX 23 19 3 0
BITMAP
000FC0
E03FF0
E07FF8
E0F878
E0E01C
E0E01C
E1C00E
E1C00E
FFC00E
FFC00E
FFC00E
E1C00E
E1C00E
E1E01C
E0E01C
E0F87C
E07FF8
E03FF0
E00FC0
ENDCHAR
STARTCHAR 044F
ENCODING 1103
SWIDTH 600 0
DWIDTH 20 0
BBX 16 18 1 0
BITMAP
07FF
0FFF
1FFF
3C07
3807
3807
3807
3C07
1FFF
0FFF
03FF
0387
0707
0F07
1E07
3C07
7807
F007
ENDCHAR
STARTCHAR 0451
ENCODING 1105
SWIDTH 600 0
DWIDTH 20 0
BBX 16 24 2 0
BITMAP
1C38
1C38
1C38
0000
0000
03E0
0FF8
3FFC
3C1E
780E
7007
E007
E007
FFFF
FFFF
FFFF
E000
E000
7000
7001
3C07
3FFF
0FFF
03F8
ENDCHAR
STARTCHAR 0452
ENCODING 1106
SWIDTH 630 0
DWIDTH 21 0
BBX 18 32 0 -7
BITMAP
1C0000
1C0000
FFE000
FFE000
1C0000
1C0000
1C7E00
1DFF00
1FFF80
1F8780
1E03C0
1C01C0
1C01C0
1C01C0
1C01C0
1C01C0
1C01C0
1C01C0
1C01C0
1C01C0
1C01C0
1C01C0
1C01C0
1C01C0
1C03C0
000380
000380
000780
000F00
00FE00
00FC00
00F000
ENDCHAR
STARTCHAR 0453
ENCODING 1107
SWIDTH 480 0
DWIDTH 16 0
BBX 13 27 3 0
BITMAP
01E0
03C0
0380
0700
0700
0E00
0000
0000
0000
FFF8
FFF8
FFF8
E000
E000
E000
E000
E000
E000
E000
E000
E000
E000
E000
E000
E000
E000
E000
ENDCHAR
STARTCHAR 0454
ENCODING 1108
SWIDTH 540 0
DWIDTH 18 0
BBX 15 19 2 0
BITMAP
03F0
0FFE
1FFE
3C0E
7802
7000
E000
E000
FFF0
FFF0
FFF0
E000
E000
7000
7802
3C0E
3FFE
0FFE
03F8
ENDCHAR
STARTCHAR 0455
ENCODING 1109
SWIDTH 510 0
DWIDTH 17 0
BBX 14 19 2 0
BITMAP
0FE0
3FF8
7FF8
F038
E008
E000
E000
F800
7FC0
3FF0
07F8
007C
001C
001C
801C
F03C
FFF8
FFF0
1FC0
ENDCHAR
STARTCHAR 0456
ENCODING 1110
SWIDTH 270 0
DWIDTH 9 0
BBX 3 24 3 0
BITMAP
E0
E0
E0
00
00
00
E0
E0
E0
E0
E0
E0
E0
E0
E0
E0
E0
E0
E0
E0
E0
E0
E0
E0
ENDCHAR
STARTCHAR 0457
ENCODING 1111
SWIDTH 270 0
DWIDTH 9 0
BBX 9 24 0 0
BITMAP
E380
E380
E380
0000
0000
0000
1C00
1C00
1C00
1C00
1C00
1C00
1C00
1C00
1C00
1C00
1C00
1C00
1C00
1C00
1C00
1C00
1C00
1C00
ENDCHAR
STARTCHAR 0458
ENCODING 1112
SWIDTH 330 0
DWIDTH 11 0
BBX 9 31 -1 -7
BITMAP
0380
0380
0380
0000
0000
0000
3F80
3F80
3F80
0380
0380
0380
0380
0380
0380
0380
0380
0380
0380
0380
0380
0380
0380
0380
0380
0380
0380
8780
FF00
FE00
FC00
ENDCHAR
STARTCHAR 0459
ENCODING 1113
SWIDTH 900 0
DWIDTH 30 0
BBX 28 18 0 0
BITMAP
07FF8000
07FF8000
07FF8000
07038000
07038000
07038000
07038000
0703FF80
0703FFC0
0F03FFE0
0F0380F0
0E038070
0E038070
1E038070
1E0380F0
FC03FFE0
F803FFC0
F003FF00
ENDCHAR
STARTCHAR 045A
ENCODING 1114
SWIDTH 900 0
DWIDTH 30 0
BBX 25 18 3 0
BITMAP
E01C0000
E01C0000
E01C0000
E01C0000
E01C0000
E01C0000
E01C0000
FFFFFC00
FFFFFE00
FFFFFF00
E01C0780
E01C0380
E01C0380
E01C0380
E01C0780
E01FFF00
E01FFE00
E01FF800
ENDCHAR
STARTCHAR 045B
ENCODING 1115
SWIDTH 630 0
DWIDTH 21 0
BBX 18 25 0 0
BITMAP
1C0000
1C0000
FFE000
FFE000
1C0000
1C0000
1C7E00
1DFF00
1FFF80
1F8780
1E03C0
1C01C0
1C01C0
1C01C0
1C01C0
1C01C0
1C01C0
1C01C0
1C01C0
1C01C0
1C01C0
1C01C0
1C01C0
1C01C0
1C01C0
ENDCHAR
STARTCHAR 045C
ENCODING 1116
SWIDTH 600 0
DWIDTH 20 0
BBX 17 27 3 0
BITMAP
007800
00F000
00E000
01C000
01C000
038000
000000
000000
000000
E01F00
E03F00
E07F00
E0F000
E0E000
E1E000
E1C000
E7C000
FF8000
FF0000
FF8000
E3C000
E1E000
E0F000
E07800
E03C00
E01E00
E00F80
ENDCHAR
STARTCHAR 045E
ENCODING 1118
SWIDTH 600 0
DWIDTH 20 0
BBX 18 32 1 -7
BITMAP
1C0E00
1C0E00
0E1C00
0FFC00
03F000
000000
000000
E001C0
700380
700380
780780
380700
3C0F00
1C0E00
1C0E00
0E1C00
0E1C00
0F3C00
073800
07F800
03F000
03F000
01E000
01E000
01C000
01C000
03C000
038000
078000
070000
070000
0E0000
ENDCHAR
STARTCHAR 045F
ENCODING 1119
SWIDTH 630 0
DWIDTH 21 0
BBX 15 22 3 -4
BITMAP
E00E
E00E
E00E
E00E
E00E
E00E
E00E
E00E
E00E
E00E
E00E
E00E
E00E
E00E
E00E
FFFE
FFFE
FFFE
0380
0380
0380
0380
ENDCHAR
STARTCHAR 0490
ENCODING 1168
SWIDTH 570 0
DWIDTH 19 0
BBX 16 31 3 0
BITMAP
0007
0007
0007
0007
0007
0007
0007
FFFF
FFFF
FFFF
E000
E000
E000
E000
E000
E000
E000
E000
E000
E000
E000
E000
E000
E000
E000
E000
E000
E000
E000
E000
E000
ENDCHAR
STARTCHAR 0491
ENCODING 1169
SWIDTH 480 0
DWIDTH 16 0
BBX 13 24 3 0
BITMAP
0038
0038
0038
0038
0038
0038
FFF8
FFF8
FFF8
E000
E000
E000
E000
E000
E000
E000
E000
E000
E000
E000
E000
E000
E000
E000
ENDCHAR
STARTCHAR 1E80
ENCODING 7808
SWIDTH 990 0
DWIDTH 33 0
BBX 31 33 1 0
BITMAP
003C0000
001E0000
000E0000
00070000
00070000
00038000
00000000
00000000
00000000
E003800E
F007C01E
7007C01C
7007C01C
7006C01C
380EE03C
380EE038
380EE038
380C6038
1C1C7070
1C1C7070
1C1C7070
1E183870
0E3838E0
0E3838E0
0E3838E0
07301DE0
07701DC0
07701DC0
07F00DC0
03E00F80
03E00F80
03E00F80
03C00780
ENDCHAR
STARTCHAR 1E81
ENCODING 7809
SWIDTH 810 0
DWIDTH 27 0
BBX 25 27 1 0
BITMAP
01E00000
00F00000
00700000
00380000
00380000
001C0000
00000000
00000000
00000000
E01C0380
F01C0380
703E0700
703E0700
70360700
78770700
38770E00
38630E00
38E38E00
1CE38C00
1CC19C00
1DC1DC00
1DC1DC00
0F80D800
0F80F800
0F80F800
0F007800
07007000
ENDCHAR
STARTCHAR 1E82
ENCODING 7810
SWIDTH 990 0
DWIDTH 33 0
BBX 31 33 1 0
BITMAP
00007800
0000F000
0000E000
0001C000
0001C000
00038000
00000000
00000000
00000000
E003800E
F007C01E
7007C01C
7007C01C
7006C01C
380EE03C
380EE038
380EE038
380C6038
1C1C7070
1C1C7070
1C1C7070
1E183870
0E3838E0
0E3838E0
0E3838E0
07301DE0
07701DC0
07701DC0
07F00DC0
03E00F80
03E00F80
03E00F80
03C00780
ENDCHAR
STARTCHAR 1E83
ENCODING 7811
SWIDTH 810 0
DWIDTH 27 0
BBX 25 27 1 0
BITMAP
0003C000
00078000
00070000
000E0000
000E0000
001C0000
00000000
00000000
00000000
E01C0380
F01C0380
703E0700
703E0700
70360700
78770700
38770E00
38630E00
38E38E00
1CE38C00
1CC19C00
1DC1DC00
1DC1DC00
0F80D800
0F80F800
0F80F800
0F007800
07007000
ENDCHAR
STARTCHAR 1E84
ENCODING 7812
SWIDTH 990 0
DWIDTH 33 0
BBX 31 30 1 0
BITMAP
001C3800
001C3800
001C3800
00000000
00000000
00000000
E003800E
F007C01E
7007C01C
7007C01C
7006C01C
380EE03C
380EE038
380EE038
380C6038
1C1C7070
1C1C7070
1C1C7070
1E183870
0E3838E0
0E3838E0
0E3838E0
07301DE0
07701DC0
07701DC0
07F00DC0
03E00F80
03E00F80
03E00F80
03C00780
ENDCHAR
STARTCHAR 1E85
ENCODING 7813
SWIDTH 810 0
DWIDTH 27 0
BBX 25 24 1 0
BITMAP
00E1C000
00E1C000
00E1C000
00000000
00000000
00000000
E01C0380
F01C0380
703E0700
703E0700
70360700
78770700
38770E00
38630E00
38E38E00
1CE38C00
1CC19C00
1DC1DC00
1DC1DC00
0F80D800
0F80F800
0F80F800
0F007800
07007000
ENDCHAR
STARTCHAR 1EA0
ENCODING 7840
SWIDTH 690 0
DWIDTH 23 0
BBX 23 30 0 -6
BITMAP
007C00
007C00
00EE00
00EE00
01EE00
01C700
01C700
038380
038380
038380
0701C0
0701C0
0F01E0
0E00E0
0E00E0
1FFFF0
1FFFF0
3FFFF0
380038
380038
78003C
70001C
70001C
E0000E
000000
000000
000000
003800
003800
003800
ENDCHAR
STARTCHAR 1EA1
ENCODING 7841
SWIDTH 600 0
DWIDTH 20 0
BBX 15 25 2 -6
BITMAP
1FE0
3FF8
3FFC
303E
001E
000E
000E
03FE
1FFE
3FFE
7E0E
F00E
E00E
E00E
E00E
F03E
7FFE
3FEE
1F8E
0000
0000
0000
0380
0380
0380
ENDCHAR
STARTCHAR 1EA2
ENCODING 7842
SWIDTH 690 0
DWIDTH 23 0
BBX 23 33 0 0
BITMAP
007800
007C00
000C00
000C00
003800
003000
000000
000000
000000
007C00
007C00
00EE00
00EE00
01EE00
01C700
01C700
038380
038380
038380
0701C0
0701C0
0F01E0
0E00E0
0E00E0
1FFFF0
1FFFF0
3FFFF0
380038
380038
78003C
70001C
70001C
E0000E
ENDCHAR
STARTCHAR 1EA3
ENCODING 7843
SWIDTH 600 0
DWIDTH 20 0
BBX 15 27 2 0
BITMAP
03C0
03E0
0060
0060
01C0
0180
0000
0000
1FE0
3FF8
3FFC
303E
001E
000E
000E
03FE
1FFE
3FFE
7E0E
F00E
E00E
E00E
E00E
F03E
7FFE
3FEE
1F8E
ENDCHAR
STARTCHAR 1EA4
ENCODING 7844
SWIDTH 690 0
DWIDTH 23 0
BBX 23 33 0 0
BITMAP
007C3C
007C78
00EE70
00C6E0
01C700
038380
000000
000000
000000
007C00
007C00
00EE00
00EE00
01EE00
01C700
01C700
038380
038380
038380
0701C0
0701C0
0F01E0
0E00E0
0E00E0
1FFFF0
1FFFF0
3FFFF0
380038
380038
78003C
70001C
70001C
E0000E
ENDCHAR
STARTCHAR 1EA5
ENCODING 7845
SWIDTH 600 0
DWIDTH 20 0
BBX 19 27 2 0
BITMAP
03E1E0
03E3C0
077380
063700
0E3800
1C1C00
000000
000000
1FE000
3FF800
3FFC00
303E00
001E00
000E00
000E00
03FE00
1FFE00
3FFE00
7E0E00
F00E00
E00E00
E00E00
E00E00
F03E00
7FFE00
3FEE00
1F8E00
ENDCHAR
STARTCHAR 1EA6
ENCODING 7846
SWIDTH 690 0
DWIDTH 23 0
BBX 23 33 0 0
BITMAP
787C00
3C7C00
1CEE00
0EC600
01C700
038380
000000
000000
000000
007C00
007C00
00EE00
00EE00
01EE00
01C700
01C700
038380
038380
038380
0701C0
0701C0
0F01E0
0E00E0
0E00E0
1FFFF0
1FFFF0
3FFFF0
380038
380038
78003C
70001C
70001C
E0000E
ENDCHAR
STARTCHAR 1EA7
ENCODING 7847
SWIDTH 600 0
DWIDTH 20 0
BBX 17 27 0 0
BITMAP
F0F800
78F800
39DC00
1D8C00
038E00
070700
000000
000000
07F800
0FFE00
0FFF00
0C0F80
000780
000380
000380
00FF80
07FF80
0FFF80
1F8380
3C0380
380380
380380
380380
3C0F80
1FFF80
0FFB80
07E380
ENDCHAR
STARTCHAR 1EA8
ENCODING 7848
SWIDTH 690 0
DWIDTH 23 0
BBX 23 33 0 0
BITMAP
000078
00007C
007C0C
007C0C
00EE38
01C730
038380
000000
000000
007C00
007C00
00EE00
00EE00
01EE00
01C700
01C700
038380
038380
038380
0701C0
0701C0
0F01E0
0E00E0
0E00E0
1FFFF0
1FFFF0
3FFFF0
380038
380038
78003C
70001C
70001C
E0000E
ENDCHAR
STARTCHAR 1EA9
ENCODING 7849
SWIDTH 600 0
DWIDTH 20 0
BBX 18 30 2 0
BITMAP
000780
0007C0
0000C0
03E0C0
03E380
077300
063000
0E3800
1C1C00
000000
000000
1FE000
3FF800
3FFC00
303E00
001E00
000E00
000E00
03FE00
1FFE00
3FFE00
7E0E00
F00E00
E00E00
E00E00
E00E00
F03E00
7FFE00
3FEE00
1F8E00
ENDCHAR
STARTCHAR 1EAA
ENCODING 7850
SWIDTH 690 0
DWIDTH 23 0
BBX 23 33 0 0
BITMAP
00F180
01FF00
031E00
000000
007C00
00EE00
01C700
000000
000000
007C00
007C00
00EE00
00EE00
01EE00
01C700
01C700
038380
038380
038380
0701C0
0701C0
0F01E0
0E00E0
0E00E0
1FFFF0
1FFFF0
3FFFF0
380038
380038
78003C
70001C
70001C
E0000E
ENDCHAR
STARTCHAR 1EAB
ENCODING 7851
SWIDTH 600 0
DWIDTH 20 0
BBX 15 33 2 0
BITMAP
070C
0F8C
19CC
18F8
1870
0000
03E0
03E0
0770
0630
0E38
1C1C
0000
0000
1FE0
3FF8
3FFC
303E
001E
000E
000E
03FE
1FFE
3FFE
7E0E
F00E
E00E
E00E
E00E
F03E
7FFE
3FEE
1F8E
ENDCHAR
STARTCHAR 1EAC
ENCODING 7852
SWIDTH 690 0
DWIDTH 23 0
BBX 23 39 0 -6
BITMAP
007C00
007C00
00EE00
00C600
01C700
038380
000000
000000
000000
007C00
007C00
00EE00
00EE00
01EE00
01C700
01C700
038380
038380
038380
0701C0
0701C0
0F01E0
0E00E0
0E00E0
1FFFF0
1FFFF0
3FFFF0
380038
380038
78003C
70001C
70001C
E0000E
000000
000000
000000
003800
003800
003800
ENDCHAR
STARTCHAR 1EAD
ENCODING 7853
SWIDTH 600 0
DWIDTH 20 0
BBX 15 33 2 -6
BITMAP
03E0
03E0
0770
0630
0E38
1C1C
0000
0000
1FE0
3FF8
3FFC
303E
001E
000E
000E
03FE
1FFE
3FFE
7E0E
F00E
E00E
E00E
E00E
F03E
7FFE
3FEE
1F8E
0000
0000
0000
0380
0380
0380
ENDCHAR
STARTCHAR 1EAE
ENCODING 7854
SWIDTH 690 0
DWIDTH 23 0
BBX 23 33 0 0
BITMAP
001E00
001C00
003000
038380
03C780
01FF00
007C00
000000
000000
007C00
007C00
00EE00
00EE00
01EE00
01C700
01C700
038380
038380
038380
0701C0
0701C0
0F01E0
0E00E0
0E00E0
1FFFF0
1FFFF0
3FFFF0
380038
380038
78003C
70001C
70001C
E0000E
ENDCHAR
STARTCHAR 1EAF
ENCODING 7855
SWIDTH 600 0
DWIDTH 20 0
BBX 15 29 2 0
BITMAP
0078
00F0
00E0
1DDC
1C1C
1C1C
0E38
07F0
03E0
0000
1FE0
3FF8
3FFC
303E
001E
000E
000E
03FE
1FFE
3FFE
7E0E
F00E
E00E
E00E
E00E
F03E
7FFE
3FEE
1F8E
ENDCHAR
STARTCHAR 1EB0
ENCODING 7856
SWIDTH 690 0
DWIDTH 23 0
BBX 23 33 0 0
BITMAP
00F000
003000
001800
038380
03C780
01FF00
007C00
000000
000000
007C00
007C00
00EE00
00EE00
01EE00
01C700
01C700
038380
038380
038380
0701C0
0701C0
0F01E0
0E00E0
0E00E0
1FFFF0
1FFFF0
3FFFF0
380038
380038
78003C
70001C
70001C
E0000E
ENDCHAR
STARTCHAR 1EB1
ENCODING 7857
SWIDTH 600 0
DWIDTH 20 0
BBX 15 29 2 0
BITMAP
0F00
0780
0380
1DDC
1C1C
1C1C
0E38
07F0
03E0
0000
1FE0
3FF8
3FFC
303E
001E
000E
000E
03FE
1FFE
3FFE
7E0E
F00E
E00E
E00E
E00E
F03E
7FFE
3FEE
1F8E
ENDCHAR
STARTCHAR 1EB2
ENCODING 7858
SWIDTH 690 0
DWIDTH 23 0
BBX 23 33 0 0
BITMAP
003800
000C00
000C00
039B80
03C780
01FF00
007C00
000000
000000
007C00
007C00
00EE00
00EE00
01EE00
01C700
01C700
038380
038380
038380
0701C0
0701C0
0F01E0
0E00E0
0E00E0
1FFFF0
1FFFF0
3FFFF0
380038
380038
78003C
70001C
70001C
E0000E
ENDCHAR
STARTCHAR 1EB3
ENCODING 7859
SWIDTH 600 0
DWIDTH 20 0
BBX 15 29 2 0
BITMAP
01C0
0060
0060
1CDC
1C9C
1C1C
0E38
07F0
03E0
0000
1FE0
3FF8
3FFC
303E
001E
000E
000E
03FE
1FFE
3FFE
7E0E
F00E
E00E
E00E
E00E
F03E
7FFE
3FEE
1F8E
ENDCHAR
STARTCHAR 1EB4
ENCODING 7860
SWIDTH 690 0
DWIDTH 23 0
BBX 23 33 0 0
BITMAP
00F180
01FF00
031E00
000000
038380
01FF00
00FE00
000000
000000
007C00
007C00
00EE00
00EE00
01EE00
01C700
01C700
038380
038380
038380
0701C0
0701C0
0F01E0
0E00E0
0E00E0
1FFFF0
1FFFF0
3FFFF0
380038
380038
78003C
70001C
70001C
E0000E
ENDCHAR
STARTCHAR 1EB5
ENCODING 7861
SWIDTH 600 0
DWIDTH 20 0
BBX 15 33 2 0
BITMAP
070C
0F8C
19CC
18F8
1870
0000
0000
1C1C
1C1C
1C1C
0E38
07F0
03E0
0000
1FE0
3FF8
3FFC
303E
001E
000E
000E
03FE
1FFE
3FFE
7E0E
F00E
E00E
E00E
E00E
F03E
7FFE
3FEE
1F8E
ENDCHAR
STARTCHAR 1EB6
ENCODING 7862
SWIDTH 690 0
DWIDTH 23 0
BBX 23 39 0 -6
BITMAP
0381C0
0381C0
01C380
01C380
00FF00
007E00
000000
000000
000000
007C00
007C00
00EE00
00EE00
01EE00
01C700
01C700
038380
038380
038380
0701C0
0701C0
0F01E0
0E00E0
0E00E0
1FFFF0
1FFFF0
3FFFF0
380038
380038
78003C
70001C
70001C
E0000E
000000
000000
000000
003800
003800
003800
ENDCHAR
STARTCHAR 1EB7
ENCODING 7863
SWIDTH 600 0
DWIDTH 20 0
BBX 15 33 2 -6
BITMAP
381C
381C
1C38
1C38
0FF0
07E0
0000
0000
1FE0
3FF8
3FFC
303E
001E
000E
000E
03FE
1FFE
3FFE
7E0E
F00E
E00E
E00E
E00E
F03E
7FFE
3FEE
1F8E
0000
0000
0000
0380
0380
0380
ENDCHAR
STARTCHAR 1EB8
ENCODING 7864
SWIDTH 630 0
DWIDTH 21 0
BBX 16 30 3 -6
BITMAP
FFFF
FFFF
FFFF
E000
E000
E000
E000
E000
E000
FFFF
FFFF
FFFF
E000
E000
E000
E000
E000
E000
E000
E000
E000
FFFF
FFFF
FFFF
0000
0000
0000
01C0
01C0
01C0
ENDCHAR
STARTCHAR 1EB9
ENCODING 7865
SWIDTH 600 0
DWIDTH 20 0
BBX 16 25 2 -6
BITMAP
03E0
0FF8
3FFC
3C1E
780E
7007
E007
E007
FFFF
FFFF
FFFF
E000
E000
7000
7001
3C07
3FFF
0FFF
03F8
0000
0000
0000
01C0
01C0
01C0
ENDCHAR
STARTCHAR 1EBA
ENCODING 7866
SWIDTH 630 0
DWIDTH 21 0
BBX 16 33 3 0
BITMAP
03C0
03E0
0060
0060
01C0
0180
0000
0000
0000
FFFF
FFFF
FFFF
E000
E000
E000
E000
E000
E000
FFFF
FFFF
FFFF
E000
E000
E000
E000
E000
E000
E000
E000
E000
FFFF
FFFF
FFFF
ENDCHAR
STARTCHAR 1EBB
ENCODING 7867
SWIDTH 600 0
DWIDTH 20 0
BBX 16 27 2 0
BITMAP
01E0
01F0
0030
0030
00E0
00C0
0000
0000
03E0
0FF8
3FFC
3C1E
780E
7007
E007
E007
FFFF
FFFF
FFFF
E000
E000
7000
7001
3C07
3FFF
0FFF
03F8
ENDCHAR
STARTCHAR 1EBC
ENCODING 7868
SWIDTH 630 0
DWIDTH 21 0
BBX 16 32 3 0
BITMAP
0F06
1F86
39CC
30FC
3078
0000
0000
0000
FFFF
FFFF
FFFF
E000
E000
E000
E000
E000
E000
FFFF
FFFF
FFFF
E000
E000
E000
E000
E000
E000
E000
E000
E000
FFFF
FFFF
FFFF
ENDCHAR
STARTCHAR 1EBD
ENCODING 7869
SWIDTH 600 0
DWIDTH 20 0
BBX 16 26 2 0
BITMAP
0F06
1F86
39CC
30FC
3078
0000
0000
03E0
0FF8
3FFC
3C1E
780E
7007
E007
E007
FFFF
FFFF
FFFF
E000
E000
7000
7001
3C07
3FFF
0FFF
03F8
ENDCHAR
STARTCHAR 1EBE
ENCODING 7870
SWIDTH 630 0
DWIDTH 21 0
BBX 19 33 3 0
BITMAP
03E1E0
03E3C0
077380
063700
0E3800
1C1C00
000000
000000
000000
FFFF00
FFFF00
FFFF00
E00000
E00000
E00000
E00000
E00000
E00000
FFFF00
FFFF00
FFFF00
E00000
E00000
E00000
E00000
E00000
E00000
E00000
E00000
E00000
FFFF00
FFFF00
FFFF00
ENDCHAR
STARTCHAR 1EBF
ENCODING 7871
SWIDTH 600 0
DWIDTH 20 0
BBX 19 27 2 0
BITMAP
03E1E0
03E3C0
077380
063700
0E3800
1C1C00
000000
000000
03E000
0FF800
3FFC00
3C1E00
780E00
700700
E00700
E00700
FFFF00
FFFF00
FFFF00
E00000
E00000
700000
700100
3C0700
3FFF00
0FFF00
03F800
ENDCHAR
STARTCHAR 1EC0
ENCODING 7872
SWIDTH 630 0
DWIDTH 21 0
BBX 18 33 1 0
BITMAP
F0F800
78F800
39DC00
1D8C00
038E00
070700
000000
000000
000000
3FFFC0
3FFFC0
3FFFC0
380000
380000
380000
380000
380000
380000
3FFFC0
3FFFC0
3FFFC0
380000
380000
380000
380000
380000
380000
380000
380000
380000
3FFFC0
3FFFC0
3FFFC0
ENDCHAR
STARTCHAR 1EC1
ENCODING 7873
SWIDTH 600 0
DWIDTH 20 0
BBX 18 27 0 0
BITMAP
F0F800
78F800
39DC00
1D8C00
038E00
070700
000000
000000
00F800
03FE00
0FFF00
0F0780
1E0380
1C01C0
3801C0
3801C0
3FFFC0
3FFFC0
3FFFC0
380000
380000
1C0000
1C0040
0F01C0
0FFFC0
03FFC0
00FE00
ENDCHAR
STARTCHAR 1EC2
ENCODING 7874
SWIDTH 630 0
DWIDTH 21 0
BBX 19 33 3 0
BITMAP
0003C0
0003E0
03E060
03E060
0771C0
0E3980
1C1C00
000000
000000
FFFF00
FFFF00
FFFF00
E00000
E00000
E00000
E00000
E00000
E00000
FFFF00
FFFF00
FFFF00
E00000
E00000
E00000
E00000
E00000
E00000
E00000
E00000
E00000
FFFF00
FFFF00
FFFF00
ENDCHAR
STARTCHAR 1EC3
ENCODING 7875
SWIDTH 600 0
DWIDTH 20 0
BBX 18 30 2 0
BITMAP
000780
0007C0
0000C0
03E0C0
03E380
077300
063000
0E3800
1C1C00
000000
000000
03E000
0FF800
3FFC00
3C1E00
780E00
700700
E00700
E00700
FFFF00
FFFF00
FFFF00
E00000
E00000
700000
700100
3C0700
3FFF00
0FFF00
03F800
ENDCHAR
STARTCHAR 1EC4
ENCODING 7876
SWIDTH 630 0
DWIDTH 21 0
BBX 16 33 3 0
BITMAP
078C
0FF8
18F0
0000
03E0
0770
0E38
0000
0000
FFFF
FFFF
FFFF
E000
E000
E000
E000
E000
E000
FFFF
FFFF
FFFF
E000
E000
E000
E000
E000
E000
E000
E000
E000
FFFF
FFFF
FFFF
ENDCHAR
STARTCHAR 1EC5
ENCODING 7877
SWIDTH 600 0
DWIDTH 20 0
BBX 16 33 2 0
BITMAP
070C
0F8C
19CC
18F8
1870
0000
03E0
03E0
0770
0630
0E38
1C1C
0000
0000
03E0
0FF8
3FFC
3C1E
780E
7007
E007
E007
FFFF
FFFF
FFFF
E000
E000
7000
7001
3C07
3FFF
0FFF
03F8
ENDCHAR
STARTCHAR 1EC6
ENCODING 7878
SWIDTH 630 0
DWIDTH 21 0
BBX 16 39 3 -6
BITMAP
03E0
03E0
0770
0630
0E38
1C1C
0000
0000
0000
FFFF
FFFF
FFFF
E000
E000
E000
E000
E000
E000
FFFF
FFFF
FFFF
E000
E000
E000
E000
E000
E000
E000
E000
E000
FFFF
FFFF
FFFF
0000
0000
0000
01C0
01C0
01C0
ENDCHAR
STARTCHAR 1EC7
ENCODING 7879
SWIDTH 600 0
DWIDTH 20 0
BBX 16 33 2 -6
BITMAP
03E0
03E0
0770
0630
0E38
1C1C
0000
0000
03E0
0FF8
3FFC
3C1E
780E
7007
E007
E007
FFFF
FFFF
FFFF
E000
E000
7000
7001
3C07
3FFF
0FFF
03F8
0000
0000
0000
01C0
01C0
01C0
ENDCHAR
STARTCHAR 1EC8
ENCODING 7880
SWIDTH 390 0
DWIDTH 13 0
BBX 9 33 2 0
BITMAP
1E00
1F00
0300
0300
0E00
0C00
0000
0000
0000
FF80
FF80
FF80
1C00
1C00
1C00
1C00
1C00
1C00
1C00
1C00
1C00
1C00
1C00
1C00
1C00
1C00
1C00
1C00
1C00
1C00
FF80
FF80
FF80
ENDCHAR
STARTCHAR 1EC9
ENCODING 7881
SWIDTH 270 0
DWIDTH 9 0
BBX 5 27 3 0
BITMAP
F0
F8
18
18
70
60
00
00
00
E0
E0
E0
E0
E0
E0
E0
E0
E0
E0
E0
E0
E0
E0
E0
E0
E0
E0
ENDCHAR
STARTCHAR 1ECA
ENCODING 7882
SWIDTH 390 0
DWIDTH 13 0
BBX 9 30 2 -6
BITMAP
FF80
FF80
FF80
1C00
1C00
1C00
1C00
1C00
1C00
1C00
1C00
1C00
1C00
1C00
1C00
1C00
1C00
1C00
1C00
1C00
1C00
FF80
FF80
FF80
0000
0000
0000
1C00
1C00
1C00
ENDCHAR
STARTCHAR 1ECB
ENCODING 7883
SWIDTH 270 0
DWIDTH 9 0
BBX 3 30 3 -6
BITMAP
E0
E0
E0
00
00
00
E0
E0
E0
E0
E0
E0
E0
E0
E0
E0
E0
E0
E0
E0
E0
E0
E0
E0
00
00
00
E0
E0
E0
ENDCHAR
STARTCHAR 1ECC
ENCODING 7884
SWIDTH 780 0
DWIDTH 26 0
BBX 22 31 2 -6
BITMAP
01FE00
07FF80
0FFFC0
1F03E0
3C00F0
780070
700038
700038
F0003C
E0001C
E0001C
E0001C
E0001C
E0001C
E0001C
E0001C
F0003C
700038
700038
780078
3C00F0
1F03E0
0FFFC0
07FF80
01FE00
000000
000000
000000
003800
003800
003800
ENDCHAR
STARTCHAR 1ECD
ENCODING 7885
SWIDTH 600 0
DWIDTH 20 0
BBX 16 25 2 -6
BITMAP
07E0
1FF8
3FFC
7C3C
700E
700E
E007
E007
E007
E007
E007
E007
E007
700E
700E
7C3E
3FFC
1FF8
07E0
0000
0000
0000
01C0
01C0
01C0
ENDCHAR
STARTCHAR 1ECE
ENCODING 7886
SWIDTH 780 0
DWIDTH 26 0
BBX 22 33 2 0
BITMAP
007800
007C00
000C00
000C00
003800
003000
000000
000000
01FE00
07FF80
0FFFC0
1F03E0
3C00F0
780070
700038
700038
F0003C
E0001C
E0001C
E0001C
E0001C
E0001C
E0001C
E0001C
F0003C
700038
700038
780078
3C00F0
1F03E0
0FFFC0
07FF80
01FE00
ENDCHAR
STARTCHAR 1ECF
ENCODING 7887
SWIDTH 600 0
DWIDTH 20 0
BBX 16 27 2 0
BITMAP
03C0
03E0
0060
0060
01C0
0180
0000
0000
07E0
1FF8
3FFC
7C3C
700E
700E
E007
E007
E007
E007
E007
E007
E007
700E
700E
7C3E
3FFC
1FF8
07E0
ENDCHAR
STARTCHAR 1ED0
ENCODING 7888
SWIDTH 780 0
DWIDTH 26 0
BBX 22 33 2 0
BITMAP
007C3C
007C78
00EE70
00C6E0
01C700
038380
000000
000000
01FE00
07FF80
0FFFC0
1F03E0
3C00F0
780070
700038
700038
F0003C
E0001C
E0001C
E0001C
E0001C
E0001C
E0001C
E0001C
F0003C
700038
700038
780078
3C00F0
1F03E0
0FFFC0
07FF80
01FE00
ENDCHAR
STARTCHAR 1ED1
ENCODING 7889
SWIDTH 600 0
DWIDTH 20 0
BBX 19 27 2 0
BITMAP
03E1E0
03E3C0
077380
063700
0E3800
1C1C00
000000
000000
07E000
1FF800
3FFC00
7C3C00
700E00
700E00
E00700
E00700
E00700
E00700
E00700
E00700
E00700
700E00
700E00
7C3E00
3FFC00
1FF800
07E000
ENDCHAR
STARTCHAR 1ED2
ENCODING 7890
SWIDTH 780 0
DWIDTH 26 0
BBX 22 33 2 0
BITMAP
787C00
3C7C00
1CEE00
0EC600
01C700
038380
000000
000000
01FE00
07FF80
0FFFC0
1F03E0
3C00F0
780070
700038
700038
F0003C
E0001C
E0001C
E0001C
E0001C
E0001C
E0001C
E0001C
F0003C
700038
700038
780078
3C00F0
1F03E0
0FFFC0
07FF80
01FE00
ENDCHAR
STARTCHAR 1ED3
ENCODING 7891
SWIDTH 600 0
DWIDTH 20 0
BBX 18 27 0 0
BITMAP
F0F800
78F800
39DC00
1D8C00
038E00
070700
000000
000000
01F800
07FE00
0FFF00
1F0F00
1C0380
1C0380
3801C0
3801C0
3801C0
3801C0
3801C0
3801C0
3801C0
1C0380
1C0380
1F0F80
0FFF00
07FE00
01F800
ENDCHAR
STARTCHAR 1ED4
ENCODING 7892
SWIDTH 780 0
DWIDTH 26 0
BBX 22 33 2 0
BITMAP
000078
00007C
007C0C
007C0C
00EE38
01C730
038380
000000
01FE00
07FF80
0FFFC0
1F03E0
3C00F0
780070
700038
700038
F0003C
E0001C
E0001C
E0001C
E0001C
E0001C
E0001C
E0001C
F0003C
700038
700038
780078
3C00F0
1F03E0
0FFFC0
07FF80
01FE00
ENDCHAR
STARTCHAR 1ED5
ENCODING 7893
SWIDTH 600 0
DWIDTH 20 0
BBX 18 30 2 0
BITMAP
000780
0007C0
0000C0
03E0C0
03E380
077300
063000
0E3800
1C1C00
000000
000000
07E000
1FF800
3FFC00
7C3C00
700E00
700E00
E00700
E00700
E00700
E00700
E00700
E00700
E00700
700E00
700E00
7C3E00
3FFC00
1FF800
07E000
ENDCHAR
STARTCHAR 1ED6
ENCODING 7894
SWIDTH 780 0
DWIDTH 26 0
BBX 22 33 2 0
BITMAP
00F180
01FF00
031E00
000000
007C00
00EE00
01C700
000000
01FE00
07FF80
0FFFC0
1F03E0
3C00F0
780070
700038
700038
F0003C
E0001C
E0001C
E0001C
E0001C
E0001C
E0001C
E0001C
F0003C
700038
700038
780078
3C00F0
1F03E0
0FFFC0
07FF80
01FE00
ENDCHAR
STARTCHAR 1ED7
ENCODING 7895
SWIDTH 600 0
DWIDTH 20 0
BBX 16 33 2 0
BITMAP
070C
0F8C
19CC
18F8
1870
0000
03E0
03E0
0770
0630
0E38
1C1C
0000
0000
07E0
1FF8
3FFC
7C3C
700E
700E
E007
E007
E007
E007
E007
E007
E007
700E
700E
7C3E
3FFC
1FF8
07E0
ENDCHAR
STARTCHAR 1ED8
ENCODING 7896
SWIDTH 780 0
DWIDTH 26 0
BBX 22 39 2 -6
BITMAP
007C00
007C00
00EE00
00C600
01C700
038380
000000
000000
01FE00
07FF80
0FFFC0
1F03E0
3C00F0
780070
700038
700038
F0003C
E0001C
E0001C
E0001C
E0001C
E0001C
E0001C
E0001C
F0003C
700038
700038
780078
3C00F0
1F03E0
0FFFC0
07FF80
01FE00
000000
000000
000000
003800
003800
003800
ENDCHAR
STARTCHAR 1ED9
ENCODING 7897
SWIDTH 600 0
DWIDTH 20 0
BBX 16 33 2 -6
BITMAP
03E0
03E0
0770
0630
0E38
1C1C
0000
0000
07E0
1FF8
3FFC
7C3C
700E
700E
E007
E007
E007
E007
E007
E007
E007
700E
700E
7C3E
3FFC
1FF8
07E0
0000
0000
0000
01C0
01C0
01C0
ENDCHAR
STARTCHAR 1EDA
ENCODING 7898
SWIDTH 810 0
DWIDTH 27 0
BBX 26 33 2 0
BITMAP
000F0000
001E0000
001C0000
00380000
00380000
00700000
00000000
00000000
00FE01C0
07FFC0C0
0FFFE0C0
1F01F0C0
3C0079C0
38003F80
70003F00
70001C00
F0001E00
E0000E00
E0000E00
E0000E00
E0000E00
E0000E00
E0000E00
E0000E00
F0001E00
70001C00
70003C00
78003800
3C007800
1F01F000
0FFFE000
07FFC000
00FE0000
ENDCHAR
STARTCHAR 1EDB
ENCODING 7899
SWIDTH 600 0
DWIDTH 20 0
BBX 17 27 2 0
BITMAP
007800
00F000
00E000
01C000
01C380
038180
000180
000180
07C380
1FFF00
3FFE00
7C3C00
700E00
700E00
E00700
E00700
E00700
E00700
E00700
E00700
E00700
700E00
700E00
7C3E00
3FFC00
1FF800
07E000
ENDCHAR
STARTCHAR 1EDC
ENCODING 7900
SWIDTH 810 0
DWIDTH 27 0
BBX 26 33 2 0
BITMAP
01E00000
00F00000
00700000
00380000
00380000
001C0000
00000000
00000000
00FE01C0
07FFC0C0
0FFFE0C0
1F01F0C0
3C0079C0
38003F80
70003F00
70001C00
F0001E00
E0000E00
E0000E00
E0000E00
E0000E00
E0000E00
E0000E00
E0000E00
F0001E00
70001C00
70003C00
78003800
3C007800
1F01F000
0FFFE000
07FFC000
00FE0000
ENDCHAR
STARTCHAR 1EDD
ENCODING 7901
SWIDTH 600 0
DWIDTH 20 0
BBX 17 27 2 0
BITMAP
0F0000
078000
038000
01C000
01C380
00E180
000180
000180
07C380
1FFF00
3FFE00
7C3C00
700E00
700E00
E00700
E00700
E00700
E00700
E00700
E00700
E00700
700E00
700E00
7C3E00
3FFC00
1FF800
07E000
ENDCHAR
STARTCHAR 1EDE
ENCODING 7902
SWIDTH 810 0
DWIDTH 27 0
BBX 26 33 2 0
BITMAP
00780000
007C0000
000C0000
000C0000
00380000
00300000
00000000
00000000
00FE01C0
07FFC0C0
0FFFE0C0
1F01F0C0
3C0079C0
38003F80
70003F00
70001C00
F0001E00
E0000E00
E0000E00
E0000E00
E0000E00
E0000E00
E0000E00
E0000E00
F0001E00
70001C00
70003C00
78003800
3C007800
1F01F000
0FFFE000
07FFC000
00FE0000
ENDCHAR
STARTCHAR 1EDF
ENCODING 7903
SWIDTH 600 0
DWIDTH 20 0
BBX 17 27 2 0
BITMAP
03C000
03E000
006000
006000
01C380
018180
000180
000180
07C380
1FFF00
3FFE00
7C3C00
700E00
700E00
E00700
E00700
E00700
E00700
E00700
E00700
E00700
700E00
700E00
7C3E00
3FFC00
1FF800
07E000
ENDCHAR
STARTCHAR 1EE0
ENCODING 7904
SWIDTH 810 0
DWIDTH 27 0
BBX 26 32 2 0
BITMAP
01E0C000
03F0C000
07398000
061F8000
060F0000
00000000
00000000
00FE01C0
07FFC0C0
0FFFE0C0
1F01F0C0
3C0079C0
38003F80
70003F00
70001C00
F0001E00
E0000E00
E0000E00
E0000E00
E0000E00
E0000E00
E0000E00
E0000E00
F0001E00
70001C00
70003C00
78003800
3C007800
1F01F000
0FFFE000
07FFC000
00FE0000
ENDCHAR
STARTCHAR 1EE1
ENCODING 7905
SWIDTH 600 0
DWIDTH 20 0
BBX 17 26 2 0
BITMAP
0F0600
1F8600
39CC00
30FF80
307980
000180
000180
07C380
1FFF00
3FFE00
7C3C00
700E00
700E00
E00700
E00700
E00700
E00700
E00700
E00700
E00700
700E00
700E00
7C3E00
3FFC00
1FF800
07E000
ENDCHAR
STARTCHAR 1EE2
ENCODING 7906
SWIDTH 810 0
DWIDTH 27 0
BBX 26 31 2 -6
BITMAP
00FE01C0
07FFC0C0
0FFFE0C0
1F01F0C0
3C0079C0
38003F80
70003F00
70001C00
F0001E00
E0000E00
E0000E00
E0000E00
E0000E00
E0000E00
E0000E00
E0000E00
F0001E00
70001C00
70003C00
78003800
3C007800
1F01F000
0FFFE000
07FFC000
00FE0000
00000000
00000000
00000000
00380000
00380000
00380000
ENDCHAR
STARTCHAR 1EE3
ENCODING 7907
SWIDTH 600 0
DWIDTH 20 0
BBX 17 29 2 -6
BITMAP
000380
000180
000180
000180
07C380
1FFF00
3FFE00
7C3C00
700E00
700E00
E00700
E00700
E00700
E00700
E00700
E00700
E00700
700E00
700E00
7C3E00
3FFC00
1FF800
07E000
000000
000000
000000
01C000
01C000
01C000
ENDCHAR
STARTCHAR 1EE4
ENCODING 7908
SWIDTH 720 0
DWIDTH 24 0
BBX 18 30 3 -6
BITMAP
E001C0
E001C0
E001C0
E001C0
E001C0
E001C0
E001C0
E001C0
E001C0
E001C0
E001C0
E001C0
E001C0
E001C0
E001C0
E001C0
E001C0
E001C0
700380
780780
7C0F80
3FFF00
1FFE00
07F800
000000
000000
000000
00E000
00E000
00E000
ENDCHAR
STARTCHAR 1EE5
ENCODING 7909
SWIDTH 630 0
DWIDTH 21 0
BBX 15 24 3 -6
BITMAP
E00E
E00E
E00E
E00E
E00E
E00E
E00E
E00E
E00E
E00E
E00E
E00E
E00E
F01E
F87E
7FFE
3FEE
1F8E
0000
0000
0000
0380
0380
0380
ENDCHAR
STARTCHAR 1EE6
ENCODING 7910
SWIDTH 720 0
DWIDTH 24 0
BBX 18 33 3 0
BITMAP
01E000
01F000
003000
003000
00E000
00C000
000000
000000
000000
E001C0
E001C0
E001C0
E001C0
E001C0
E001C0
E001C0
E001C0
E001C0
E001C0
E001C0
E001C0
E001C0
E001C0
E001C0
E001C0
E001C0
E001C0
700380
780780
7C0F80
3FFF00
1FFE00
07F800
ENDCHAR
STARTCHAR 1EE7
ENCODING 7911
SWIDTH 630 0
DWIDTH 21 0
BBX 15 27 3 0
BITMAP
03C0
03E0
0060
0060
01C0
0180
0000
0000
0000
E00E
E00E
E00E
E00E
E00E
E00E
E00E
E00E
E00E
E00E
E00E
E00E
E00E
F01E
F87E
7FFE
3FEE
1F8E
ENDCHAR
STARTCHAR 1EE8
ENCODING 7912
SWIDTH 750 0
DWIDTH 25 0
BBX 23 33 3 0
BITMAP
001E00
003C00
003800
007000
00700E
00E006
000006
000006
00000E
E001FC
E001F8
E001C0
E001C0
E001C0
E001C0
E001C0
E001C0
E001C0
E001C0
E001C0
E001C0
E001C0
E001C0
E001C0
E001C0
E001C0
E001C0
700380
780780
7C0F80
3FFF00
1FFE00
07F800
ENDCHAR
STARTCHAR 1EE9
ENCODING 7913
SWIDTH 660 0
DWIDTH 22 0
BBX 20 27 3 0
BITMAP
007800
00F000
00E000
01C000
01C070
038030
000030
000030
000070
E00FE0
E00FC0
E00E00
E00E00
E00E00
E00E00
E00E00
E00E00
E00E00
E00E00
E00E00
E00E00
E00E00
F01E00
F87E00
7FFE00
3FEE00
1F8E00
ENDCHAR
STARTCHAR 1EEA
ENCODING 7914
SWIDTH 750 0
DWIDTH 25 0
BBX 23 33 3 0
BITMAP
078000
03C000
01C000
00E000
00E00E
007006
000006
000006
00000E
E001FC
E001F8
E001C0
E001C0
E001C0
E001C0
E001C0
E001C0
E001C0
E001C0
E001C0
E001C0
E001C0
E001C0
E001C0
E001C0
E001C0
E001C0
700380
780780
7C0F80
3FFF00
1FFE00
07F800
ENDCHAR
STARTCHAR 1EEB
ENCODING 7915
SWIDTH 660 0
DWIDTH 22 0
BBX 20 27 3 0
BITMAP
1E0000
0F0000
070000
038000
038070
01C030
000030
000030
000070
E00FE0
E00FC0
E00E00
E00E00
E00E00
E00E00
E00E00
E00E00
E00E00
E00E00
E00E00
E00E00
E00E00
F01E00
F87E00
7FFE00
3FEE00
1F8E00
ENDCHAR
STARTCHAR 1EEC
ENCODING 7916
SWIDTH 750 0
DWIDTH 25 0
BBX 23 33 3 0
BITMAP
01E000
01F000
003000
003000
00E00E
00C006
000006
000006
00000E
E001FC
E001F8
E001C0
E001C0
E001C0
E001C0
E001C0
E001C0
E001C0
E001C0
E001C0
E001C0
E001C0
E001C0
E001C0
E001C0
E001C0
E001C0
700380
780780
7C0F80
3FFF00
1FFE00
07F800
ENDCHAR
STARTCHAR 1EED
ENCODING 7917
SWIDTH 660 0
DWIDTH 22 0
BBX 20 27 3 0
BITMAP
03C000
03E000
006000
006000
01C070
018030
000030
000030
000070
E00FE0
E00FC0
E00E00
E00E00
E00E00
E00E00
E00E00
E00E00
E00E00
E00E00
E00E00
E00E00
E00E00
F01E00
F87E00
7FFE00
3FEE00
1F8E00
ENDCHAR
STARTCHAR 1EEE
ENCODING 7918
SWIDTH 750 0
DWIDTH 25 0
BBX 23 32 3 0
BITMAP
078300
0FC300
1CE600
187E0E
183C06
000006
000006
00000E
E001FC
E001F8
E001C0
E001C0
E001C0
E001C0
E001C0
E001C0
E001C0
E001C0
E001C0
E001C0
E001C0
E001C0
E001C0
E001C0
E001C0
E001C0
700380
780780
7C0F80
3FFF00
1FFE00
07F800
ENDCHAR
STARTCHAR 1EEF
ENCODING 7919
SWIDTH 660 0
DWIDTH 22 0
BBX 20 26 3 0
BITMAP
1E0C00
3F0C00
739800
61F870
60F030
000030
000030
000070
E00FE0
E00FC0
E00E00
E00E00
E00E00
E00E00
E00E00
E00E00
E00E00
E00E00
E00E00
E00E00
E00E00
F01E00
F87E00
7FFE00
3FEE00
1F8E00
ENDCHAR
STARTCHAR 1EF0
ENCODING 7920
SWIDTH 750 0
DWIDTH 25 0
BBX 23 35 3 -6
BITMAP
00000E
000006
000006
000006
00000E
E001FC
E001F8
E001C0
E001C0
E001C0
E001C0
E001C0
E001C0
E001C0
E001C0
E001C0
E001C0
E001C0
E001C0
E001C0
E001C0
E001C0
E001C0
700380
780780
7C0F80
3FFF00
1FFE00
07F800
000000
000000
000000
00E000
00E000
00E000
ENDCHAR
STARTCHAR 1EF1
ENCODING 7921
SWIDTH 660 0
DWIDTH 22 0
BBX 20 29 3 -6
BITMAP
000070
000030
000030
000030
000070
E00FE0
E00FC0
E00E00
E00E00
E00E00
E00E00
E00E00
E00E00
E00E00
E00E00
E00E00
E00E00
E00E00
F01E00
F87E00
7FFE00
3FEE00
1F8E00
000000
000000
000000
038000
038000
038000
ENDCHAR
STARTCHAR 1EF2
ENCODING 7922
SWIDTH 600 0
DWIDTH 20 0
BBX 21 33 0 0
BITMAP
03C000
01E000
00E000
007000
007000
003800
000000
000000
000000
F00078
7800F0
3800E0
3C01E0
1C03C0
0E0380
0F0780
070700
038E00
03DE00
01DC00
01F800
00F800
007000
007000
007000
007000
007000
007000
007000
007000
007000
007000
007000
ENDCHAR
STARTCHAR 1EF3
ENCODING 7923
SWIDTH 600 0
DWIDTH 20 0
BBX 18 34 1 -7
BITMAP
078000
03C000
01C000
00E000
00E000
007000
000000
000000
000000
E001C0
700380
700380
780780
380700
3C0F00
1C0E00
1C0E00
0E1C00
0E1C00
0F3C00
073800
07F800
03F000
03F000
01E000
01E000
01C000
01C000
03C000
038000
078000
070000
070000
0E0000
ENDCHAR
STARTCHAR 1EF4
ENCODING 7924
SWIDTH 600 0
DWIDTH 20 0
BBX 21 30 0 -6
BITMAP
F00078
7800F0
3800E0
3C01E0
1C03C0
0E0380
0F0780
070700
038E00
03DE00
01DC00
01F800
00F800
007000
007000
007000
007000
007000
007000
007000
007000
007000
007000
007000
000000
000000
000000
007000
007000
007000
ENDCHAR
STARTCHAR 1EF5
ENCODING 7925
SWIDTH 600 0
DWIDTH 20 0
BBX 18 25 1 -7
BITMAP
E001C0
700380
700380
780780
380700
3C0F00
1C0E00
1C0E00
0E1C00
0E1C00
0F3C00
073800
07F800
03F000
03F000
01E000
01E000
01C000
01C000
03C000
038000
078E00
070E00
070E00
0E0000
ENDCHAR
STARTCHAR 1EF6
ENCODING 7926
SWIDTH 600 0
DWIDTH 20 0
BBX 21 33 0 0
BITMAP
007800
007C00
000C00
000C00
003800
003000
000000
000000
000000
F00078
7800F0
3800E0
3C01E0
1C03C0
0E0380
0F0780
070700
038E00
03DE00
01DC00
01F800
00F800
007000
007000
007000
007000
007000
007000
007000
007000
007000
007000
007000
ENDCHAR
STARTCHAR 1EF7
ENCODING 7927
SWIDTH 600 0
DWIDTH 20 0
BBX 18 34 1 -7
BITMAP
01E000
01F000
003000
003000
00E000
00C000
000000
000000
000000
E001C0
700380
700380
780780
380700
3C0F00
1C0E00
1C0E00
0E1C00
0E1C00
0F3C00
073800
07F800
03F000
03F000
01E000
01E000
01C000
01C000
03C000
038000
078000
070000
070000
0E0000
ENDCHAR
STARTCHAR 1EF8
ENCODING 7928
SWIDTH 600 0
DWIDTH 20 0
BBX 21 32 0 0
BITMAP
03C180
07E180
0E7300
0C3F00
0C1E00
000000
000000
000000
F00078
7800F0
3800E0
3C01E0
1C03C0
0E0380
0F0780
070700
038E00
03DE00
01DC00
01F800
00F800
007000
007000
007000
007000
007000
007000
007000
007000
007000
007000
007000
ENDCHAR
STARTCHAR 1EF9
ENCODING 7929
SWIDTH 600 0
DWIDTH 20 0
BBX 18 33 1 -7
BITMAP
078300
0FC300
1CE600
187E00
183C00
000000
000000
000000
E001C0
700380
700380
780780
380700
3C0F00
1C0E00
1C0E00
0E1C00
0E1C00
0F3C00
073800
07F800
03F000
03F000
01E000
01E000
01C000
01C000
03C000
038000
078000
070000
070000
0E0000
ENDCHAR
STARTCHAR 2013
ENCODING 8211
SWIDTH 630 0
DWIDTH 21 0
BBX 17 3 2 9
BITMAP
FFFF80
FFFF80
FFFF80
ENDCHAR
STARTCHAR 2014
ENCODING 8212
SWIDTH 990 0
DWIDTH 33 0
BBX 29 3 2 9
BITMAP
FFFFFFF8
FFFFFFF8
FFFFFFF8
ENDCHAR
STARTCHAR 2015
ENCODING 8213
SWIDTH 990 0
DWIDTH 33 0
BBX 27 3 3 9
BITMAP
FFFFFFE0
FFFFFFE0
FFFFFFE0
ENDCHAR
STARTCHAR 2017
ENCODING 8215
SWIDTH 630 0
DWIDTH 21 0
BBX 21 6 0 -7
BITMAP
FFFFF8
FFFFF8
000000
000000
FFFFF8
FFFFF8
ENDCHAR
STARTCHAR 2018
ENCODING 8216
SWIDTH 270 0
DWIDTH 9 0
BBX 7 9 0 16
BITMAP
F0
78
78
38
3C
1C
1C
0E
0E
ENDCHAR
STARTCHAR 2019
ENCODING 8217
SWIDTH 270 0
DWIDTH 9 0
BBX 7 9 3 16
BITMAP
1E
3C
3C
38
78
70
70
E0
E0
ENDCHAR
STARTCHAR 201A
ENCODING 8218
SWIDTH 270 0
DWIDTH 9 0
BBX 7 9 0 -4
BITMAP
1E
3C
3C
38
78
70
70
E0
E0
ENDCHAR
STARTCHAR 201B
ENCODING 8219
SWIDTH 270 0
DWIDTH 9 0
BBX 7 9 0 16
BITMAP
0E
0E
1C
1C
3C
38
78
78
F0
ENDCHAR
STARTCHAR 201C
ENCODING 8220
SWIDTH 450 0
DWIDTH 15 0
BBX 14 9 0 16
BITMAP
F1E0
78F0
78F0
3870
3C78
1C38
1C38
0E1C
0E1C
ENDCHAR
STARTCHAR 201D
ENCODING 8221
SWIDTH 450 0
DWIDTH 15 0
BBX 14 9 2 16
BITMAP
1E3C
3C78
3C78
3870
78F0
70E0
70E0
E1C0
E1C0
ENDCHAR
STARTCHAR 201E
ENCODING 8222
SWIDTH 450 0
DWIDTH 15 0
BBX 14 9 0 -4
BITMAP
1E3C
3C78
3C78
3870
78F0
70E0
70E0
E1C0
E1C0
ENDCHAR
STARTCHAR 2020
ENCODING 8224
SWIDTH 630 0
DWIDTH 21 0
BBX 14 23 3 2
BITMAP
0300
0300
0300
0300
0300
0300
FFFC
FFFC
0300
0300
0300
0300
0300
0300
0300
0300
0300
0300
0300
0300
0300
0300
0300
ENDCHAR
STARTCHAR 2021
ENCODING 8225
SWIDTH 630 0
DWIDTH 21 0
BBX 14 23 3 2
BITMAP
0300
0300
0300
0300
0300
0300
FFFC
FFFC
0300
0300
0300
0300
0300
0300
0300
FFFC
FFFC
0300
0300
0300
0300
0300
0300
ENDCHAR
STARTCHAR 2022
ENCODING 8226
SWIDTH 540 0
DWIDTH 18 0
BBX 12 12 3 5
BITMAP
0F00
3FC0
7FE0
7FE0
FFF0
FFF0
FFF0
FFF0
7FE0
7FE0
3FC0
0F00
ENDCHAR
STARTCHAR 2026
ENCODING 8230
SWIDTH 810 0
DWIDTH 27 0
BBX 21 3 3 0
BITMAP
E07038
E07038
E07038
ENDCHAR
STARTCHAR 2030
ENCODING 8240
SWIDTH 1500 0
DWIDTH 50 0
BBX 46 25 2 0
BITMAP
1F8000000000
3FC00E000000
70E00C000000
70E01C000000
E07018000000
E07038000000
E07030000000
E07070000000
E07060000000
E070E0000000
E0E1C0000000
70E1C3F007E0
3FC387F80FF0
1F838E1C1C38
00071E1C3C38
00071C0E381C
000E1C0E381C
000E1C0E381C
001C1C0E381C
00181C0E381C
00381C0E381C
00300C1C1838
00700E1C1C38
006007F80FF0
00E003F007E0
ENDCHAR
STARTCHAR 2032
ENCODING 8242
SWIDTH 360 0
DWIDTH 12 0
BBX 7 10 3 14
BITMAP
1E
1C
3C
38
38
70
70
60
E0
C0
ENDCHAR
STARTCHAR 2033
ENCODING 8243
SWIDTH 540 0
DWIDTH 18 0
BBX 13 10 3 14
BITMAP
1E78
1C70
3CF0
38E0
38E0
71C0
71C0
6180
E380
C300
ENDCHAR
STARTCHAR 2039
ENCODING 8249
SWIDTH 450 0
DWIDTH 15 0
BBX 9 15 3 3
BITMAP
0080
0180
0380
0F00
1E00
3C00
F000
E000
F000
3C00
1E00
0F00
0380
0180
0080
ENDCHAR
STARTCHAR 203A
ENCODING 8250
SWIDTH 450 0
DWIDTH 15 0
BBX 9 15 3 3
BITMAP
8000
C000
E000
7800
3C00
1E00
0780
0380
0780
1E00
3C00
7800
E000
C000
8000
ENDCHAR
STARTCHAR 203C
ENCODING 8252
SWIDTH 630 0
DWIDTH 21 0
BBX 11 24 5 0
BITMAP
E0E0
E0E0
E0E0
E0E0
E0E0
E0E0
E0E0
E0E0
E0E0
E0E0
E0E0
E0E0
E0E0
E0E0
E0E0
E0E0
E0E0
0000
0000
0000
0000
E0E0
E0E0
E0E0
ENDCHAR
STARTCHAR 203E
ENCODING 8254
SWIDTH 630 0
DWIDTH 21 0
BBX 22 2 -1 27
BITMAP
FFFFFC
FFFFFC
ENDCHAR
STARTCHAR 2044
ENCODING 8260
SWIDTH 360 0
DWIDTH 12 0
BBX 15 24 -2 0
BITMAP
000E
000C
001C
0018
0038
0030
0070
0060
00E0
01C0
01C0
0380
0380
0700
0700
0E00
0E00
1C00
1800
3800
3000
7000
6000
E000
ENDCHAR
STARTCHAR 207F
ENCODING 8319
SWIDTH 540 0
DWIDTH 18 0
BBX 14 16 2 9
BITMAP
03E0
EFF8
FFF8
F83C
F01C
E01C
E01C
E01C
E01C
E01C
E01C
E01C
E01C
E01C
E01C
E01C
ENDCHAR
STARTCHAR 20A3
ENCODING 8355
SWIDTH 630 0
DWIDTH 21 0
BBX 17 24 1 0
BITMAP
1FFF80
1FFF80
1FFF80
1C0000
1C0000
1C0000
1C0000
1C0000
1C0000
1FFF00
1FFF00
1FFF00
1C0000
1C0000
1C0000
1C0000
1C0000
FFE000
FFE000
1C0000
1C0000
1C0000
1C0000
1C0000
ENDCHAR
STARTCHAR 20A4
ENCODING 8356
SWIDTH 630 0
DWIDTH 21 0
BBX 17 25 2 0
BITMAP
007F00
01FF80
03FF80
078180
0F0000
0E0000
0E0000
0E0000
0E0000
0E0000
7FF800
7FF800
0E0000
0E0000
7FF800
7FF800
0E0000
0E0000
1C0000
1C0000
380000
F00000
FFFF80
FFFF80
FFFF80
ENDCHAR
STARTCHAR 20A7
ENCODING 8359
SWIDTH 1140 0
DWIDTH 38 0
BBX 33 24 3 0
BITMAP
FF00000000
FFC0000000
FFE1C00000
E1F1C00000
E079C00000
E039C07C00
E03FFFFF00
E03FFFFF00
E03FFF8700
E079C70100
E071C70000
E1F1C70000
FFE1C78000
FFC1C3F800
FF01C1FE00
E001C07F00
E001C00780
E001C00380
E001C00380
E001C40380
E001C70780
E001C7FF00
E001C7FE00
E001C1F800
ENDCHAR
STARTCHAR 20AB
ENCODING 8363
SWIDTH 630 0
DWIDTH 21 0
BBX 19 30 2 -5
BITMAP
000700
000700
01FFE0
01FFE0
000700
000700
03E700
0FFF00
3FFF00
3C0F00
780700
700700
E00700
E00700
E00700
E00700
E00700
E00700
E00700
F00700
700F00
783F00
3FFF00
1FF700
07C700
000000
000000
000000
3FFF00
3FFF00
ENDCHAR
STARTCHAR 20AC
ENCODING 8364
SWIDTH 630 0
DWIDTH 21 0
BBX 20 25 0 0
BITMAP
003F80
00FFF0
03FFF0
07C070
0F8010
0E0000
1E0000
1C0000
3C0000
7FF800
FFF000
380000
380000
380000
7FE000
FFE000
3C0000
1C0000
1E0000
1E0000
0F8010
07C070
03FFF0
01FFF0
003F80
ENDCHAR
STARTCHAR 2105
ENCODING 8453
SWIDTH 1080 0
DWIDTH 36 0
BBX 32 25 2 0
BITMAP
0FC00000
3FE00700
78600600
70200E00
E0000C00
E0001800
E0001800
E0003000
E0007000
E0006000
7020E000
7860C1F8
3FE183FC
0FC1870E
00030F0E
00070E07
00060E07
000E0E07
000C0E07
00180E07
00180E07
0030060E
0070070E
006003FC
00E001F8
ENDCHAR
STARTCHAR 2113
ENCODING 8467
SWIDTH 330 0
DWIDTH 11 0
BBX 10 24 0 0
BITMAP
0700
0F80
1CC0
1CC0
1CC0
1CC0
1D80
1D80
1F80
1F00
1F00
1E00
1C00
1C00
3C00
7C00
FC00
5C00
1C00
1C00
1C40
1CC0
1FC0
0F00
ENDCHAR
STARTCHAR 2116
ENCODING 8470
SWIDTH 1170 0
DWIDTH 39 0
BBX 33 25 3 0
BITMAP
000000FC00
F801C1FE00
FC01C38700
FC01C78700
FE01C70380
EE01C70380
E701C70380
E701C70380
E381C70380
E381C70380
E1C1C70700
E1C1C38700
E0E1C1FE00
E0E1C0FC00
E071C00000
E071C00000
E039C00000
E039C00000
E01DC1FE00
E01DC1FE00
E00FC1FE00
E00FC00000
E007C00000
E007C00000
E003C00000
ENDCHAR
STARTCHAR 2122
ENCODING 8482
SWIDTH 960 0
DWIDTH 32 0
BBX 27 11 2 13
BITMAP
FFC781E0
FFC6C3E0
0C06C360
0C066660
0C066660
0C063C60
0C063C60
0C061860
0C060060
0C060060
0C060060
ENDCHAR
STARTCHAR 2126
ENCODING 8486
SWIDTH 810 0
DWIDTH 27 0
BBX 23 25 2 0
BITMAP
00FE00
03FF80
0FFFE0
1F01F0
1E00F0
3C0078
380038
70001C
70001C
70001C
70001C
70001C
70001C
78003C
380038
3C0078
1E00F0
0F01E0
07C7C0
03C780
01C700
01C700
FFC7FE
FFC7FE
FFC7FE
ENDCHAR
STARTCHAR 212E
ENCODING 8494
SWIDTH 720 0
DWIDTH 24 0
BBX 18 21 3 0
BITMAP
03F800
0FFE00
1FFF00
3E0F80
780380
700380
6001C0
E001C0
FFFFC0
FFFFC0
FFFFC0
E00000
E00000
E00000
F00000
700000
780040
3E03C0
1FFFC0
0FFF80
01FE00
ENDCHAR
STARTCHAR 215B
ENCODING 8539
SWIDTH 990 0
DWIDTH 33 0
BBX 28 24 3 0
BITMAP
1C00E000
1C00C000
FC01C000
FC018000
1C038000
1C030000
1C070000
1C060000
1C0E0F80
1C1C3FE0
1C1C78F0
1C387070
1C387070
1C707870
1C703EE0
00E01F80
00E077E0
01C060E0
0180E070
0380E070
0300E070
070070E0
06007FE0
0E001F80
ENDCHAR
STARTCHAR 215C
ENCODING 8540
SWIDTH 990 0
DWIDTH 33 0
BBX 29 25 3 0
BITMAP
3F000000
FFC03800
E1E03000
80E07000
00E06000
00E0E000
01C0C000
1F01C000
1F818000
01C387C0
00E71FF0
00E73C78
80EE3838
E1CE3838
FFDC3C38
7F1C1F70
00380FC0
00383BF0
00703070
00607038
00E07038
00C07038
01C03870
01803FF0
03800FC0
ENDCHAR
STARTCHAR 215D
ENCODING 8541
SWIDTH 990 0
DWIDTH 33 0
BBX 29 24 3 0
BITMAP
7FE03800
7FE03000
60007000
60006000
6000E000
7F00C000
7FC1C000
01E18000
00E387C0
00E71FF0
00E73C78
00EE3838
C1CE3838
FF9C3C38
7F1C1F70
00380FC0
00383BF0
00703070
00607038
00E07038
00C07038
01C03870
01803FF0
03800FC0
ENDCHAR
STARTCHAR 215E
ENCODING 8542
SWIDTH 990 0
DWIDTH 33 0
BBX 28 24 3 0
BITMAP
FFE0E000
FFE0C000
00E1C000
01C18000
01C38000
03830000
07870000
07060000
0F0E0F80
0E1C3FE0
1E1C78F0
1C387070
3C387070
38707870
78703EE0
00E01F80
00E077E0
01C060E0
0180E070
0380E070
0300E070
070070E0
06007FE0
0E001F80
ENDCHAR
STARTCHAR 2202
ENCODING 8706
SWIDTH 630 0
DWIDTH 21 0
BBX 16 25 2 0
BITMAP
07E0
3FF8
3FFC
383E
200E
000E
0007
0007
0007
07E7
1FF7
3FFF
7C1F
7007
F007
E007
E00E
E00E
E00E
E01C
F01C
7878
3FF8
1FF0
0FC0
ENDCHAR
STARTCHAR 2206
ENCODING 8710
SWIDTH 720 0
DWIDTH 24 0
BBX 22 24 1 0
BITMAP
007800
00FC00
00FC00
00FC00
01CE00
01CE00
03CE00
038700
038700
078780
070380
070380
0E01C0
0E01C0
0E01C0
1C00E0
1C00E0
3C00F0
380070
380070
780078
7FFFF8
7FFFF8
FFFFFC
ENDCHAR
STARTCHAR 220F
ENCODING 8719
SWIDTH 810 0
DWIDTH 27 0
BBX 21 28 3 -3
BITMAP
FFFFF8
FFFFF8
FFFFF8
1C01C0
1C01C0
1C01C0
1C01C0
1C01C0
1C01C0
1C01C0
1C01C0
1C01C0
1C01C0
1C01C0
1C01C0
1C01C0
1C01C0
1C01C0
1C01C0
1C01C0
1C01C0
1C01C0
1C01C0
1C01C0
1C01C0
1C01C0
1C01C0
1C01C0
ENDCHAR
STARTCHAR 2211
ENCODING 8721
SWIDTH 720 0
DWIDTH 24 0
BBX 19 27 3 -3
BITMAP
FFFFC0
FFFFC0
FFFFC0
780000
3C0000
1E0000
0F0000
078000
03C000
01E000
00E000
007000
003800
001C00
003C00
007800
00F000
01E000
03C000
078000
0F0000
1E0000
3C0000
F80000
FFFFE0
FFFFE0
FFFFE0
ENDCHAR
STARTCHAR 2212
ENCODING 8722
SWIDTH 810 0
DWIDTH 27 0
BBX 20 3 4 9
BITMAP
FFFFF0
FFFFF0
FFFFF0
ENDCHAR
STARTCHAR 2215
ENCODING 8725
SWIDTH 360 0
DWIDTH 12 0
BBX 15 24 -2 0
BITMAP
000E
000C
001C
0018
0038
0030
0070
0060
00E0
01C0
01C0
0380
0380
0700
0700
0E00
0E00
1C00
1800
3800
3000
7000
6000
E000
ENDCHAR
STARTCHAR 2219
ENCODING 8729
SWIDTH 360 0
DWIDTH 12 0
BBX 4 5 4 8
BITMAP
F0
F0
F0
F0
F0
ENDCHAR
STARTCHAR 221A
ENCODING 8730
SWIDTH 810 0
DWIDTH 27 0
BBX 26 31 2 -2
BITMAP
000000C0
00000180
00000180
00000300
00000300
00000700
00000600
00000E00
00000C00
00000C00
00001800
00001800
00003000
FE003000
FE006000
0E006000
0700E000
0700C000
0781C000
03818000
03C18000
01C30000
01C30000
00E60000
00E60000
00FE0000
007C0000
007C0000
00380000
00380000
00100000
ENDCHAR
STARTCHAR 221E
ENCODING 8734
SWIDTH 990 0
DWIDTH 33 0
BBX 27 16 3 3
BITMAP
0FC03E00
1FE0FF80
3FF1FF80
787BC3C0
701F81C0
E00F00E0
E00F00E0
E00E00E0
E00E00E0
E01E00E0
E01E00E0
F03F01C0
787B83C0
7FF1FF80
3FE0FF00
0F807E00
ENDCHAR
STARTCHAR 222B
ENCODING 8747
SWIDTH 630 0
DWIDTH 21 0
BBX 17 32 2 -7
BITMAP
001F80
007F80
00FF80
00F000
01E000
01C000
01C000
01C000
01C000
01C000
01C000
01C000
01C000
01C000
01C000
01C000
01C000
01C000
01C000
01C000
01C000
01C000
01C000
01C000
01C000
01C000
01C000
03C000
038000
FF8000
FF0000
FC0000
ENDCHAR
STARTCHAR 2248
ENCODING 8776
SWIDTH 810 0
DWIDTH 27 0
BBX 19 14 4 4
BITMAP
1F0060
3FC0E0
7FF0C0
61FFC0
E07F80
C01F00
000000
000000
1F0060
3FC0E0
7FF0C0
61FFC0
C07F80
C01F00
ENDCHAR
STARTCHAR 2260
ENCODING 8800
SWIDTH 810 0
DWIDTH 27 0
BBX 19 20 4 0
BITMAP
000C00
001800
001800
001800
003000
FFFFE0
FFFFE0
FFFFE0
006000
006000
00C000
00C000
FFFFE0
FFFFE0
FFFFE0
018000
030000
030000
030000
060000
ENDCHAR
STARTCHAR 2264
ENCODING 8804
SWIDTH 810 0
DWIDTH 27 0
BBX 19 23 4 0
BITMAP
000020
0001E0
0007E0
001FC0
00FF00
03FC00
0FE000
7F8000
FC0000
FC0000
7F8000
0FE000
03FC00
00FF00
001FC0
0007E0
0001E0
000020
000000
000000
FFFFE0
FFFFE0
FFFFE0
ENDCHAR
STARTCHAR 2265
ENCODING 8805
SWIDTH 810 0
DWIDTH 27 0
BBX 19 23 4 0
BITMAP
800000
F00000
FC0000
7F0000
1FE000
07F800
00FE00
003FC0
0007E0
0007E0
003FC0
00FE00
07F800
1FE000
7F0000
FC0000
F00000
800000
000000
000000
FFFFE0
FFFFE0
FFFFE0
ENDCHAR
STARTCHAR 25A1
ENCODING 9633
SWIDTH 600 0
DWIDTH 20 0
BBX 15 15 2 0
BITMAP
FFFE
8002
8002
8002
8002
8002
8002
8002
8002
8002
8002
8002
8002
8002
FFFE
ENDCHAR
STARTCHAR 25AA
ENCODING 9642
SWIDTH 360 0
DWIDTH 12 0
BBX 7 7 2 8
BITMAP
FE
FE
FE
FE
FE
FE
FE
ENDCHAR
STARTCHAR 25AB
ENCODING 9643
SWIDTH 360 0
DWIDTH 12 0
BBX 7 7 2 8
BITMAP
FE
82
82
82
82
82
FE
ENDCHAR
STARTCHAR 25CA
ENCODING 9674
SWIDTH 810 0
DWIDTH 27 0
BBX 21 21 3 -1
BITMAP
002000
007000
00F800
01DC00
038E00
070700
0E0380
1E01C0
3C00E0
780070
E00038
7000F0
3801E0
1C03C0
0E0380
070700
038E00
01DC00
00F800
007000
002000
ENDCHAR
STARTCHAR 25CF
ENCODING 9679
SWIDTH 600 0
DWIDTH 20 0
BBX 14 14 3 2
BITMAP
0FC0
1FE0
3FF0
7FF8
FFFC
FFFC
FFFC
FFFC
FFFC
FFFC
7FF8
3FF0
1FE0
0FC0
ENDCHAR
STARTCHAR 25E6
ENCODING 9702
SWIDTH 360 0
DWIDTH 12 0
BBX 8 8 2 7
BITMAP
3C
42
81
81
81
81
42
3C
ENDCHAR
STARTCHAR F001
ENCODING 61441
SWIDTH 630 0
DWIDTH 21 0
BBX 17 25 1 0
BITMAP
07F000
0FF380
1FF380
3C0380
380000
380000
380000
FFFF80
FFFF80
FFFF80
380380
380380
380380
380380
380380
380380
380380
380380
380380
380380
380380
380380
380380
380380
380380
ENDCHAR
STARTCHAR F002
ENCODING 61442
SWIDTH 630 0
DWIDTH 21 0
BBX 17 25 1 0
BITMAP
03FF80
0FFF80
1FFF80
1E0380
380380
380380
380380
FFE380
FFE380
FFE380
380380
380380
380380
380380
380380
380380
380380
380380
380380
380380
380380
380380
380380
380380
380380
ENDCHAR
STARTCHAR F004
ENCODING 61444
SWIDTH 210 0
DWIDTH 7 0
BBX 7 9 2 -7
BITMAP
1E
3C
3C
38
78
70
70
E0
E0
ENDCHAR
STARTCHAR F005
ENCODING 61445
SWIDTH 630 0
DWIDTH 21 0
BBX 9 7 6 -7
BITMAP
0380
0380
0380
8780
FF00
FF00
FC00
ENDCHAR
STARTCHAR F006
ENCODING 61446
SWIDTH 540 0
DWIDTH 18 0
BBX 6 15 5 9
BITMAP
1C
1C
FC
FC
1C
1C
1C
1C
1C
1C
1C
1C
1C
1C
1C
ENDCHAR
STARTCHAR F007
ENCODING 61447
SWIDTH 540 0
DWIDTH 18 0
BBX 11 16 4 9
BITMAP
7E00
FF80
C380
81C0
01C0
01C0
01C0
0380
0380
0700
0E00
1C00
3800
F000
FFE0
FFE0
ENDCHAR
STARTCHAR F008
ENCODING 61448
SWIDTH 540 0
DWIDTH 18 0
BBX 11 16 4 9
BITMAP
3F00
FFC0
E1E0
80E0
00E0
00E0
01C0
1F00
1F80
01C0
00E0
00E0
80E0
E1C0
FFC0
7F00
ENDCHAR
STARTCHAR F009
ENCODING 61449
SWIDTH 540 0
DWIDTH 18 0
BBX 13 16 3 9
BITMAP
01C0
03C0
07C0
0FC0
0DC0
19C0
39C0
71C0
E1C0
C1C0
FFF8
FFF8
01C0
01C0
01C0
01C0
ENDCHAR
STARTCHAR F00A
ENCODING 61450
SWIDTH 540 0
DWIDTH 18 0
BBX 11 15 4 9
BITMAP
7FE0
7FE0
6000
6000
6000
7F00
7FC0
01E0
00E0
00E0
00E0
00E0
C1C0
FF80
7F00
ENDCHAR
STARTCHAR F00B
ENCODING 61451
SWIDTH 540 0
DWIDTH 18 0
BBX 11 15 4 9
BITMAP
FFE0
FFE0
00E0
01C0
01C0
0380
0780
0700
0F00
0E00
1E00
1C00
3C00
3800
7800
ENDCHAR
STARTCHAR F00C
ENCODING 61452
SWIDTH 540 0
DWIDTH 18 0
BBX 12 16 3 9
BITMAP
0F80
3FE0
78F0
7070
7070
7870
3EE0
1F80
77E0
60E0
E070
E070
E070
70E0
7FE0
1F80
ENDCHAR
STARTCHAR F00D
ENCODING 61453
SWIDTH 0 0
DWIDTH 0 0
BBX 1 1 0 0
BITMAP
00
ENDCHAR
STARTCHAR FB01
ENCODING 64257
SWIDTH 630 0
DWIDTH 21 0
BBX 17 25 1 0
BITMAP
07F000
0FF380
1FF380
3C0380
380000
380000
380000
FFFF80
FFFF80
FFFF80
380380
380380
380380
380380
380380
380380
380380
380380
380380
380380
380380
380380
380380
380380
380380
ENDCHAR
STARTCHAR FB02
ENCODING 64258
SWIDTH 630 0
DWIDTH 21 0
BBX 17 25 1 0
BITMAP
03FF80
0FFF80
1FFF80
1E0380
380380
380380
380380
FFE380
FFE380
FFE380
380380
380380
380380
380380
380380
380380
380380
380380
380380
380380
380380
380380
380380
380380
380380
ENDCHAR
ENDFONT
